{
.appVersion = "1352";
DisplayStrings = (
noHot,
"aá/abreve/brevecomb/brevecomb_acutecomb/abreveacute/abrevedotbelow/brevecomb_gravecomb/abrevegrave/brevecomb/abreve/abrevedotbelow/ebreve/gbreve/ibreve/obreve/ubreve/breve/brevecomb/brevecomb_acutecomb/brevecomb_gravecomb/hookabovecomb/brevecomb_hookabovecomb/brevecomb_tildecomb/hookabovecomb/brevecomb_hookabovecomb/abrevehookabove/abrevetilde/acaron â/space/acutecomb/circumflexcomb_acutecomb/acircumflexacute/acircumflexdotbelow/circumflexcomb/gravecomb/circumflexcomb_gravecomb/acircumflexgrave/circumflexcomb_hookabovecomb/acircumflexhookabove/acircumflextilde/adblgrave ä/adotbelow à/ahookabove/ainvertedbreve/amacron/aogonek å/aringacute ã",
"a/Placeholder b/Placeholder c/Placeholder d/Placeholder e/Placeholder f/Placeholder g/Placeholder h/Placeholder i/Placeholder j/Placeholder k/Placeholder l/Placeholder m/Placeholder n/Placeholder o/Placeholder p/Placeholder q/Placeholder r/Placeholder s/Placeholder t/Placeholder u/Placeholder v/Placeholder w/Placeholder x/Placeholder y/Placeholder z/Placeholder \012nn/Placeholder no/Placeholder oo/space HH/Placeholder HO/Placeholder OO\012onmw.,:;/ellipsis !¡?¿nn?·/bullet *#/////backslash/space/periodcentered.loclCAT.case/periodcentered.loclCAT (){}[]-­/endash/emdash/hyphentwo _\012o/quotesinglbase/quotedblbase n/quotedblleft d/quotedblright/quoteleft/quoteright «»/guilsinglleft/guilsinglright \"'/leftanglebracket-math/rightanglebracket-math f@",
"eé/ebreve/ecaron/circumflexcomb ê/circumflexcomb_acutecomb/ecircumflexacute/ecircumflexdotbelow/circumflexcomb_gravecomb/ecircumflexgrave/ecircumflexhookabove/ecircumflextilde/edblgrave ë/edotaccent/edotbelow è/ehookabove/einvertedbreve/emacron/eogonek/etilde",

glyphs = (
{
glyphname = .notdef;
lastChange = "2022-03-25 01:08:17 +0000";
layers = (
{
layerId = "16A236A6-57F5-4152-84D1-48D854BBAFA9";
paths = (
{
closed = 1;
nodes = (
"50 0 LINE",
"320 0 LINE",
"320 534 LINE",
"50 534 LINE"
);
},
{
closed = 1;
nodes = (
"103 53 LINE",
"183 236 LINE",
"263 53 LINE"
);
},
{
closed = 1;
nodes = (
"94 439 LINE",
"167 271 LINE",
"94 106 LINE"
);
},
{
closed = 1;
nodes = (
"272 104 LINE",
"198 271 LINE",
"272 441 LINE"
);
},
{
closed = 1;
nodes = (
"106 480 LINE",
"259 480 LINE",
"183 307 LINE"
);
}
);
userData = {
assembly = "NPUSHB[ ]	/* 32 values pushed */\0121 8 8 64 9 2 7 4 4 1 0 6 5 4 3 2 5 4 6 0 7 6 6 1 2 1 3 0 0 1 0 70 \012SROUND[ ]	/* SuperRound */\012MDAP[1]	/* MoveDirectAbsPt */\012SHZ[1]	/* ShiftZoneByLastPoint */\012RTG[ ]	/* RoundToGrid */\012SVTCA[0]	/* SetFreedomAndProjectionVectorToAxis */\012MIAP[1]	/* MoveIndirectAbsPt */\012ALIGNRP[ ]	/* AlignRelativePt */\012MDAP[1]	/* MoveDirectAbsPt */\012ALIGNRP[ ]	/* AlignRelativePt */\012SRP0[ ]	/* SetRefPoint0 */\012MIRP[11101]	/* MoveIndirectRelPt */\012ALIGNRP[ ]	/* AlignRelativePt */\012SRP0[ ]	/* SetRefPoint0 */\012MIRP[11101]	/* MoveIndirectRelPt */\012ALIGNRP[ ]	/* AlignRelativePt */\012SVTCA[1]	/* SetFreedomAndProjectionVectorToAxis */\012MDAP[1]	/* MoveDirectAbsPt */\012ALIGNRP[ ]	/* AlignRelativePt */\012MIRP[11101]	/* MoveIndirectRelPt */\012ALIGNRP[ ]	/* AlignRelativePt */\012MDAP[1]	/* MoveDirectAbsPt */\012ALIGNRP[ ]	/* AlignRelativePt */\012MIRP[11101]	/* MoveIndirectRelPt */\012ALIGNRP[ ]	/* AlignRelativePt */\012SVTCA[0]	/* SetFreedomAndProjectionVectorToAxis */\012IUP[1]	/* InterpolateUntPts */\012IUP[0]	/* InterpolateUntPts */\012SVTCA[1]	/* SetFreedomAndProjectionVectorToAxis */\012MD[0]	/* MeasureDistance */\012ROUND[00]	/* Round */\012PUSHW[ ]	/* 2 values pushed */\0120 8 \012MD[0]	/* MeasureDistance */\012ROUND[00]	/* Round */\012SUB[ ]	/* Subtract */\012PUSHB[ ]	/* 1 value pushed */\01264 \012GT[ ]	/* GreaterThan */\012IF[ ]	/* If */\012SHPIX[ ]	/* ShiftZoneByPixel */\012SRP1[ ]	/* SetRefPoint1 */\012SHZ[1]	/* ShiftZoneByLastPoint */\012PUSHW[ ]	/* 2 values pushed */\0128 -64 \012SHPIX[ ]	/* ShiftZoneByPixel */\012EIF[ ]	/* EndIf */";
};
width = 370;
}
);
note = .notdef;
},
{
color = 3;
glyphname = A;
lastChange = "2022-03-22 12:56:52 +0000";
layers = (
{
anchors = (
{
name = bottom;
position = "{533, 0}";
},
{
name = ogonek;
position = "{808, -8}";
},
{
name = top;
position = "{1113, 620}";
}
);
layerId = "16A236A6-57F5-4152-84D1-48D854BBAFA9";
paths = (
{
closed = 1;
nodes = (
"164 -132 OFFCURVE",
"254 -100 OFFCURVE",
"359 -37 CURVE SMOOTH",
"437 10 OFFCURVE",
"514 67 OFFCURVE",
"590 135 CURVE SMOOTH",
"681 217 LINE",
"722 228 OFFCURVE",
"761 235 OFFCURVE",
"798 237 CURVE",
"751 142 OFFCURVE",
"727 66 OFFCURVE",
"727 8 CURVE SMOOTH",
"727 2 OFFCURVE",
"728 -3 OFFCURVE",
"728 -9 CURVE SMOOTH",
"729 -25 OFFCURVE",
"751 -41 OFFCURVE",
"768 -41 CURVE SMOOTH",
"775 -41 OFFCURVE",
"780 -39 OFFCURVE",
"783 -35 CURVE SMOOTH",
"800 -13 OFFCURVE",
"826 10 OFFCURVE",
"861 35 CURVE SMOOTH",
"892 56 OFFCURVE",
"917 70 OFFCURVE",
"936 77 CURVE SMOOTH",
"942 79 OFFCURVE",
"944 81 OFFCURVE",
"944 83 CURVE SMOOTH",
"944 85 LINE SMOOTH",
"944 88 OFFCURVE",
"942 89 OFFCURVE",
"938 88 CURVE",
"910 76 OFFCURVE",
"888 64 OFFCURVE",
"869 53 CURVE",
"866 52 OFFCURVE",
"854 44 OFFCURVE",
"833 29 CURVE SMOOTH",
"816 18 OFFCURVE",
"805 12 OFFCURVE",
"798 12 CURVE SMOOTH",
"794 12 OFFCURVE",
"791 13 OFFCURVE",
"789 16 CURVE SMOOTH",
"786 22 OFFCURVE",
"785 32 OFFCURVE",
"785 46 CURVE SMOOTH",
"785 93 OFFCURVE",
"802 154 OFFCURVE",
"835 229 CURVE",
"856 239 OFFCURVE",
"873 244 OFFCURVE",
"887 244 CURVE SMOOTH",
"890 244 OFFCURVE",
"893 243 OFFCURVE",
"896 243 CURVE SMOOTH",
"908 244 OFFCURVE",
"914 246 OFFCURVE",
"914 251 CURVE SMOOTH",
"914 256 OFFCURVE",
"907 258 OFFCURVE",
"892 258 CURVE SMOOTH",
"872 258 LINE SMOOTH",
"865 258 OFFCURVE",
"856 258 OFFCURVE",
"847 257 CURVE",
"859 284 OFFCURVE",
"876 313 OFFCURVE",
"897 346 CURVE SMOOTH",
"972 462 OFFCURVE",
"1034 539 OFFCURVE",
"1085 582 CURVE SMOOTH",
"1090 586 OFFCURVE",
"1092 589 OFFCURVE",
"1092 592 CURVE SMOOTH",
"1092 594 OFFCURVE",
"1090 595 OFFCURVE",
"1087 595 CURVE SMOOTH",
"1081 595 OFFCURVE",
"1074 592 OFFCURVE",
"1067 585 CURVE SMOOTH",
"1032 556 OFFCURVE",
"998 523 OFFCURVE",
"967 483 CURVE SMOOTH",
"875 362 LINE SMOOTH",
"849 328 OFFCURVE",
"827 293 OFFCURVE",
"808 256 CURVE",
"767 256 LINE",
"758 255 OFFCURVE",
"751 255 OFFCURVE",
"744 255 CURVE SMOOTH",
"726 255 LINE",
"782 312 OFFCURVE",
"830 362 OFFCURVE",
"871 403 CURVE SMOOTH",
"912 444 OFFCURVE",
"945 478 OFFCURVE",
"970 504 CURVE SMOOTH",
"974 508 OFFCURVE",
"976 512 OFFCURVE",
"976 516 CURVE SMOOTH",
"976 519 OFFCURVE",
"975 520 OFFCURVE",
"973 520 CURVE SMOOTH",
"970 520 OFFCURVE",
"966 517 OFFCURVE",
"961 512 CURVE SMOOTH",
"936 485 OFFCURVE",
"894 446 OFFCURVE",
"834 393 CURVE SMOOTH",
"674 253 LINE",
"668 253 OFFCURVE",
"664 253 OFFCURVE",
"662 252 CURVE",
"589 251 OFFCURVE",
"524 250 OFFCURVE",
"467 250 CURVE SMOOTH",
"465 250 OFFCURVE",
"468 253 OFFCURVE",
"477 258 CURVE SMOOTH",
"484 262 OFFCURVE",
"488 265 OFFCURVE",
"488 266 CURVE",
"487 266 LINE SMOOTH",
"465 266 OFFCURVE",
"435 261 OFFCURVE",
"397 250 CURVE",
"380 250 OFFCURVE",
"372 240 OFFCURVE",
"372 220 CURVE SMOOTH",
"372 208 OFFCURVE",
"377 202 OFFCURVE",
"388 202 CURVE",
"503 216 OFFCURVE",
"589 225 OFFCURVE",
"647 229 CURVE",
"568 160 LINE SMOOTH",
"373 -10 OFFCURVE",
"225 -104 OFFCURVE",
"116 -116 CURVE SMOOTH",
"51 -123 OFFCURVE",
"19 -92 OFFCURVE",
"19 -25 CURVE SMOOTH",
"19 40 OFFCURVE",
"45 102 OFFCURVE",
"97 161 CURVE SMOOTH",
"194 271 OFFCURVE",
"276 326 OFFCURVE",
"345 326 CURVE SMOOTH",
"363 326 OFFCURVE",
"378 318 OFFCURVE",
"389 303 CURVE SMOOTH",
"396 293 LINE SMOOTH",
"398 290 OFFCURVE",
"400 288 OFFCURVE",
"401 286 CURVE SMOOTH",
"405 280 LINE",
"412 280 OFFCURVE",
"415 288 OFFCURVE",
"415 304 CURVE SMOOTH",
"415 329 OFFCURVE",
"396 342 OFFCURVE",
"359 342 CURVE SMOOTH",
"347 342 OFFCURVE",
"334 340 OFFCURVE",
"319 337 CURVE SMOOTH",
"229 315 OFFCURVE",
"148 260 OFFCURVE",
"77 173 CURVE SMOOTH",
"10 90 OFFCURVE",
"-24 20 OFFCURVE",
"-24 -36 CURVE SMOOTH",
"-24 -100 OFFCURVE",
"14 -132 OFFCURVE",
"91 -132 CURVE SMOOTH"
);
}
);
userData = {
assembly = "PUSHW[ ]	/* 1 value pushed */\01210 \012CALL[ ]	/* CallFunction */\012PUSHW[ ]	/* 4 values pushed */\01274 1070 52 14 \012CALL[ ]	/* CallFunction */\012NPUSHW[ ]	/* 21 values pushed */\012102 74 118 74 134 74 150 74 166 74 182 74 198 74 214 74 230 74 246 74 10 \012DELTAP1[ ]	/* DeltaExceptionP1 */\012NPUSHW[ ]	/* 33 values pushed */\0126 74 22 74 38 74 54 74 70 74 86 74 102 74 118 74 134 74 150 74 166 74 182 74 198 74 214 74 230 74 246 74 16 \012DELTAP2[ ]	/* DeltaExceptionP2 */\012NPUSHW[ ]	/* 25 values pushed */\0126 74 22 74 38 74 54 74 70 74 86 74 102 74 118 74 134 74 150 74 166 74 182 74 12 \012DELTAP3[ ]	/* DeltaExceptionP3 */\012NPUSHW[ ]	/* 5 values pushed */\012197 74 213 74 2 \012DELTAP3[ ]	/* DeltaExceptionP3 */\012SVTCA[0]	/* SetFreedomAndProjectionVectorToAxis */\012PUSHW[ ]	/* 1 value pushed */\012120 \012MDAP[1]	/* MoveDirectAbsPt */\012PUSHW[ ]	/* 1 value pushed */\012122 \012MDAP[1]	/* MoveDirectAbsPt */\012PUSHW[ ]	/* 1 value pushed */\01250 \012MDAP[1]	/* MoveDirectAbsPt */\012PUSHW[ ]	/* 3 values pushed */\0126 50 120 \012SRP1[ ]	/* SetRefPoint1 */\012SRP2[ ]	/* SetRefPoint2 */\012IP[ ]	/* InterpolatePts */\012PUSHW[ ]	/* 3 values pushed */\01243 50 120 \012SRP1[ ]	/* SetRefPoint1 */\012SRP2[ ]	/* SetRefPoint2 */\012IP[ ]	/* InterpolatePts */\012PUSHW[ ]	/* 3 values pushed */\01279 50 120 \012SRP1[ ]	/* SetRefPoint1 */\012SRP2[ ]	/* SetRefPoint2 */\012IP[ ]	/* InterpolatePts */\012PUSHW[ ]	/* 3 values pushed */\01291 50 120 \012SRP1[ ]	/* SetRefPoint1 */\012SRP2[ ]	/* SetRefPoint2 */\012IP[ ]	/* InterpolatePts */\012PUSHW[ ]	/* 3 values pushed */\012109 50 120 \012SRP1[ ]	/* SetRefPoint1 */\012SRP2[ ]	/* SetRefPoint2 */\012IP[ ]	/* InterpolatePts */\012IUP[0]	/* InterpolateUntPts */\012IUP[1]	/* InterpolateUntPts */";
};
width = 905;
}
);
leftKerningGroup = A;
note = A;
rightKerningGroup = A;
unicode = 0041;
},
{
color = 3;
glyphname = AE;
lastChange = "2022-03-22 08:39:34 +0000";
layers = (
{
anchors = (
{
name = top;
position = "{1133, 620}";
}
);
layerId = "16A236A6-57F5-4152-84D1-48D854BBAFA9";
paths = (
{
closed = 1;
nodes = (
"164 -132 OFFCURVE",
"254 -100 OFFCURVE",
"359 -37 CURVE SMOOTH",
"437 10 OFFCURVE",
"514 67 OFFCURVE",
"590 135 CURVE SMOOTH",
"681 217 LINE",
"694 220 OFFCURVE",
"726 225 OFFCURVE",
"777 232 CURVE",
"736 179 OFFCURVE",
"715 127 OFFCURVE",
"715 78 CURVE SMOOTH",
"715 28 OFFCURVE",
"735 -13 OFFCURVE",
"775 -45 CURVE SMOOTH",
"815 -77 OFFCURVE",
"866 -93 OFFCURVE",
"928 -93 CURVE SMOOTH",
"986 -93 OFFCURVE",
"1042 -86 OFFCURVE",
"1095 -73 CURVE SMOOTH",
"1127 -65 OFFCURVE",
"1174 -49 OFFCURVE",
"1237 -25 CURVE SMOOTH",
"1286 -6 OFFCURVE",
"1342 20 OFFCURVE",
"1407 55 CURVE SMOOTH",
"1438 71 OFFCURVE",
"1482 96 OFFCURVE",
"1542 131 CURVE SMOOTH",
"1552 137 OFFCURVE",
"1557 143 OFFCURVE",
"1557 149 CURVE SMOOTH",
"1557 153 OFFCURVE",
"1555 155 OFFCURVE",
"1550 155 CURVE SMOOTH",
"1546 155 OFFCURVE",
"1542 154 OFFCURVE",
"1537 151 CURVE SMOOTH",
"1397 78 LINE SMOOTH",
"1341 49 OFFCURVE",
"1290 27 OFFCURVE",
"1244 12 CURVE SMOOTH",
"1092 -39 LINE SMOOTH",
"1031 -60 OFFCURVE",
"972 -66 OFFCURVE",
"917 -66 CURVE SMOOTH",
"814 -66 OFFCURVE",
"762 -31 OFFCURVE",
"762 40 CURVE SMOOTH",
"762 91 OFFCURVE",
"791 158 OFFCURVE",
"849 239 CURVE",
"880 242 LINE SMOOTH",
"887 243 OFFCURVE",
"893 243 OFFCURVE",
"896 243 CURVE SMOOTH",
"909 244 OFFCURVE",
"915 246 OFFCURVE",
"915 250 CURVE SMOOTH",
"915 251 OFFCURVE",
"915 252 OFFCURVE",
"913 254 CURVE",
"1017 271 OFFCURVE",
"1094 279 OFFCURVE",
"1146 279 CURVE SMOOTH",
"1199 279 OFFCURVE",
"1248 272 OFFCURVE",
"1291 259 CURVE SMOOTH",
"1314 252 OFFCURVE",
"1325 242 OFFCURVE",
"1325 229 CURVE SMOOTH",
"1325 223 OFFCURVE",
"1321 218 OFFCURVE",
"1313 214 CURVE SMOOTH",
"1303 209 OFFCURVE",
"1298 202 OFFCURVE",
"1298 193 CURVE SMOOTH",
"1299 186 OFFCURVE",
"1302 183 OFFCURVE",
"1307 183 CURVE SMOOTH",
"1312 183 OFFCURVE",
"1318 186 OFFCURVE",
"1325 192 CURVE SMOOTH",
"1343 206 OFFCURVE",
"1352 222 OFFCURVE",
"1352 239 CURVE SMOOTH",
"1352 261 OFFCURVE",
"1336 278 OFFCURVE",
"1304 289 CURVE SMOOTH",
"1266 301 OFFCURVE",
"1224 307 OFFCURVE",
"1178 307 CURVE SMOOTH",
"1145 307 OFFCURVE",
"1101 303 OFFCURVE",
"1044 296 CURVE SMOOTH",
"937 283 OFFCURVE",
"882 276 OFFCURVE",
"879 275 CURVE",
"934 332 OFFCURVE",
"1002 384 OFFCURVE",
"1084 431 CURVE SMOOTH",
"1189 492 OFFCURVE",
"1287 526 OFFCURVE",
"1377 532 CURVE SMOOTH",
"1437 536 OFFCURVE",
"1477 513 OFFCURVE",
"1477 469 CURVE SMOOTH",
"1477 465 OFFCURVE",
"1477 460 OFFCURVE",
"1476 453 CURVE SMOOTH",
"1475 446 OFFCURVE",
"1474 441 OFFCURVE",
"1474 438 CURVE SMOOTH",
"1474 418 OFFCURVE",
"1481 408 OFFCURVE",
"1494 408 CURVE SMOOTH",
"1512 408 OFFCURVE",
"1520 427 OFFCURVE",
"1520 466 CURVE SMOOTH",
"1520 497 OFFCURVE",
"1511 519 OFFCURVE",
"1493 532 CURVE SMOOTH",
"1476 545 OFFCURVE",
"1449 551 OFFCURVE",
"1410 551 CURVE SMOOTH",
"1394 551 LINE SMOOTH",
"1388 551 OFFCURVE",
"1382 551 OFFCURVE",
"1375 550 CURVE SMOOTH",
"1296 545 OFFCURVE",
"1215 525 OFFCURVE",
"1132 490 CURVE SMOOTH",
"1048 455 OFFCURVE",
"973 412 OFFCURVE",
"904 356 CURVE",
"976 467 OFFCURVE",
"1036 541 OFFCURVE",
"1085 582 CURVE SMOOTH",
"1090 586 OFFCURVE",
"1092 589 OFFCURVE",
"1092 592 CURVE SMOOTH",
"1092 594 OFFCURVE",
"1090 595 OFFCURVE",
"1087 595 CURVE SMOOTH",
"1081 595 OFFCURVE",
"1074 592 OFFCURVE",
"1067 585 CURVE",
"995 525 OFFCURVE",
"936 442 OFFCURVE",
"875 362 CURVE SMOOTH",
"858 339 OFFCURVE",
"840 313 OFFCURVE",
"823 284 CURVE",
"797 256 LINE",
"762 256 LINE",
"755 255 OFFCURVE",
"748 255 OFFCURVE",
"742 255 CURVE SMOOTH",
"726 255 LINE",
"782 312 OFFCURVE",
"830 362 OFFCURVE",
"871 403 CURVE SMOOTH",
"912 444 OFFCURVE",
"945 478 OFFCURVE",
"970 504 CURVE SMOOTH",
"974 508 OFFCURVE",
"976 512 OFFCURVE",
"976 516 CURVE SMOOTH",
"976 519 OFFCURVE",
"975 520 OFFCURVE",
"973 520 CURVE SMOOTH",
"970 520 OFFCURVE",
"966 517 OFFCURVE",
"961 512 CURVE SMOOTH",
"936 485 OFFCURVE",
"894 446 OFFCURVE",
"834 393 CURVE SMOOTH",
"674 253 LINE",
"668 253 OFFCURVE",
"664 253 OFFCURVE",
"662 252 CURVE",
"589 251 OFFCURVE",
"524 250 OFFCURVE",
"467 250 CURVE SMOOTH",
"465 250 OFFCURVE",
"468 253 OFFCURVE",
"477 258 CURVE SMOOTH",
"484 262 OFFCURVE",
"488 265 OFFCURVE",
"488 266 CURVE",
"487 266 LINE SMOOTH",
"465 266 OFFCURVE",
"435 261 OFFCURVE",
"397 250 CURVE",
"380 250 OFFCURVE",
"372 240 OFFCURVE",
"372 220 CURVE SMOOTH",
"372 208 OFFCURVE",
"377 202 OFFCURVE",
"388 202 CURVE",
"503 216 OFFCURVE",
"589 225 OFFCURVE",
"647 229 CURVE",
"568 160 LINE SMOOTH",
"373 -10 OFFCURVE",
"225 -104 OFFCURVE",
"116 -116 CURVE SMOOTH",
"51 -123 OFFCURVE",
"19 -92 OFFCURVE",
"19 -25 CURVE SMOOTH",
"19 40 OFFCURVE",
"45 102 OFFCURVE",
"97 161 CURVE SMOOTH",
"194 271 OFFCURVE",
"276 326 OFFCURVE",
"345 326 CURVE SMOOTH",
"363 326 OFFCURVE",
"378 318 OFFCURVE",
"389 303 CURVE SMOOTH",
"396 293 LINE SMOOTH",
"398 290 OFFCURVE",
"400 288 OFFCURVE",
"401 286 CURVE SMOOTH",
"405 280 LINE",
"412 280 OFFCURVE",
"415 288 OFFCURVE",
"415 304 CURVE SMOOTH",
"415 329 OFFCURVE",
"396 342 OFFCURVE",
"359 342 CURVE SMOOTH",
"347 342 OFFCURVE",
"334 340 OFFCURVE",
"319 337 CURVE SMOOTH",
"229 315 OFFCURVE",
"148 260 OFFCURVE",
"77 173 CURVE SMOOTH",
"10 90 OFFCURVE",
"-24 20 OFFCURVE",
"-24 -36 CURVE SMOOTH",
"-24 -100 OFFCURVE",
"14 -132 OFFCURVE",
"91 -132 CURVE SMOOTH"
);
}
);
userData = {
assembly = "PUSHW[ ]	/* 1 value pushed */\01210 \012CALL[ ]	/* CallFunction */\012PUSHW[ ]	/* 4 values pushed */\012113 1070 91 14 \012CALL[ ]	/* CallFunction */\012PUSHW[ ]	/* 4 values pushed */\01252 1070 80 14 \012CALL[ ]	/* CallFunction */\012PUSHW[ ]	/* 4 values pushed */\0127 1070 14 14 \012CALL[ ]	/* CallFunction */\012NPUSHW[ ]	/* 5 values pushed */\012202 14 218 14 2 \012DELTAP3[ ]	/* DeltaExceptionP3 */\012NPUSHW[ ]	/* 21 values pushed */\012105 14 121 14 137 14 153 14 169 14 185 14 201 14 217 14 233 14 249 14 10 \012DELTAP1[ ]	/* DeltaExceptionP1 */\012NPUSHW[ ]	/* 33 values pushed */\0129 14 25 14 41 14 57 14 73 14 89 14 105 14 121 14 137 14 153 14 169 14 185 14 201 14 217 14 233 14 249 14 16 \012DELTAP2[ ]	/* DeltaExceptionP2 */\012NPUSHW[ ]	/* 25 values pushed */\0129 14 25 14 41 14 57 14 73 14 89 14 105 14 121 14 137 14 153 14 169 14 185 14 12 \012DELTAP3[ ]	/* DeltaExceptionP3 */\012PUSHW[ ]	/* 1 value pushed */\01214 \012SRP0[ ]	/* SetRefPoint0 */\012PUSHW[ ]	/* 1 value pushed */\01211 \012MDRP[10000]	/* MoveDirectRelPt */\012PUSHW[ ]	/* 1 value pushed */\01211 \012MDAP[1]	/* MoveDirectAbsPt */\012PUSHW[ ]	/* 3 values pushed */\01245 91 7 \012SRP1[ ]	/* SetRefPoint1 */\012SRP2[ ]	/* SetRefPoint2 */\012IP[ ]	/* InterpolatePts */\012NPUSHW[ ]	/* 21 values pushed */\012102 52 118 52 134 52 150 52 166 52 182 52 198 52 214 52 230 52 246 52 10 \012DELTAP1[ ]	/* DeltaExceptionP1 */\012NPUSHW[ ]	/* 33 values pushed */\0126 52 22 52 38 52 54 52 70 52 86 52 102 52 118 52 134 52 150 52 166 52 182 52 198 52 214 52 230 52 246 52 16 \012DELTAP2[ ]	/* DeltaExceptionP2 */\012NPUSHW[ ]	/* 25 values pushed */\0126 52 22 52 38 52 54 52 70 52 86 52 102 52 118 52 134 52 150 52 166 52 182 52 12 \012DELTAP3[ ]	/* DeltaExceptionP3 */\012NPUSHW[ ]	/* 5 values pushed */\012197 52 213 52 2 \012DELTAP3[ ]	/* DeltaExceptionP3 */\012PUSHW[ ]	/* 3 values pushed */\01282 91 7 \012SRP1[ ]	/* SetRefPoint1 */\012SRP2[ ]	/* SetRefPoint2 */\012IP[ ]	/* InterpolatePts */\012NPUSHW[ ]	/* 21 values pushed */\012102 113 118 113 134 113 150 113 166 113 182 113 198 113 214 113 230 113 246 113 10 \012DELTAP1[ ]	/* DeltaExceptionP1 */\012NPUSHW[ ]	/* 33 values pushed */\0126 113 22 113 38 113 54 113 70 113 86 113 102 113 118 113 134 113 150 113 166 113 182 113 198 113 214 113 230 113 246 113 16 \012DELTAP2[ ]	/* DeltaExceptionP2 */\012NPUSHW[ ]	/* 25 values pushed */\0126 113 22 113 38 113 54 113 70 113 86 113 102 113 118 113 134 113 150 113 166 113 182 113 12 \012DELTAP3[ ]	/* DeltaExceptionP3 */\012NPUSHW[ ]	/* 5 values pushed */\012197 113 213 113 2 \012DELTAP3[ ]	/* DeltaExceptionP3 */\012PUSHW[ ]	/* 3 values pushed */\012118 91 7 \012SRP1[ ]	/* SetRefPoint1 */\012SRP2[ ]	/* SetRefPoint2 */\012IP[ ]	/* InterpolatePts */\012PUSHW[ ]	/* 3 values pushed */\012130 91 7 \012SRP1[ ]	/* SetRefPoint1 */\012SRP2[ ]	/* SetRefPoint2 */\012IP[ ]	/* InterpolatePts */\012PUSHW[ ]	/* 3 values pushed */\012148 80 52 \012SRP1[ ]	/* SetRefPoint1 */\012SRP2[ ]	/* SetRefPoint2 */\012IP[ ]	/* InterpolatePts */\012PUSHW[ ]	/* 3 values pushed */\012168 91 7 \012SRP1[ ]	/* SetRefPoint1 */\012SRP2[ ]	/* SetRefPoint2 */\012IP[ ]	/* InterpolatePts */\012PUSHW[ ]	/* 1 value pushed */\0127 \012SRP0[ ]	/* SetRefPoint0 */\012PUSHW[ ]	/* 1 value pushed */\012174 \012MDRP[11100]	/* MoveDirectRelPt */\012SVTCA[0]	/* SetFreedomAndProjectionVectorToAxis */\012PUSHW[ ]	/* 1 value pushed */\012161 \012MDAP[1]	/* MoveDirectAbsPt */\012PUSHW[ ]	/* 1 value pushed */\012163 \012MDAP[1]	/* MoveDirectAbsPt */\012PUSHW[ ]	/* 1 value pushed */\01289 \012MDAP[1]	/* MoveDirectAbsPt */\012PUSHW[ ]	/* 3 values pushed */\01245 89 161 \012SRP1[ ]	/* SetRefPoint1 */\012SRP2[ ]	/* SetRefPoint2 */\012IP[ ]	/* InterpolatePts */\012PUSHW[ ]	/* 3 values pushed */\01282 89 161 \012SRP1[ ]	/* SetRefPoint1 */\012SRP2[ ]	/* SetRefPoint2 */\012IP[ ]	/* InterpolatePts */\012PUSHW[ ]	/* 3 values pushed */\012118 89 161 \012SRP1[ ]	/* SetRefPoint1 */\012SRP2[ ]	/* SetRefPoint2 */\012IP[ ]	/* InterpolatePts */\012PUSHW[ ]	/* 3 values pushed */\012130 89 161 \012SRP1[ ]	/* SetRefPoint1 */\012SRP2[ ]	/* SetRefPoint2 */\012IP[ ]	/* InterpolatePts */\012PUSHW[ ]	/* 3 values pushed */\012148 89 161 \012SRP1[ ]	/* SetRefPoint1 */\012SRP2[ ]	/* SetRefPoint2 */\012IP[ ]	/* InterpolatePts */\012PUSHW[ ]	/* 3 values pushed */\012168 89 161 \012SRP1[ ]	/* SetRefPoint1 */\012SRP2[ ]	/* SetRefPoint2 */\012IP[ ]	/* InterpolatePts */\012IUP[0]	/* InterpolateUntPts */\012IUP[1]	/* InterpolateUntPts */";
};
width = 1481;
}
);
leftKerningGroup = A;
note = AE;
rightKerningGroup = E;
unicode = 00C6;
},
{
glyphname = B;
lastChange = "2022-03-22 13:32:29 +0000";
layers = (
{
layerId = "16A236A6-57F5-4152-84D1-48D854BBAFA9";
paths = (
{
closed = 1;
nodes = (
"246 -73 OFFCURVE",
"360 -48 OFFCURVE",
"462 -1 CURVE SMOOTH",
"605 64 OFFCURVE",
"676 138 OFFCURVE",
"676 221 CURVE SMOOTH",
"676 267 OFFCURVE",
"650 299 OFFCURVE",
"596 317 CURVE",
"671 366 OFFCURVE",
"711 415 OFFCURVE",
"716 465 CURVE SMOOTH",
"720 505 OFFCURVE",
"703 537 OFFCURVE",
"664 561 CURVE SMOOTH",
"624 586 OFFCURVE",
"565 598 OFFCURVE",
"485 598 CURVE SMOOTH",
"399 598 OFFCURVE",
"323 585 OFFCURVE",
"258 559 CURVE SMOOTH",
"181 529 OFFCURVE",
"133 485 OFFCURVE",
"112 427 CURVE",
"109 421 OFFCURVE",
"108 413 OFFCURVE",
"108 404 CURVE SMOOTH",
"108 365 OFFCURVE",
"146 322 OFFCURVE",
"187 314 CURVE SMOOTH",
"197 312 OFFCURVE",
"202 314 OFFCURVE",
"202 319 CURVE SMOOTH",
"202 325 OFFCURVE",
"196 330 OFFCURVE",
"184 333 CURVE SMOOTH",
"172 336 OFFCURVE",
"162 344 OFFCURVE",
"153 356 CURVE SMOOTH",
"144 369 OFFCURVE",
"140 383 OFFCURVE",
"140 398 CURVE SMOOTH",
"140 406 OFFCURVE",
"141 413 OFFCURVE",
"144 419 CURVE SMOOTH",
"163 469 OFFCURVE",
"214 509 OFFCURVE",
"299 540 CURVE SMOOTH",
"364 564 OFFCURVE",
"423 576 OFFCURVE",
"477 576 CURVE SMOOTH",
"613 576 OFFCURVE",
"692 539 OFFCURVE",
"692 470 CURVE SMOOTH",
"692 421 OFFCURVE",
"652 372 OFFCURVE",
"572 322 CURVE",
"562 324 OFFCURVE",
"552 325 OFFCURVE",
"541 325 CURVE SMOOTH",
"493 325 OFFCURVE",
"451 318 OFFCURVE",
"415 304 CURVE SMOOTH",
"378 289 OFFCURVE",
"360 273 OFFCURVE",
"360 254 CURVE SMOOTH",
"360 241 OFFCURVE",
"372 235 OFFCURVE",
"396 235 CURVE SMOOTH",
"417 235 OFFCURVE",
"440 240 OFFCURVE",
"467 249 CURVE SMOOTH",
"495 259 OFFCURVE",
"529 276 OFFCURVE",
"570 300 CURVE",
"606 288 OFFCURVE",
"630 255 OFFCURVE",
"630 216 CURVE SMOOTH",
"630 147 OFFCURVE",
"561 82 OFFCURVE",
"427 21 CURVE SMOOTH",
"399 8 OFFCURVE",
"356 -6 OFFCURVE",
"297 -21 CURVE SMOOTH",
"225 -40 OFFCURVE",
"164 -49 OFFCURVE",
"113 -52 CURVE SMOOTH",
"62 -53 OFFCURVE",
"21 -35 OFFCURVE",
"21 -4 CURVE SMOOTH",
"21 29 OFFCURVE",
"62 65 OFFCURVE",
"145 104 CURVE",
"126 69 OFFCURVE",
"113 43 OFFCURVE",
"106 27 CURVE SMOOTH",
"103 18 OFFCURVE",
"101 12 OFFCURVE",
"101 7 CURVE SMOOTH",
"101 -4 OFFCURVE",
"107 -9 OFFCURVE",
"120 -9 CURVE SMOOTH",
"143 -9 OFFCURVE",
"178 6 OFFCURVE",
"225 37 CURVE SMOOTH",
"226 38 OFFCURVE",
"227 39 OFFCURVE",
"227 40 CURVE SMOOTH",
"227 43 OFFCURVE",
"224 43 OFFCURVE",
"219 42 CURVE SMOOTH",
"213 42 OFFCURVE",
"207 40 OFFCURVE",
"202 37 CURVE",
"189 26 OFFCURVE",
"174 20 OFFCURVE",
"158 20 CURVE SMOOTH",
"153 20 OFFCURVE",
"150 24 OFFCURVE",
"150 32 CURVE SMOOTH",
"150 46 OFFCURVE",
"161 68 OFFCURVE",
"182 97 CURVE SMOOTH",
"191 112 OFFCURVE",
"211 127 OFFCURVE",
"242 143 CURVE SMOOTH",
"275 161 OFFCURVE",
"310 174 OFFCURVE",
"348 182 CURVE SMOOTH",
"367 186 OFFCURVE",
"376 190 OFFCURVE",
"376 195 CURVE SMOOTH",
"376 198 OFFCURVE",
"372 199 OFFCURVE",
"365 199 CURVE SMOOTH",
"360 199 OFFCURVE",
"357 199 OFFCURVE",
"355 198 CURVE",
"310 187 OFFCURVE",
"266 176 OFFCURVE",
"225 161 CURVE",
"276 223 LINE SMOOTH",
"291 241 OFFCURVE",
"304 256 OFFCURVE",
"315 267 CURVE SMOOTH",
"400 356 OFFCURVE",
"460 416 OFFCURVE",
"495 445 CURVE SMOOTH",
"506 454 OFFCURVE",
"512 462 OFFCURVE",
"512 468 CURVE SMOOTH",
"512 469 OFFCURVE",
"511 470 OFFCURVE",
"511 471 CURVE",
"508 476 OFFCURVE",
"500 479 OFFCURVE",
"489 479 CURVE SMOOTH",
"470 479 OFFCURVE",
"456 475 OFFCURVE",
"448 467 CURVE",
"394 431 LINE SMOOTH",
"377 420 OFFCURVE",
"363 410 OFFCURVE",
"353 403 CURVE SMOOTH",
"342 396 OFFCURVE",
"335 390 OFFCURVE",
"332 387 CURVE",
"351 392 OFFCURVE",
"370 400 OFFCURVE",
"391 409 CURVE",
"354 369 OFFCURVE",
"313 321 OFFCURVE",
"268 264 CURVE SMOOTH",
"241 230 OFFCURVE",
"219 203 OFFCURVE",
"203 182 CURVE SMOOTH",
"186 161 OFFCURVE",
"175 147 OFFCURVE",
"170 140 CURVE",
"56 91 OFFCURVE",
"-1 42 OFFCURVE",
"-1 -5 CURVE SMOOTH",
"-1 -27 OFFCURVE",
"11 -45 OFFCURVE",
"36 -59 CURVE SMOOTH",
"61 -72 OFFCURVE",
"88 -79 OFFCURVE",
"119 -78 CURVE SMOOTH"
);
},
{
closed = 1;
nodes = (
"415 271 OFFCURVE",
"412 271 OFFCURVE",
"409 272 CURVE",
"408 273 OFFCURVE",
"407 275 OFFCURVE",
"407 277 CURVE SMOOTH",
"407 285 OFFCURVE",
"421 292 OFFCURVE",
"448 298 CURVE SMOOTH",
"473 304 OFFCURVE",
"499 307 OFFCURVE",
"528 307 CURVE SMOOTH",
"535 307 LINE",
"538 306 OFFCURVE",
"540 306 OFFCURVE",
"542 306 CURVE",
"518 294 OFFCURVE",
"494 285 OFFCURVE",
"470 279 CURVE SMOOTH",
"447 273 OFFCURVE",
"431 271 OFFCURVE",
"420 271 CURVE SMOOTH"
);
}
);
userData = {
assembly = "PUSHW[ ]	/* 1 value pushed */\01210 \012CALL[ ]	/* CallFunction */\012PUSHW[ ]	/* 1 value pushed */\012147 \012MDAP[1]	/* MoveDirectAbsPt */\012PUSHW[ ]	/* 1 value pushed */\012124 \012MDAP[1]	/* MoveDirectAbsPt */\012PUSHW[ ]	/* 1 value pushed */\012147 \012SRP0[ ]	/* SetRefPoint0 */\012PUSHW[ ]	/* 1 value pushed */\01212 \012MDRP[10000]	/* MoveDirectRelPt */\012PUSHW[ ]	/* 1 value pushed */\01212 \012MDAP[1]	/* MoveDirectAbsPt */\012NPUSHW[ ]	/* 5 values pushed */\012202 124 218 124 2 \012DELTAP3[ ]	/* DeltaExceptionP3 */\012NPUSHW[ ]	/* 21 values pushed */\012105 124 121 124 137 124 153 124 169 124 185 124 201 124 217 124 233 124 249 124 10 \012DELTAP1[ ]	/* DeltaExceptionP1 */\012NPUSHW[ ]	/* 33 values pushed */\0129 124 25 124 41 124 57 124 73 124 89 124 105 124 121 124 137 124 153 124 169 124 185 124 201 124 217 124 233 124 249 124 16 \012DELTAP2[ ]	/* DeltaExceptionP2 */\012NPUSHW[ ]	/* 25 values pushed */\0129 124 25 124 41 124 57 124 73 124 89 124 105 124 121 124 137 124 153 124 169 124 185 124 12 \012DELTAP3[ ]	/* DeltaExceptionP3 */\012PUSHW[ ]	/* 1 value pushed */\012124 \012SRP0[ ]	/* SetRefPoint0 */\012PUSHW[ ]	/* 1 value pushed */\01268 \012MDRP[10000]	/* MoveDirectRelPt */\012PUSHW[ ]	/* 1 value pushed */\01268 \012MDAP[1]	/* MoveDirectAbsPt */\012PUSHW[ ]	/* 1 value pushed */\012124 \012SRP0[ ]	/* SetRefPoint0 */\012PUSHW[ ]	/* 1 value pushed */\01270 \012MDRP[10000]	/* MoveDirectRelPt */\012PUSHW[ ]	/* 1 value pushed */\01270 \012MDAP[1]	/* MoveDirectAbsPt */\012PUSHW[ ]	/* 1 value pushed */\012124 \012SRP0[ ]	/* SetRefPoint0 */\012PUSHW[ ]	/* 2 values pushed */\012111 1068 \012MIRP[10100]	/* MoveIndirectRelPt */\012PUSHW[ ]	/* 1 value pushed */\01273 \012MDRP[10000]	/* MoveDirectRelPt */\012PUSHW[ ]	/* 1 value pushed */\01273 \012MDAP[1]	/* MoveDirectAbsPt */\012PUSHW[ ]	/* 1 value pushed */\01212 \012SRP0[ ]	/* SetRefPoint0 */\012PUSHW[ ]	/* 2 values pushed */\01275 1066 \012MIRP[10100]	/* MoveIndirectRelPt */\012NPUSHW[ ]	/* 21 values pushed */\012102 75 118 75 134 75 150 75 166 75 182 75 198 75 214 75 230 75 246 75 10 \012DELTAP1[ ]	/* DeltaExceptionP1 */\012NPUSHW[ ]	/* 33 values pushed */\0126 75 22 75 38 75 54 75 70 75 86 75 102 75 118 75 134 75 150 75 166 75 182 75 198 75 214 75 230 75 246 75 16 \012DELTAP2[ ]	/* DeltaExceptionP2 */\012NPUSHW[ ]	/* 33 values pushed */\0126 75 22 75 38 75 54 75 70 75 86 75 102 75 118 75 134 75 150 75 166 75 182 75 198 75 214 75 230 75 246 75 16 \012DELTAP3[ ]	/* DeltaExceptionP3 */\012PUSHW[ ]	/* 1 value pushed */\012124 \012SRP0[ ]	/* SetRefPoint0 */\012PUSHW[ ]	/* 1 value pushed */\01278 \012MDRP[10000]	/* MoveDirectRelPt */\012PUSHW[ ]	/* 1 value pushed */\01278 \012MDAP[1]	/* MoveDirectAbsPt */\012PUSHW[ ]	/* 1 value pushed */\012111 \012SRP0[ ]	/* SetRefPoint0 */\012PUSHW[ ]	/* 1 value pushed */\012109 \012MDRP[10000]	/* MoveDirectRelPt */\012PUSHW[ ]	/* 1 value pushed */\012109 \012MDAP[1]	/* MoveDirectAbsPt */\012PUSHW[ ]	/* 1 value pushed */\012124 \012SRP0[ ]	/* SetRefPoint0 */\012PUSHW[ ]	/* 1 value pushed */\012126 \012MDRP[10000]	/* MoveDirectRelPt */\012PUSHW[ ]	/* 1 value pushed */\012126 \012MDAP[1]	/* MoveDirectAbsPt */\012SVTCA[0]	/* SetFreedomAndProjectionVectorToAxis */\012PUSHW[ ]	/* 1 value pushed */\0121060 \012RCVT[ ]	/* ReadCVT */\012IF[ ]	/* If */\012PUSHW[ ]	/* 1 value pushed */\01212 \012MDAP[1]	/* MoveDirectAbsPt */\012ELSE[ ]	/* Else */\012PUSHW[ ]	/* 2 values pushed */\01212 1071 \012MIAP[0]	/* MoveIndirectAbsPt */\012EIF[ ]	/* EndIf */\012PUSHW[ ]	/* 1 value pushed */\0121060 \012RCVT[ ]	/* ReadCVT */\012IF[ ]	/* If */\012PUSHW[ ]	/* 1 value pushed */\01266 \012MDAP[1]	/* MoveDirectAbsPt */\012ELSE[ ]	/* Else */\012PUSHW[ ]	/* 2 values pushed */\01266 1071 \012MIAP[0]	/* MoveIndirectAbsPt */\012EIF[ ]	/* EndIf */\012PUSHW[ ]	/* 1 value pushed */\0121060 \012RCVT[ ]	/* ReadCVT */\012IF[ ]	/* If */\012PUSHW[ ]	/* 1 value pushed */\01275 \012MDAP[1]	/* MoveDirectAbsPt */\012ELSE[ ]	/* Else */\012PUSHW[ ]	/* 2 values pushed */\01275 1071 \012MIAP[0]	/* MoveIndirectAbsPt */\012EIF[ ]	/* EndIf */\012PUSHW[ ]	/* 4 values pushed */\01278 1063 8 14 \012CALL[ ]	/* CallFunction */\012PUSHW[ ]	/* 4 values pushed */\012130 1061 105 14 \012CALL[ ]	/* CallFunction */\012IUP[0]	/* InterpolateUntPts */\012IUP[1]	/* InterpolateUntPts */";
};
width = 690;
}
);
note = B;
unicode = 0042;
},
{
color = 3;
glyphname = C;
lastChange = "2022-03-22 13:36:12 +0000";
layers = (
{
anchors = (
{
name = cedilla;
position = "{178, -91}";
},
{
name = top;
position = "{790, 620}";
}
);
layerId = "16A236A6-57F5-4152-84D1-48D854BBAFA9";
paths = (
{
closed = 1;
nodes = (
"266 -93 OFFCURVE",
"322 -86 OFFCURVE",
"375 -73 CURVE SMOOTH",
"407 -65 OFFCURVE",
"454 -49 OFFCURVE",
"516 -25 CURVE SMOOTH",
"564 -6 OFFCURVE",
"621 20 OFFCURVE",
"686 55 CURVE SMOOTH",
"719 72 OFFCURVE",
"763 98 OFFCURVE",
"822 131 CURVE SMOOTH",
"832 136 OFFCURVE",
"837 142 OFFCURVE",
"837 149 CURVE SMOOTH",
"837 153 OFFCURVE",
"834 155 OFFCURVE",
"829 155 CURVE SMOOTH",
"826 155 OFFCURVE",
"822 154 OFFCURVE",
"817 151 CURVE SMOOTH",
"769 124 OFFCURVE",
"721 99 OFFCURVE",
"673 74 CURVE SMOOTH",
"613 43 OFFCURVE",
"561 19 OFFCURVE",
"516 4 CURVE SMOOTH",
"480 -7 OFFCURVE",
"450 -17 OFFCURVE",
"426 -25 CURVE SMOOTH",
"402 -32 OFFCURVE",
"383 -38 OFFCURVE",
"370 -41 CURVE SMOOTH",
"313 -55 OFFCURVE",
"256 -62 OFFCURVE",
"200 -62 CURVE SMOOTH",
"87 -62 OFFCURVE",
"30 -25 OFFCURVE",
"30 48 CURVE SMOOTH",
"30 101 OFFCURVE",
"63 169 OFFCURVE",
"128 252 CURVE SMOOTH",
"170 305 OFFCURVE",
"240 361 OFFCURVE",
"337 419 CURVE SMOOTH",
"454 488 OFFCURVE",
"560 526 OFFCURVE",
"656 532 CURVE SMOOTH",
"692 534 OFFCURVE",
"719 529 OFFCURVE",
"737 517 CURVE",
"663 442 OFFCURVE",
"621 377 OFFCURVE",
"611 322 CURVE SMOOTH",
"610 318 OFFCURVE",
"610 315 OFFCURVE",
"610 312 CURVE SMOOTH",
"610 297 OFFCURVE",
"618 290 OFFCURVE",
"634 290 CURVE SMOOTH",
"663 290 OFFCURVE",
"696 307 OFFCURVE",
"734 341 CURVE SMOOTH",
"779 381 OFFCURVE",
"800 422 OFFCURVE",
"800 466 CURVE SMOOTH",
"800 494 OFFCURVE",
"793 514 OFFCURVE",
"777 528 CURVE",
"811 558 LINE",
"818 563 OFFCURVE",
"821 568 OFFCURVE",
"821 574 CURVE SMOOTH",
"821 579 OFFCURVE",
"819 581 OFFCURVE",
"814 581 CURVE SMOOTH",
"806 581 OFFCURVE",
"788 567 OFFCURVE",
"760 539 CURVE",
"744 547 OFFCURVE",
"720 551 OFFCURVE",
"687 551 CURVE SMOOTH",
"677 551 OFFCURVE",
"666 551 OFFCURVE",
"654 550 CURVE SMOOTH",
"545 543 OFFCURVE",
"436 510 OFFCURVE",
"326 451 CURVE SMOOTH",
"223 395 OFFCURVE",
"137 327 OFFCURVE",
"68 246 CURVE SMOOTH",
"19 189 OFFCURVE",
"-5 133 OFFCURVE",
"-5 78 CURVE SMOOTH",
"-5 28 OFFCURVE",
"15 -13 OFFCURVE",
"55 -45 CURVE SMOOTH",
"95 -77 OFFCURVE",
"146 -93 OFFCURVE",
"208 -93 CURVE SMOOTH"
);
},
{
closed = 1;
nodes = (
"662 324 OFFCURVE",
"658 329 OFFCURVE",
"658 339 CURVE",
"657 341 OFFCURVE",
"658 344 OFFCURVE",
"658 346 CURVE",
"673 403 OFFCURVE",
"704 456 OFFCURVE",
"752 504 CURVE",
"762 491 OFFCURVE",
"767 475 OFFCURVE",
"767 456 CURVE SMOOTH",
"767 428 OFFCURVE",
"754 398 OFFCURVE",
"729 367 CURVE SMOOTH",
"706 338 OFFCURVE",
"687 324 OFFCURVE",
"670 324 CURVE SMOOTH"
);
}
);
userData = {
assembly = "PUSHW[ ]	/* 1 value pushed */\01210 \012CALL[ ]	/* CallFunction */\012PUSHW[ ]	/* 1 value pushed */\01275 \012MDAP[1]	/* MoveDirectAbsPt */\012PUSHW[ ]	/* 1 value pushed */\01265 \012MDAP[1]	/* MoveDirectAbsPt */\012PUSHW[ ]	/* 1 value pushed */\01275 \012SRP0[ ]	/* SetRefPoint0 */\012PUSHW[ ]	/* 1 value pushed */\01213 \012MDRP[10000]	/* MoveDirectRelPt */\012PUSHW[ ]	/* 1 value pushed */\01213 \012MDAP[1]	/* MoveDirectAbsPt */\012NPUSHW[ ]	/* 5 values pushed */\012202 65 218 65 2 \012DELTAP3[ ]	/* DeltaExceptionP3 */\012NPUSHW[ ]	/* 21 values pushed */\012105 65 121 65 137 65 153 65 169 65 185 65 201 65 217 65 233 65 249 65 10 \012DELTAP1[ ]	/* DeltaExceptionP1 */\012NPUSHW[ ]	/* 33 values pushed */\0129 65 25 65 41 65 57 65 73 65 89 65 105 65 121 65 137 65 153 65 169 65 185 65 201 65 217 65 233 65 249 65 16 \012DELTAP2[ ]	/* DeltaExceptionP2 */\012NPUSHW[ ]	/* 25 values pushed */\0129 65 25 65 41 65 57 65 73 65 89 65 105 65 121 65 137 65 153 65 169 65 185 65 12 \012DELTAP3[ ]	/* DeltaExceptionP3 */\012PUSHW[ ]	/* 1 value pushed */\01265 \012SRP0[ ]	/* SetRefPoint0 */\012PUSHW[ ]	/* 1 value pushed */\01221 \012MDRP[10000]	/* MoveDirectRelPt */\012PUSHW[ ]	/* 1 value pushed */\01221 \012MDAP[1]	/* MoveDirectAbsPt */\012PUSHW[ ]	/* 1 value pushed */\01265 \012SRP0[ ]	/* SetRefPoint0 */\012PUSHW[ ]	/* 2 values pushed */\01230 1068 \012MIRP[10100]	/* MoveIndirectRelPt */\012PUSHW[ ]	/* 1 value pushed */\01213 \012SRP0[ ]	/* SetRefPoint0 */\012PUSHW[ ]	/* 2 values pushed */\01246 1069 \012MIRP[10100]	/* MoveIndirectRelPt */\012NPUSHW[ ]	/* 21 values pushed */\012102 46 118 46 134 46 150 46 166 46 182 46 198 46 214 46 230 46 246 46 10 \012DELTAP1[ ]	/* DeltaExceptionP1 */\012NPUSHW[ ]	/* 33 values pushed */\0126 46 22 46 38 46 54 46 70 46 86 46 102 46 118 46 134 46 150 46 166 46 182 46 198 46 214 46 230 46 246 46 16 \012DELTAP2[ ]	/* DeltaExceptionP2 */\012NPUSHW[ ]	/* 25 values pushed */\0126 46 22 46 38 46 54 46 70 46 86 46 102 46 118 46 134 46 150 46 166 46 182 46 12 \012DELTAP3[ ]	/* DeltaExceptionP3 */\012NPUSHW[ ]	/* 5 values pushed */\012197 46 213 46 2 \012DELTAP3[ ]	/* DeltaExceptionP3 */\012PUSHW[ ]	/* 1 value pushed */\01230 \012SRP0[ ]	/* SetRefPoint0 */\012PUSHW[ ]	/* 1 value pushed */\01276 \012MDRP[11100]	/* MoveDirectRelPt */\012SVTCA[0]	/* SetFreedomAndProjectionVectorToAxis */\012PUSHW[ ]	/* 1 value pushed */\01223 \012MDAP[1]	/* MoveDirectAbsPt */\012PUSHW[ ]	/* 1 value pushed */\01225 \012MDAP[1]	/* MoveDirectAbsPt */\012PUSHW[ ]	/* 4 values pushed */\01248 1064 9 14 \012CALL[ ]	/* CallFunction */\012PUSHW[ ]	/* 4 values pushed */\01271 1064 34 14 \012CALL[ ]	/* CallFunction */\012IUP[0]	/* InterpolateUntPts */\012IUP[1]	/* InterpolateUntPts */";
};
width = 780;
}
);
leftKerningGroup = C;
note = C;
rightKerningGroup = C;
unicode = 0043;
},
{
color = 3;
glyphname = D;
lastChange = "2022-03-22 08:50:22 +0000";
layers = (
{
anchors = (
{
name = bottom;
position = "{88, -79}";
},
{
name = center;
position = "{329, 280}";
},
{
name = top;
position = "{649, 620}";
}
);
layerId = "16A236A6-57F5-4152-84D1-48D854BBAFA9";
paths = (
{
closed = 1;
nodes = (
"245 -73 OFFCURVE",
"359 -47 OFFCURVE",
"462 -1 CURVE SMOOTH",
"569 47 OFFCURVE",
"659 110 OFFCURVE",
"732 189 CURVE SMOOTH",
"805 268 OFFCURVE",
"841 342 OFFCURVE",
"841 411 CURVE SMOOTH",
"841 469 OFFCURVE",
"812 515 OFFCURVE",
"755 548 CURVE SMOOTH",
"696 582 OFFCURVE",
"611 598 OFFCURVE",
"498 598 CURVE SMOOTH",
"467 598 LINE SMOOTH",
"388 598 OFFCURVE",
"318 583 OFFCURVE",
"258 559 CURVE SMOOTH",
"181 529 OFFCURVE",
"133 485 OFFCURVE",
"112 427 CURVE",
"109 421 OFFCURVE",
"108 413 OFFCURVE",
"108 404 CURVE SMOOTH",
"108 365 OFFCURVE",
"146 322 OFFCURVE",
"187 314 CURVE SMOOTH",
"197 312 OFFCURVE",
"202 314 OFFCURVE",
"202 319 CURVE SMOOTH",
"202 325 OFFCURVE",
"196 330 OFFCURVE",
"184 333 CURVE SMOOTH",
"172 336 OFFCURVE",
"162 344 OFFCURVE",
"153 356 CURVE SMOOTH",
"144 369 OFFCURVE",
"140 383 OFFCURVE",
"140 398 CURVE SMOOTH",
"140 406 OFFCURVE",
"141 413 OFFCURVE",
"144 419 CURVE SMOOTH",
"163 469 OFFCURVE",
"214 509 OFFCURVE",
"299 540 CURVE SMOOTH",
"362 563 OFFCURVE",
"421 575 OFFCURVE",
"477 576 CURVE SMOOTH",
"696 581 OFFCURVE",
"805 530 OFFCURVE",
"805 425 CURVE SMOOTH",
"805 360 OFFCURVE",
"766 287 OFFCURVE",
"687 206 CURVE SMOOTH",
"612 128 OFFCURVE",
"525 66 OFFCURVE",
"427 21 CURVE SMOOTH",
"398 8 OFFCURVE",
"354 -6 OFFCURVE",
"297 -21 CURVE SMOOTH",
"225 -40 OFFCURVE",
"164 -49 OFFCURVE",
"113 -52 CURVE SMOOTH",
"62 -53 OFFCURVE",
"21 -35 OFFCURVE",
"21 -4 CURVE SMOOTH",
"21 29 OFFCURVE",
"62 65 OFFCURVE",
"145 104 CURVE",
"126 69 OFFCURVE",
"113 43 OFFCURVE",
"106 27 CURVE SMOOTH",
"103 18 OFFCURVE",
"101 12 OFFCURVE",
"101 7 CURVE SMOOTH",
"101 -4 OFFCURVE",
"107 -9 OFFCURVE",
"120 -9 CURVE SMOOTH",
"143 -9 OFFCURVE",
"178 6 OFFCURVE",
"225 37 CURVE SMOOTH",
"226 38 OFFCURVE",
"227 39 OFFCURVE",
"227 40 CURVE SMOOTH",
"227 43 OFFCURVE",
"224 43 OFFCURVE",
"219 42 CURVE SMOOTH",
"213 42 OFFCURVE",
"207 40 OFFCURVE",
"202 37 CURVE",
"189 26 OFFCURVE",
"174 20 OFFCURVE",
"158 20 CURVE SMOOTH",
"153 20 OFFCURVE",
"150 24 OFFCURVE",
"150 32 CURVE SMOOTH",
"150 46 OFFCURVE",
"161 68 OFFCURVE",
"182 97 CURVE SMOOTH",
"191 112 OFFCURVE",
"211 127 OFFCURVE",
"242 143 CURVE SMOOTH",
"275 161 OFFCURVE",
"310 174 OFFCURVE",
"348 182 CURVE SMOOTH",
"367 186 OFFCURVE",
"376 190 OFFCURVE",
"376 195 CURVE SMOOTH",
"376 198 OFFCURVE",
"372 199 OFFCURVE",
"365 199 CURVE SMOOTH",
"360 199 OFFCURVE",
"357 199 OFFCURVE",
"355 198 CURVE",
"310 187 OFFCURVE",
"266 176 OFFCURVE",
"225 161 CURVE",
"276 223 LINE SMOOTH",
"291 241 OFFCURVE",
"304 256 OFFCURVE",
"315 267 CURVE SMOOTH",
"400 356 OFFCURVE",
"460 416 OFFCURVE",
"495 445 CURVE SMOOTH",
"506 454 OFFCURVE",
"512 462 OFFCURVE",
"512 468 CURVE SMOOTH",
"512 469 OFFCURVE",
"511 470 OFFCURVE",
"511 471 CURVE",
"508 476 OFFCURVE",
"500 479 OFFCURVE",
"489 479 CURVE SMOOTH",
"470 479 OFFCURVE",
"456 475 OFFCURVE",
"448 467 CURVE",
"394 431 LINE SMOOTH",
"377 420 OFFCURVE",
"363 410 OFFCURVE",
"353 403 CURVE SMOOTH",
"342 396 OFFCURVE",
"335 390 OFFCURVE",
"332 387 CURVE",
"351 392 OFFCURVE",
"370 400 OFFCURVE",
"391 409 CURVE",
"354 369 OFFCURVE",
"313 321 OFFCURVE",
"268 264 CURVE SMOOTH",
"241 230 OFFCURVE",
"219 203 OFFCURVE",
"203 182 CURVE SMOOTH",
"186 161 OFFCURVE",
"175 147 OFFCURVE",
"170 140 CURVE",
"56 91 OFFCURVE",
"-1 42 OFFCURVE",
"-1 -5 CURVE SMOOTH",
"-1 -27 OFFCURVE",
"11 -45 OFFCURVE",
"36 -59 CURVE SMOOTH",
"61 -72 OFFCURVE",
"88 -79 OFFCURVE",
"119 -78 CURVE SMOOTH"
);
}
);
userData = {
assembly = "PUSHW[ ]	/* 1 value pushed */\01210 \012CALL[ ]	/* CallFunction */\012PUSHW[ ]	/* 4 values pushed */\01242 1066 95 14 \012CALL[ ]	/* CallFunction */\012PUSHW[ ]	/* 4 values pushed */\01262 1068 75 14 \012CALL[ ]	/* CallFunction */\012PUSHW[ ]	/* 4 values pushed */\01285 1069 54 14 \012CALL[ ]	/* CallFunction */\012PUSHW[ ]	/* 3 values pushed */\0126 95 85 \012SRP1[ ]	/* SetRefPoint1 */\012SRP2[ ]	/* SetRefPoint2 */\012IP[ ]	/* InterpolatePts */\012PUSHW[ ]	/* 3 values pushed */\01231 95 85 \012SRP1[ ]	/* SetRefPoint1 */\012SRP2[ ]	/* SetRefPoint2 */\012IP[ ]	/* InterpolatePts */\012PUSHW[ ]	/* 1 value pushed */\01275 \012SRP0[ ]	/* SetRefPoint0 */\012PUSHW[ ]	/* 1 value pushed */\01235 \012MDRP[10000]	/* MoveDirectRelPt */\012PUSHW[ ]	/* 1 value pushed */\01235 \012MDAP[1]	/* MoveDirectAbsPt */\012PUSHW[ ]	/* 3 values pushed */\01240 95 85 \012SRP1[ ]	/* SetRefPoint1 */\012SRP2[ ]	/* SetRefPoint2 */\012IP[ ]	/* InterpolatePts */\012NPUSHW[ ]	/* 21 values pushed */\012102 42 118 42 134 42 150 42 166 42 182 42 198 42 214 42 230 42 246 42 10 \012DELTAP1[ ]	/* DeltaExceptionP1 */\012NPUSHW[ ]	/* 33 values pushed */\0126 42 22 42 38 42 54 42 70 42 86 42 102 42 118 42 134 42 150 42 166 42 182 42 198 42 214 42 230 42 246 42 16 \012DELTAP2[ ]	/* DeltaExceptionP2 */\012NPUSHW[ ]	/* 33 values pushed */\0126 42 22 42 38 42 54 42 70 42 86 42 102 42 118 42 134 42 150 42 166 42 182 42 198 42 214 42 230 42 246 42 16 \012DELTAP3[ ]	/* DeltaExceptionP3 */\012NPUSHW[ ]	/* 5 values pushed */\012202 54 218 54 2 \012DELTAP3[ ]	/* DeltaExceptionP3 */\012NPUSHW[ ]	/* 21 values pushed */\012105 54 121 54 137 54 153 54 169 54 185 54 201 54 217 54 233 54 249 54 10 \012DELTAP1[ ]	/* DeltaExceptionP1 */\012NPUSHW[ ]	/* 33 values pushed */\0129 54 25 54 41 54 57 54 73 54 89 54 105 54 121 54 137 54 153 54 169 54 185 54 201 54 217 54 233 54 249 54 16 \012DELTAP2[ ]	/* DeltaExceptionP2 */\012NPUSHW[ ]	/* 25 values pushed */\0129 54 25 54 41 54 57 54 73 54 89 54 105 54 121 54 137 54 153 54 169 54 185 54 12 \012DELTAP3[ ]	/* DeltaExceptionP3 */\012NPUSHW[ ]	/* 21 values pushed */\012102 62 118 62 134 62 150 62 166 62 182 62 198 62 214 62 230 62 246 62 10 \012DELTAP1[ ]	/* DeltaExceptionP1 */\012NPUSHW[ ]	/* 33 values pushed */\0126 62 22 62 38 62 54 62 70 62 86 62 102 62 118 62 134 62 150 62 166 62 182 62 198 62 214 62 230 62 246 62 16 \012DELTAP2[ ]	/* DeltaExceptionP2 */\012NPUSHW[ ]	/* 25 values pushed */\0126 62 22 62 38 62 54 62 70 62 86 62 102 62 118 62 134 62 150 62 166 62 182 62 12 \012DELTAP3[ ]	/* DeltaExceptionP3 */\012NPUSHW[ ]	/* 5 values pushed */\012197 62 213 62 2 \012DELTAP3[ ]	/* DeltaExceptionP3 */\012PUSHW[ ]	/* 3 values pushed */\012103 95 85 \012SRP1[ ]	/* SetRefPoint1 */\012SRP2[ ]	/* SetRefPoint2 */\012IP[ ]	/* InterpolatePts */\012PUSHW[ ]	/* 3 values pushed */\012106 95 85 \012SRP1[ ]	/* SetRefPoint1 */\012SRP2[ ]	/* SetRefPoint2 */\012IP[ ]	/* InterpolatePts */\012PUSHW[ ]	/* 1 value pushed */\01285 \012SRP0[ ]	/* SetRefPoint0 */\012PUSHW[ ]	/* 1 value pushed */\012117 \012MDRP[11100]	/* MoveDirectRelPt */\012SVTCA[0]	/* SetFreedomAndProjectionVectorToAxis */\012PUSHW[ ]	/* 1 value pushed */\0121060 \012RCVT[ ]	/* ReadCVT */\012IF[ ]	/* If */\012PUSHW[ ]	/* 1 value pushed */\01233 \012MDAP[1]	/* MoveDirectAbsPt */\012ELSE[ ]	/* Else */\012PUSHW[ ]	/* 2 values pushed */\01233 1071 \012MIAP[0]	/* MoveIndirectAbsPt */\012EIF[ ]	/* EndIf */\012PUSHW[ ]	/* 1 value pushed */\0121060 \012RCVT[ ]	/* ReadCVT */\012IF[ ]	/* If */\012PUSHW[ ]	/* 1 value pushed */\01242 \012MDAP[1]	/* MoveDirectAbsPt */\012ELSE[ ]	/* Else */\012PUSHW[ ]	/* 2 values pushed */\01242 1071 \012MIAP[0]	/* MoveIndirectAbsPt */\012EIF[ ]	/* EndIf */\012PUSHW[ ]	/* 1 value pushed */\0121060 \012RCVT[ ]	/* ReadCVT */\012IF[ ]	/* If */\012PUSHW[ ]	/* 1 value pushed */\01295 \012MDAP[1]	/* MoveDirectAbsPt */\012ELSE[ ]	/* Else */\012PUSHW[ ]	/* 2 values pushed */\01295 1071 \012MIAP[0]	/* MoveIndirectAbsPt */\012EIF[ ]	/* EndIf */\012PUSHW[ ]	/* 4 values pushed */\01245 1063 91 14 \012CALL[ ]	/* CallFunction */\012PUSHW[ ]	/* 4 values pushed */\01281 1061 56 14 \012CALL[ ]	/* CallFunction */\012IUP[0]	/* InterpolateUntPts */\012IUP[1]	/* InterpolateUntPts */";
};
width = 737;
}
);
leftKerningGroup = D;
note = D;
rightKerningGroup = D;
unicode = 0044;
},
{
glyphname = Eth;
lastChange = "2022-03-22 08:50:26 +0000";
layers = (
{
layerId = "16A236A6-57F5-4152-84D1-48D854BBAFA9";
paths = (
{
closed = 1;
nodes = (
"245 -73 OFFCURVE",
"359 -47 OFFCURVE",
"462 -1 CURVE SMOOTH",
"569 47 OFFCURVE",
"659 110 OFFCURVE",
"732 189 CURVE SMOOTH",
"805 268 OFFCURVE",
"841 342 OFFCURVE",
"841 411 CURVE SMOOTH",
"841 469 OFFCURVE",
"812 515 OFFCURVE",
"755 548 CURVE SMOOTH",
"696 582 OFFCURVE",
"611 598 OFFCURVE",
"498 598 CURVE SMOOTH",
"467 598 LINE SMOOTH",
"388 598 OFFCURVE",
"318 583 OFFCURVE",
"258 559 CURVE SMOOTH",
"181 529 OFFCURVE",
"133 485 OFFCURVE",
"112 427 CURVE",
"109 421 OFFCURVE",
"108 413 OFFCURVE",
"108 404 CURVE SMOOTH",
"108 365 OFFCURVE",
"146 322 OFFCURVE",
"187 314 CURVE SMOOTH",
"197 312 OFFCURVE",
"202 314 OFFCURVE",
"202 319 CURVE SMOOTH",
"202 325 OFFCURVE",
"196 330 OFFCURVE",
"184 333 CURVE SMOOTH",
"172 336 OFFCURVE",
"162 344 OFFCURVE",
"153 356 CURVE SMOOTH",
"144 369 OFFCURVE",
"140 383 OFFCURVE",
"140 398 CURVE SMOOTH",
"140 406 OFFCURVE",
"141 413 OFFCURVE",
"144 419 CURVE SMOOTH",
"163 469 OFFCURVE",
"214 509 OFFCURVE",
"299 540 CURVE SMOOTH",
"362 563 OFFCURVE",
"421 575 OFFCURVE",
"477 576 CURVE SMOOTH",
"696 581 OFFCURVE",
"805 530 OFFCURVE",
"805 425 CURVE SMOOTH",
"805 360 OFFCURVE",
"766 287 OFFCURVE",
"687 206 CURVE SMOOTH",
"612 128 OFFCURVE",
"525 66 OFFCURVE",
"427 21 CURVE SMOOTH",
"398 8 OFFCURVE",
"354 -6 OFFCURVE",
"297 -21 CURVE SMOOTH",
"225 -40 OFFCURVE",
"164 -49 OFFCURVE",
"113 -52 CURVE SMOOTH",
"62 -53 OFFCURVE",
"21 -35 OFFCURVE",
"21 -4 CURVE SMOOTH",
"21 29 OFFCURVE",
"62 65 OFFCURVE",
"145 104 CURVE",
"126 69 OFFCURVE",
"113 43 OFFCURVE",
"106 27 CURVE SMOOTH",
"103 18 OFFCURVE",
"101 12 OFFCURVE",
"101 7 CURVE SMOOTH",
"101 -4 OFFCURVE",
"107 -9 OFFCURVE",
"120 -9 CURVE SMOOTH",
"143 -9 OFFCURVE",
"178 6 OFFCURVE",
"225 37 CURVE SMOOTH",
"226 38 OFFCURVE",
"227 39 OFFCURVE",
"227 40 CURVE SMOOTH",
"227 43 OFFCURVE",
"224 43 OFFCURVE",
"219 42 CURVE SMOOTH",
"213 42 OFFCURVE",
"207 40 OFFCURVE",
"202 37 CURVE",
"189 26 OFFCURVE",
"174 20 OFFCURVE",
"158 20 CURVE SMOOTH",
"153 20 OFFCURVE",
"150 24 OFFCURVE",
"150 32 CURVE SMOOTH",
"150 46 OFFCURVE",
"161 68 OFFCURVE",
"182 97 CURVE SMOOTH",
"191 112 OFFCURVE",
"211 127 OFFCURVE",
"242 143 CURVE SMOOTH",
"275 161 OFFCURVE",
"310 174 OFFCURVE",
"348 182 CURVE SMOOTH",
"367 186 OFFCURVE",
"376 190 OFFCURVE",
"376 195 CURVE SMOOTH",
"376 198 OFFCURVE",
"372 199 OFFCURVE",
"365 199 CURVE SMOOTH",
"360 199 OFFCURVE",
"357 199 OFFCURVE",
"355 198 CURVE",
"310 187 OFFCURVE",
"266 176 OFFCURVE",
"225 161 CURVE",
"276 223 LINE SMOOTH",
"291 241 OFFCURVE",
"304 256 OFFCURVE",
"315 267 CURVE SMOOTH",
"400 356 OFFCURVE",
"460 416 OFFCURVE",
"495 445 CURVE SMOOTH",
"506 454 OFFCURVE",
"512 462 OFFCURVE",
"512 468 CURVE SMOOTH",
"512 469 OFFCURVE",
"511 470 OFFCURVE",
"511 471 CURVE",
"508 476 OFFCURVE",
"500 479 OFFCURVE",
"489 479 CURVE SMOOTH",
"470 479 OFFCURVE",
"456 475 OFFCURVE",
"448 467 CURVE",
"394 431 LINE SMOOTH",
"377 420 OFFCURVE",
"363 410 OFFCURVE",
"353 403 CURVE SMOOTH",
"342 396 OFFCURVE",
"335 390 OFFCURVE",
"332 387 CURVE",
"351 392 OFFCURVE",
"370 400 OFFCURVE",
"391 409 CURVE",
"354 369 OFFCURVE",
"313 321 OFFCURVE",
"268 264 CURVE SMOOTH",
"241 230 OFFCURVE",
"219 203 OFFCURVE",
"203 182 CURVE SMOOTH",
"186 161 OFFCURVE",
"175 147 OFFCURVE",
"170 140 CURVE",
"56 91 OFFCURVE",
"-1 42 OFFCURVE",
"-1 -5 CURVE SMOOTH",
"-1 -27 OFFCURVE",
"11 -45 OFFCURVE",
"36 -59 CURVE SMOOTH",
"61 -72 OFFCURVE",
"88 -79 OFFCURVE",
"119 -78 CURVE SMOOTH"
);
},
{
closed = 1;
nodes = (
"213.733 217.174 OFFCURVE",
"280.86 228.439 OFFCURVE",
"353.438 236.343 CURVE",
"362.493 236.447 OFFCURVE",
"369.441 237.3 OFFCURVE",
"374.404 237.91 CURVE SMOOTH",
"385.322 239.25 LINE SMOOTH",
"392.27 240.103 OFFCURVE",
"395.996 242.576 OFFCURVE",
"395.387 247.539 CURVE SMOOTH",
"395.021 250.516 OFFCURVE",
"391.678 253.128 OFFCURVE",
"385.601 253.39 CURVE SMOOTH",
"357.322 253.948 LINE SMOOTH",
"321.973 254.645 OFFCURVE",
"281.906 252.748 OFFCURVE",
"238.234 247.386 CURVE SMOOTH",
"212.427 244.217 OFFCURVE",
"185.75 239.934 OFFCURVE",
"157.21 234.415 CURVE",
"143.54 222.661 OFFCURVE",
"136.819 211.761 OFFCURVE",
"137.916 202.828 CURVE SMOOTH",
"138.403 198.857 OFFCURVE",
"141.624 197.238 OFFCURVE",
"147.58 197.969 CURVE"
);
}
);
width = 737;
}
);
leftKerningGroup = D;
rightKerningGroup = D;
unicode = 00D0;
},
{
glyphname = Dcroat;
lastChange = "2022-03-22 08:50:26 +0000";
layers = (
{
layerId = "16A236A6-57F5-4152-84D1-48D854BBAFA9";
paths = (
{
closed = 1;
nodes = (
"245 -73 OFFCURVE",
"359 -47 OFFCURVE",
"462 -1 CURVE SMOOTH",
"569 47 OFFCURVE",
"659 110 OFFCURVE",
"732 189 CURVE SMOOTH",
"805 268 OFFCURVE",
"841 342 OFFCURVE",
"841 411 CURVE SMOOTH",
"841 469 OFFCURVE",
"812 515 OFFCURVE",
"755 548 CURVE SMOOTH",
"696 582 OFFCURVE",
"611 598 OFFCURVE",
"498 598 CURVE SMOOTH",
"467 598 LINE SMOOTH",
"388 598 OFFCURVE",
"318 583 OFFCURVE",
"258 559 CURVE SMOOTH",
"181 529 OFFCURVE",
"133 485 OFFCURVE",
"112 427 CURVE",
"109 421 OFFCURVE",
"108 413 OFFCURVE",
"108 404 CURVE SMOOTH",
"108 365 OFFCURVE",
"146 322 OFFCURVE",
"187 314 CURVE SMOOTH",
"197 312 OFFCURVE",
"202 314 OFFCURVE",
"202 319 CURVE SMOOTH",
"202 325 OFFCURVE",
"196 330 OFFCURVE",
"184 333 CURVE SMOOTH",
"172 336 OFFCURVE",
"162 344 OFFCURVE",
"153 356 CURVE SMOOTH",
"144 369 OFFCURVE",
"140 383 OFFCURVE",
"140 398 CURVE SMOOTH",
"140 406 OFFCURVE",
"141 413 OFFCURVE",
"144 419 CURVE SMOOTH",
"163 469 OFFCURVE",
"214 509 OFFCURVE",
"299 540 CURVE SMOOTH",
"362 563 OFFCURVE",
"421 575 OFFCURVE",
"477 576 CURVE SMOOTH",
"696 581 OFFCURVE",
"805 530 OFFCURVE",
"805 425 CURVE SMOOTH",
"805 360 OFFCURVE",
"766 287 OFFCURVE",
"687 206 CURVE SMOOTH",
"612 128 OFFCURVE",
"525 66 OFFCURVE",
"427 21 CURVE SMOOTH",
"398 8 OFFCURVE",
"354 -6 OFFCURVE",
"297 -21 CURVE SMOOTH",
"225 -40 OFFCURVE",
"164 -49 OFFCURVE",
"113 -52 CURVE SMOOTH",
"62 -53 OFFCURVE",
"21 -35 OFFCURVE",
"21 -4 CURVE SMOOTH",
"21 29 OFFCURVE",
"62 65 OFFCURVE",
"145 104 CURVE",
"126 69 OFFCURVE",
"113 43 OFFCURVE",
"106 27 CURVE SMOOTH",
"103 18 OFFCURVE",
"101 12 OFFCURVE",
"101 7 CURVE SMOOTH",
"101 -4 OFFCURVE",
"107 -9 OFFCURVE",
"120 -9 CURVE SMOOTH",
"143 -9 OFFCURVE",
"178 6 OFFCURVE",
"225 37 CURVE SMOOTH",
"226 38 OFFCURVE",
"227 39 OFFCURVE",
"227 40 CURVE SMOOTH",
"227 43 OFFCURVE",
"224 43 OFFCURVE",
"219 42 CURVE SMOOTH",
"213 42 OFFCURVE",
"207 40 OFFCURVE",
"202 37 CURVE",
"189 26 OFFCURVE",
"174 20 OFFCURVE",
"158 20 CURVE SMOOTH",
"153 20 OFFCURVE",
"150 24 OFFCURVE",
"150 32 CURVE SMOOTH",
"150 46 OFFCURVE",
"161 68 OFFCURVE",
"182 97 CURVE SMOOTH",
"191 112 OFFCURVE",
"211 127 OFFCURVE",
"242 143 CURVE SMOOTH",
"275 161 OFFCURVE",
"310 174 OFFCURVE",
"348 182 CURVE SMOOTH",
"367 186 OFFCURVE",
"376 190 OFFCURVE",
"376 195 CURVE SMOOTH",
"376 198 OFFCURVE",
"372 199 OFFCURVE",
"365 199 CURVE SMOOTH",
"360 199 OFFCURVE",
"357 199 OFFCURVE",
"355 198 CURVE",
"310 187 OFFCURVE",
"266 176 OFFCURVE",
"225 161 CURVE",
"276 223 LINE SMOOTH",
"291 241 OFFCURVE",
"304 256 OFFCURVE",
"315 267 CURVE SMOOTH",
"400 356 OFFCURVE",
"460 416 OFFCURVE",
"495 445 CURVE SMOOTH",
"506 454 OFFCURVE",
"512 462 OFFCURVE",
"512 468 CURVE SMOOTH",
"512 469 OFFCURVE",
"511 470 OFFCURVE",
"511 471 CURVE",
"508 476 OFFCURVE",
"500 479 OFFCURVE",
"489 479 CURVE SMOOTH",
"470 479 OFFCURVE",
"456 475 OFFCURVE",
"448 467 CURVE",
"394 431 LINE SMOOTH",
"377 420 OFFCURVE",
"363 410 OFFCURVE",
"353 403 CURVE SMOOTH",
"342 396 OFFCURVE",
"335 390 OFFCURVE",
"332 387 CURVE",
"351 392 OFFCURVE",
"370 400 OFFCURVE",
"391 409 CURVE",
"354 369 OFFCURVE",
"313 321 OFFCURVE",
"268 264 CURVE SMOOTH",
"241 230 OFFCURVE",
"219 203 OFFCURVE",
"203 182 CURVE SMOOTH",
"186 161 OFFCURVE",
"175 147 OFFCURVE",
"170 140 CURVE",
"56 91 OFFCURVE",
"-1 42 OFFCURVE",
"-1 -5 CURVE SMOOTH",
"-1 -27 OFFCURVE",
"11 -45 OFFCURVE",
"36 -59 CURVE SMOOTH",
"61 -72 OFFCURVE",
"88 -79 OFFCURVE",
"119 -78 CURVE SMOOTH"
);
},
{
closed = 1;
nodes = (
"213.733 217.174 OFFCURVE",
"280.86 228.439 OFFCURVE",
"353.438 236.343 CURVE",
"362.493 236.447 OFFCURVE",
"369.441 237.3 OFFCURVE",
"374.404 237.91 CURVE SMOOTH",
"385.322 239.25 LINE SMOOTH",
"392.27 240.103 OFFCURVE",
"395.996 242.576 OFFCURVE",
"395.387 247.539 CURVE SMOOTH",
"395.021 250.516 OFFCURVE",
"391.678 253.128 OFFCURVE",
"385.601 253.39 CURVE SMOOTH",
"357.322 253.948 LINE SMOOTH",
"321.973 254.645 OFFCURVE",
"281.906 252.748 OFFCURVE",
"238.234 247.386 CURVE SMOOTH",
"212.427 244.217 OFFCURVE",
"185.75 239.934 OFFCURVE",
"157.21 234.415 CURVE",
"143.54 222.661 OFFCURVE",
"136.819 211.761 OFFCURVE",
"137.916 202.828 CURVE SMOOTH",
"138.403 198.857 OFFCURVE",
"141.624 197.238 OFFCURVE",
"147.58 197.969 CURVE"
);
}
);
width = 737;
}
);
leftKerningGroup = D;
rightKerningGroup = D;
unicode = 0110;
},
{
color = 3;
glyphname = E;
lastChange = "2022-03-22 13:32:56 +0000";
layers = (
{
anchors = (
{
name = bottom;
position = "{165, -93}";
},
{
name = ogonek;
position = "{613, 0}";
},
{
name = top;
position = "{766, 590}";
}
);
layerId = "16A236A6-57F5-4152-84D1-48D854BBAFA9";
paths = (
{
closed = 1;
nodes = (
"303 -93 OFFCURVE",
"359 -86 OFFCURVE",
"412 -73 CURVE SMOOTH",
"444 -65 OFFCURVE",
"491 -49 OFFCURVE",
"554 -25 CURVE SMOOTH",
"603 -6 OFFCURVE",
"659 20 OFFCURVE",
"724 55 CURVE SMOOTH",
"755 71 OFFCURVE",
"799 96 OFFCURVE",
"859 131 CURVE SMOOTH",
"869 137 OFFCURVE",
"874 143 OFFCURVE",
"874 149 CURVE SMOOTH",
"874 153 OFFCURVE",
"872 155 OFFCURVE",
"867 155 CURVE SMOOTH",
"863 155 OFFCURVE",
"859 154 OFFCURVE",
"854 151 CURVE SMOOTH",
"714 78 LINE SMOOTH",
"658 49 OFFCURVE",
"607 27 OFFCURVE",
"561 12 CURVE SMOOTH",
"409 -39 LINE SMOOTH",
"348 -60 OFFCURVE",
"289 -66 OFFCURVE",
"234 -66 CURVE SMOOTH",
"131 -66 OFFCURVE",
"79 -31 OFFCURVE",
"79 40 CURVE SMOOTH",
"79 93 OFFCURVE",
"109 161 OFFCURVE",
"170 244 CURVE",
"245 255 OFFCURVE",
"307 264 OFFCURVE",
"356 270 CURVE SMOOTH",
"405 276 OFFCURVE",
"441 279 OFFCURVE",
"464 279 CURVE SMOOTH",
"518 279 OFFCURVE",
"566 272 OFFCURVE",
"608 259 CURVE SMOOTH",
"631 252 OFFCURVE",
"642 242 OFFCURVE",
"642 229 CURVE SMOOTH",
"642 223 OFFCURVE",
"638 218 OFFCURVE",
"630 214 CURVE SMOOTH",
"620 209 OFFCURVE",
"615 202 OFFCURVE",
"615 193 CURVE SMOOTH",
"616 186 OFFCURVE",
"619 183 OFFCURVE",
"624 183 CURVE SMOOTH",
"629 183 OFFCURVE",
"635 186 OFFCURVE",
"642 192 CURVE SMOOTH",
"660 206 OFFCURVE",
"669 222 OFFCURVE",
"669 239 CURVE SMOOTH",
"669 261 OFFCURVE",
"653 278 OFFCURVE",
"621 289 CURVE SMOOTH",
"583 301 OFFCURVE",
"541 307 OFFCURVE",
"495 307 CURVE SMOOTH",
"462 307 OFFCURVE",
"418 303 OFFCURVE",
"361 296 CURVE SMOOTH",
"254 283 OFFCURVE",
"199 276 OFFCURVE",
"196 275 CURVE",
"251 332 OFFCURVE",
"319 384 OFFCURVE",
"401 431 CURVE SMOOTH",
"506 492 OFFCURVE",
"604 526 OFFCURVE",
"694 532 CURVE SMOOTH",
"754 536 OFFCURVE",
"794 513 OFFCURVE",
"794 469 CURVE SMOOTH",
"794 465 OFFCURVE",
"794 460 OFFCURVE",
"793 453 CURVE SMOOTH",
"792 446 OFFCURVE",
"791 441 OFFCURVE",
"791 438 CURVE SMOOTH",
"791 418 OFFCURVE",
"798 408 OFFCURVE",
"811 408 CURVE SMOOTH",
"829 408 OFFCURVE",
"837 427 OFFCURVE",
"837 466 CURVE SMOOTH",
"837 497 OFFCURVE",
"828 519 OFFCURVE",
"810 532 CURVE SMOOTH",
"793 545 OFFCURVE",
"766 551 OFFCURVE",
"727 551 CURVE SMOOTH",
"711 551 LINE SMOOTH",
"705 551 OFFCURVE",
"699 551 OFFCURVE",
"692 550 CURVE SMOOTH",
"588 543 OFFCURVE",
"484 514 OFFCURVE",
"379 458 CURVE SMOOTH",
"280 407 OFFCURVE",
"196 344 OFFCURVE",
"126 268 CURVE",
"115 267 OFFCURVE",
"105 266 OFFCURVE",
"96 266 CURVE SMOOTH",
"83 266 OFFCURVE",
"72 267 OFFCURVE",
"63 269 CURVE SMOOTH",
"56 270 OFFCURVE",
"52 273 OFFCURVE",
"52 277 CURVE SMOOTH",
"52 285 OFFCURVE",
"78 298 OFFCURVE",
"95 299 CURVE SMOOTH",
"114 300 OFFCURVE",
"123 303 OFFCURVE",
"123 309 CURVE SMOOTH",
"123 311 OFFCURVE",
"120 312 OFFCURVE",
"115 312 CURVE SMOOTH",
"110 312 LINE SMOOTH",
"72 312 OFFCURVE",
"42 301 OFFCURVE",
"21 284 CURVE SMOOTH",
"12 277 OFFCURVE",
"8 269 OFFCURVE",
"8 259 CURVE SMOOTH",
"8 242 OFFCURVE",
"23 226 OFFCURVE",
"43 228 CURVE SMOOTH",
"95 233 LINE",
"54 180 OFFCURVE",
"33 128 OFFCURVE",
"33 78 CURVE SMOOTH",
"33 28 OFFCURVE",
"53 -13 OFFCURVE",
"92 -45 CURVE SMOOTH",
"132 -77 OFFCURVE",
"183 -93 OFFCURVE",
"245 -93 CURVE SMOOTH"
);
}
);
userData = {
assembly = "PUSHW[ ]	/* 1 value pushed */\01210 \012CALL[ ]	/* CallFunction */\012PUSHW[ ]	/* 1 value pushed */\012102 \012MDAP[1]	/* MoveDirectAbsPt */\012PUSHW[ ]	/* 1 value pushed */\01255 \012MDAP[1]	/* MoveDirectAbsPt */\012PUSHW[ ]	/* 1 value pushed */\012102 \012SRP0[ ]	/* SetRefPoint0 */\012PUSHW[ ]	/* 1 value pushed */\01214 \012MDRP[10000]	/* MoveDirectRelPt */\012PUSHW[ ]	/* 1 value pushed */\01214 \012MDAP[1]	/* MoveDirectAbsPt */\012NPUSHW[ ]	/* 5 values pushed */\012202 55 218 55 2 \012DELTAP3[ ]	/* DeltaExceptionP3 */\012NPUSHW[ ]	/* 21 values pushed */\012105 55 121 55 137 55 153 55 169 55 185 55 201 55 217 55 233 55 249 55 10 \012DELTAP1[ ]	/* DeltaExceptionP1 */\012NPUSHW[ ]	/* 33 values pushed */\0129 55 25 55 41 55 57 55 73 55 89 55 105 55 121 55 137 55 153 55 169 55 185 55 201 55 217 55 233 55 249 55 16 \012DELTAP2[ ]	/* DeltaExceptionP2 */\012NPUSHW[ ]	/* 25 values pushed */\0129 55 25 55 41 55 57 55 73 55 89 55 105 55 121 55 137 55 153 55 169 55 185 55 12 \012DELTAP3[ ]	/* DeltaExceptionP3 */\012PUSHW[ ]	/* 1 value pushed */\01255 \012SRP0[ ]	/* SetRefPoint0 */\012PUSHW[ ]	/* 2 values pushed */\01248 1070 \012MIRP[10100]	/* MoveIndirectRelPt */\012PUSHW[ ]	/* 3 values pushed */\01216 14 48 \012SRP1[ ]	/* SetRefPoint1 */\012SRP2[ ]	/* SetRefPoint2 */\012IP[ ]	/* InterpolatePts */\012PUSHW[ ]	/* 1 value pushed */\01255 \012SRP0[ ]	/* SetRefPoint0 */\012PUSHW[ ]	/* 1 value pushed */\01252 \012MDRP[10000]	/* MoveDirectRelPt */\012PUSHW[ ]	/* 1 value pushed */\01252 \012MDAP[1]	/* MoveDirectAbsPt */\012PUSHW[ ]	/* 1 value pushed */\01214 \012SRP0[ ]	/* SetRefPoint0 */\012PUSHW[ ]	/* 2 values pushed */\01288 1070 \012MIRP[10100]	/* MoveIndirectRelPt */\012NPUSHW[ ]	/* 21 values pushed */\012102 88 118 88 134 88 150 88 166 88 182 88 198 88 214 88 230 88 246 88 10 \012DELTAP1[ ]	/* DeltaExceptionP1 */\012NPUSHW[ ]	/* 33 values pushed */\0126 88 22 88 38 88 54 88 70 88 86 88 102 88 118 88 134 88 150 88 166 88 182 88 198 88 214 88 230 88 246 88 16 \012DELTAP2[ ]	/* DeltaExceptionP2 */\012NPUSHW[ ]	/* 25 values pushed */\0126 88 22 88 38 88 54 88 70 88 86 88 102 88 118 88 134 88 150 88 166 88 182 88 12 \012DELTAP3[ ]	/* DeltaExceptionP3 */\012NPUSHW[ ]	/* 5 values pushed */\012197 88 213 88 2 \012DELTAP3[ ]	/* DeltaExceptionP3 */\012PUSHW[ ]	/* 1 value pushed */\01248 \012SRP0[ ]	/* SetRefPoint0 */\012PUSHW[ ]	/* 1 value pushed */\012103 \012MDRP[11100]	/* MoveDirectRelPt */\012SVTCA[0]	/* SetFreedomAndProjectionVectorToAxis */\012PUSHW[ ]	/* 1 value pushed */\01241 \012MDAP[1]	/* MoveDirectAbsPt */\012PUSHW[ ]	/* 1 value pushed */\01244 \012MDAP[1]	/* MoveDirectAbsPt */\012PUSHW[ ]	/* 4 values pushed */\01290 1063 10 14 \012CALL[ ]	/* CallFunction */\012PUSHW[ ]	/* 4 values pushed */\01267 1064 83 14 \012CALL[ ]	/* CallFunction */\012PUSHW[ ]	/* 1 value pushed */\01267 \012SRP0[ ]	/* SetRefPoint0 */\012PUSHW[ ]	/* 1 value pushed */\01224 \012MDRP[10000]	/* MoveDirectRelPt */\012PUSHW[ ]	/* 1 value pushed */\01224 \012MDAP[1]	/* MoveDirectAbsPt */\012IUP[0]	/* InterpolateUntPts */\012IUP[1]	/* InterpolateUntPts */";
};
width = 791;
}
);
leftKerningGroup = E;
note = E;
rightKerningGroup = E;
unicode = 0045;
},
{
glyphname = F;
lastChange = "2022-03-22 13:34:52 +0000";
layers = (
{
layerId = "16A236A6-57F5-4152-84D1-48D854BBAFA9";
paths = (
{
closed = 1;
nodes = (
"275 -71 OFFCURVE",
"346 -43 OFFCURVE",
"415 11 CURVE SMOOTH",
"468 52 OFFCURVE",
"514 102 OFFCURVE",
"553 161 CURVE SMOOTH",
"572 188 OFFCURVE",
"586 212 OFFCURVE",
"599 235 CURVE",
"636 235 LINE SMOOTH",
"693 235 OFFCURVE",
"740 236 OFFCURVE",
"777 239 CURVE SMOOTH",
"789 240 OFFCURVE",
"795 245 OFFCURVE",
"795 255 CURVE SMOOTH",
"795 259 OFFCURVE",
"793 261 OFFCURVE",
"789 261 CURVE SMOOTH",
"786 261 OFFCURVE",
"784 261 OFFCURVE",
"783 260 CURVE",
"767 255 OFFCURVE",
"715 252 OFFCURVE",
"627 252 CURVE SMOOTH",
"609 252 LINE",
"629 287 OFFCURVE",
"657 336 OFFCURVE",
"693 403 CURVE SMOOTH",
"702 418 OFFCURVE",
"707 427 OFFCURVE",
"708 430 CURVE",
"755 414 OFFCURVE",
"788 402 OFFCURVE",
"811 393 CURVE SMOOTH",
"831 386 OFFCURVE",
"849 384 OFFCURVE",
"866 384 CURVE SMOOTH",
"907 384 OFFCURVE",
"927 402 OFFCURVE",
"927 437 CURVE SMOOTH",
"927 457 OFFCURVE",
"913 478 OFFCURVE",
"884 501 CURVE SMOOTH",
"855 524 OFFCURVE",
"828 535 OFFCURVE",
"802 535 CURVE SMOOTH",
"765 535 OFFCURVE",
"729 515 OFFCURVE",
"695 474 CURVE",
"494 541 OFFCURVE",
"329 581 OFFCURVE",
"200 595 CURVE SMOOTH",
"189 596 OFFCURVE",
"180 597 OFFCURVE",
"169 597 CURVE SMOOTH",
"126 597 OFFCURVE",
"89 588 OFFCURVE",
"58 571 CURVE SMOOTH",
"24 551 OFFCURVE",
"7 524 OFFCURVE",
"7 490 CURVE SMOOTH",
"7 466 OFFCURVE",
"14 444 OFFCURVE",
"29 423 CURVE SMOOTH",
"42 406 OFFCURVE",
"55 390 OFFCURVE",
"70 373 CURVE SMOOTH",
"75 366 OFFCURVE",
"80 363 OFFCURVE",
"86 363 CURVE SMOOTH",
"89 363 OFFCURVE",
"91 365 OFFCURVE",
"91 368 CURVE SMOOTH",
"91 371 OFFCURVE",
"90 374 OFFCURVE",
"87 377 CURVE",
"51 426 LINE",
"38 447 OFFCURVE",
"32 468 OFFCURVE",
"32 490 CURVE SMOOTH",
"32 518 OFFCURVE",
"46 539 OFFCURVE",
"75 554 CURVE SMOOTH",
"100 568 OFFCURVE",
"131 575 OFFCURVE",
"168 575 CURVE SMOOTH",
"255 575 OFFCURVE",
"423 531 OFFCURVE",
"673 442 CURVE",
"660 421 LINE SMOOTH",
"633 374 OFFCURVE",
"601 319 OFFCURVE",
"562 254 CURVE",
"468 260 LINE SMOOTH",
"447 261 OFFCURVE",
"438 262 OFFCURVE",
"440 262 CURVE",
"438 262 OFFCURVE",
"435 265 OFFCURVE",
"432 271 CURVE",
"428 276 OFFCURVE",
"425 279 OFFCURVE",
"422 279 CURVE SMOOTH",
"409 279 OFFCURVE",
"384 262 OFFCURVE",
"372 262 CURVE SMOOTH",
"359 261 OFFCURVE",
"353 253 OFFCURVE",
"353 236 CURVE SMOOTH",
"353 229 OFFCURVE",
"355 226 OFFCURVE",
"359 226 CURVE SMOOTH",
"360 226 OFFCURVE",
"361 226 OFFCURVE",
"363 227 CURVE SMOOTH",
"384 234 OFFCURVE",
"446 237 OFFCURVE",
"551 236 CURVE",
"536 209 OFFCURVE",
"524 190 OFFCURVE",
"515 177 CURVE SMOOTH",
"428 34 OFFCURVE",
"330 -43 OFFCURVE",
"219 -52 CURVE SMOOTH",
"172 -55 OFFCURVE",
"132 -40 OFFCURVE",
"97 -6 CURVE SMOOTH",
"65 24 OFFCURVE",
"49 58 OFFCURVE",
"49 96 CURVE SMOOTH",
"49 129 OFFCURVE",
"60 158 OFFCURVE",
"75 183 CURVE SMOOTH",
"90 205 OFFCURVE",
"105 217 OFFCURVE",
"122 220 CURVE SMOOTH",
"133 222 OFFCURVE",
"139 225 OFFCURVE",
"139 230 CURVE SMOOTH",
"139 232 OFFCURVE",
"136 233 OFFCURVE",
"131 233 CURVE SMOOTH",
"127 233 LINE SMOOTH",
"102 230 OFFCURVE",
"79 218 OFFCURVE",
"57 197 CURVE SMOOTH",
"29 171 OFFCURVE",
"14 138 OFFCURVE",
"14 99 CURVE SMOOTH",
"14 55 OFFCURVE",
"33 15 OFFCURVE",
"71 -19 CURVE SMOOTH",
"109 -54 OFFCURVE",
"153 -71 OFFCURVE",
"203 -71 CURVE SMOOTH"
);
},
{
closed = 1;
nodes = (
"866 417 OFFCURVE",
"846 422 OFFCURVE",
"817 432 CURVE SMOOTH",
"730 462 LINE",
"757 498 OFFCURVE",
"785 517 OFFCURVE",
"815 517 CURVE SMOOTH",
"830 517 OFFCURVE",
"848 508 OFFCURVE",
"869 489 CURVE SMOOTH",
"892 469 OFFCURVE",
"904 452 OFFCURVE",
"904 437 CURVE SMOOTH",
"904 424 OFFCURVE",
"896 417 OFFCURVE",
"879 417 CURVE SMOOTH"
);
}
);
userData = {
assembly = "PUSHW[ ]	/* 1 value pushed */\01210 \012CALL[ ]	/* CallFunction */\012PUSHW[ ]	/* 4 values pushed */\01284 1067 98 14 \012CALL[ ]	/* CallFunction */\012NPUSHW[ ]	/* 21 values pushed */\012102 84 118 84 134 84 150 84 166 84 182 84 198 84 214 84 230 84 246 84 10 \012DELTAP1[ ]	/* DeltaExceptionP1 */\012NPUSHW[ ]	/* 33 values pushed */\0126 84 22 84 38 84 54 84 70 84 86 84 102 84 118 84 134 84 150 84 166 84 182 84 198 84 214 84 230 84 246 84 16 \012DELTAP2[ ]	/* DeltaExceptionP2 */\012NPUSHW[ ]	/* 33 values pushed */\0126 84 22 84 38 84 54 84 70 84 86 84 102 84 118 84 134 84 150 84 166 84 182 84 198 84 214 84 230 84 246 84 16 \012DELTAP3[ ]	/* DeltaExceptionP3 */\012SVTCA[0]	/* SetFreedomAndProjectionVectorToAxis */\012PUSHW[ ]	/* 4 values pushed */\012102 1061 80 14 \012CALL[ ]	/* CallFunction */\012PUSHW[ ]	/* 1 value pushed */\012102 \012SRP0[ ]	/* SetRefPoint0 */\012PUSHW[ ]	/* 1 value pushed */\012105 \012MDRP[10000]	/* MoveDirectRelPt */\012PUSHW[ ]	/* 1 value pushed */\012105 \012MDAP[1]	/* MoveDirectAbsPt */\012IUP[0]	/* InterpolateUntPts */\012IUP[1]	/* InterpolateUntPts */";
};
width = 706;
}
);
note = F;
unicode = 0046;
},
{
color = 3;
glyphname = G;
lastChange = "2022-03-22 08:52:30 +0000";
layers = (
{
anchors = (
{
name = bottom;
position = "{274, -194}";
},
{
name = top;
position = "{713, 560}";
}
);
layerId = "16A236A6-57F5-4152-84D1-48D854BBAFA9";
paths = (
{
closed = 1;
nodes = (
"328 -194 OFFCURVE",
"334 -194 OFFCURVE",
"341 -193 CURVE SMOOTH",
"422 -184 OFFCURVE",
"504 -128 OFFCURVE",
"587 -26 CURVE SMOOTH",
"627 23 OFFCURVE",
"677 101 OFFCURVE",
"737 206 CURVE",
"738 209 OFFCURVE",
"739 211 OFFCURVE",
"739 212 CURVE SMOOTH",
"739 219 OFFCURVE",
"731 223 OFFCURVE",
"716 223 CURVE SMOOTH",
"699 223 OFFCURVE",
"687 219 OFFCURVE",
"679 210 CURVE SMOOTH",
"562 83 OFFCURVE",
"399 12 OFFCURVE",
"190 -3 CURVE SMOOTH",
"179 -4 OFFCURVE",
"169 -4 OFFCURVE",
"160 -4 CURVE SMOOTH",
"77 -4 OFFCURVE",
"35 25 OFFCURVE",
"35 82 CURVE SMOOTH",
"35 115 OFFCURVE",
"51 153 OFFCURVE",
"84 196 CURVE SMOOTH",
"111 233 OFFCURVE",
"143 265 OFFCURVE",
"179 292 CURVE SMOOTH",
"340 412 OFFCURVE",
"489 472 OFFCURVE",
"627 472 CURVE SMOOTH",
"677 472 OFFCURVE",
"718 466 OFFCURVE",
"749 454 CURVE SMOOTH",
"777 443 OFFCURVE",
"793 428 OFFCURVE",
"797 411 CURVE SMOOTH",
"800 397 OFFCURVE",
"804 390 OFFCURVE",
"811 390 CURVE SMOOTH",
"815 390 OFFCURVE",
"817 393 OFFCURVE",
"817 399 CURVE SMOOTH",
"817 401 OFFCURVE",
"817 404 OFFCURVE",
"816 407 CURVE",
"804 480 OFFCURVE",
"742 517 OFFCURVE",
"630 517 CURVE SMOOTH",
"565 517 OFFCURVE",
"490 501 OFFCURVE",
"405 469 CURVE SMOOTH",
"311 433 OFFCURVE",
"228 386 OFFCURVE",
"156 329 CURVE SMOOTH",
"59 251 OFFCURVE",
"11 170 OFFCURVE",
"11 87 CURVE SMOOTH",
"11 47 OFFCURVE",
"31 15 OFFCURVE",
"72 -10 CURVE SMOOTH",
"103 -30 OFFCURVE",
"139 -40 OFFCURVE",
"178 -40 CURVE SMOOTH",
"183 -40 OFFCURVE",
"189 -39 OFFCURVE",
"195 -39 CURVE SMOOTH",
"342 -28 OFFCURVE",
"485 27 OFFCURVE",
"624 126 CURVE",
"571 34 OFFCURVE",
"531 -28 OFFCURVE",
"502 -63 CURVE SMOOTH",
"447 -128 OFFCURVE",
"389 -165 OFFCURVE",
"328 -172 CURVE SMOOTH",
"303 -175 OFFCURVE",
"277 -169 OFFCURVE",
"249 -156 CURVE SMOOTH",
"229 -145 OFFCURVE",
"212 -133 OFFCURVE",
"199 -119 CURVE SMOOTH",
"193 -112 OFFCURVE",
"186 -109 OFFCURVE",
"179 -109 CURVE SMOOTH",
"172 -109 OFFCURVE",
"169 -111 OFFCURVE",
"169 -116 CURVE SMOOTH",
"169 -119 OFFCURVE",
"171 -123 OFFCURVE",
"175 -127 CURVE SMOOTH",
"220 -172 OFFCURVE",
"269 -194 OFFCURVE",
"322 -194 CURVE SMOOTH"
);
}
);
userData = {
assembly = "PUSHW[ ]	/* 1 value pushed */\01210 \012CALL[ ]	/* CallFunction */\012PUSHW[ ]	/* 4 values pushed */\01214 1067 52 14 \012CALL[ ]	/* CallFunction */\012NPUSHW[ ]	/* 21 values pushed */\012102 14 118 14 134 14 150 14 166 14 182 14 198 14 214 14 230 14 246 14 10 \012DELTAP1[ ]	/* DeltaExceptionP1 */\012NPUSHW[ ]	/* 33 values pushed */\0126 14 22 14 38 14 54 14 70 14 86 14 102 14 118 14 134 14 150 14 166 14 182 14 198 14 214 14 230 14 246 14 16 \012DELTAP2[ ]	/* DeltaExceptionP2 */\012NPUSHW[ ]	/* 33 values pushed */\0126 14 22 14 38 14 54 14 70 14 86 14 102 14 118 14 134 14 150 14 166 14 182 14 198 14 214 14 230 14 246 14 16 \012DELTAP3[ ]	/* DeltaExceptionP3 */\012SVTCA[0]	/* SetFreedomAndProjectionVectorToAxis */\012PUSHW[ ]	/* 4 values pushed */\01258 1064 8 14 \012CALL[ ]	/* CallFunction */\012PUSHW[ ]	/* 4 values pushed */\01216 1064 48 14 \012CALL[ ]	/* CallFunction */\012IUP[0]	/* InterpolateUntPts */\012IUP[1]	/* InterpolateUntPts */";
};
width = 725;
}
);
leftKerningGroup = G;
note = G;
rightKerningGroup = G;
unicode = 0047;
},
{
color = 3;
glyphname = H;
lastChange = "2022-03-22 13:38:12 +0000";
layers = (
{
anchors = (
{
name = top;
position = "{1059, 620}";
}
);
layerId = "16A236A6-57F5-4152-84D1-48D854BBAFA9";
paths = (
{
closed = 1;
nodes = (
"169 -144 OFFCURVE",
"242 -109 OFFCURVE",
"331 -40 CURVE SMOOTH",
"416 25 OFFCURVE",
"501 111 OFFCURVE",
"589 216 CURVE",
"672 223 OFFCURVE",
"758 226 OFFCURVE",
"846 226 CURVE SMOOTH",
"890 226 LINE",
"837 149 OFFCURVE",
"801 83 OFFCURVE",
"783 29 CURVE",
"780 23 OFFCURVE",
"779 16 OFFCURVE",
"779 9 CURVE SMOOTH",
"779 -4 OFFCURVE",
"786 -11 OFFCURVE",
"800 -11 CURVE SMOOTH",
"825 -11 OFFCURVE",
"861 7 OFFCURVE",
"908 42 CURVE SMOOTH",
"909 43 OFFCURVE",
"910 45 OFFCURVE",
"910 46 CURVE SMOOTH",
"910 49 OFFCURVE",
"907 51 OFFCURVE",
"900 51 CURVE SMOOTH",
"894 51 OFFCURVE",
"890 50 OFFCURVE",
"887 47 CURVE SMOOTH",
"866 31 OFFCURVE",
"850 23 OFFCURVE",
"841 23 CURVE SMOOTH",
"836 23 OFFCURVE",
"834 29 OFFCURVE",
"834 40 CURVE SMOOTH",
"834 60 OFFCURVE",
"844 85 OFFCURVE",
"863 117 CURVE SMOOTH",
"929 226 LINE",
"941 225 OFFCURVE",
"952 225 OFFCURVE",
"962 225 CURVE SMOOTH",
"988 225 LINE SMOOTH",
"1000 225 OFFCURVE",
"1006 227 OFFCURVE",
"1006 232 CURVE SMOOTH",
"1006 235 OFFCURVE",
"1001 238 OFFCURVE",
"991 239 CURVE SMOOTH",
"941 243 LINE",
"1023 364 OFFCURVE",
"1112 473 OFFCURVE",
"1208 570 CURVE SMOOTH",
"1239 601 OFFCURVE",
"1259 616 OFFCURVE",
"1270 616 CURVE SMOOTH",
"1281 616 OFFCURVE",
"1287 619 OFFCURVE",
"1287 625 CURVE SMOOTH",
"1287 632 OFFCURVE",
"1282 635 OFFCURVE",
"1272 635 CURVE SMOOTH",
"1269 635 OFFCURVE",
"1266 635 OFFCURVE",
"1264 634 CURVE",
"1249 631 OFFCURVE",
"1234 627 OFFCURVE",
"1219 623 CURVE SMOOTH",
"1200 618 OFFCURVE",
"1185 609 OFFCURVE",
"1175 597 CURVE SMOOTH",
"1071 476 OFFCURVE",
"983 358 OFFCURVE",
"903 245 CURVE",
"821 250 OFFCURVE",
"746 253 OFFCURVE",
"678 253 CURVE SMOOTH",
"656 253 OFFCURVE",
"635 253 OFFCURVE",
"614 252 CURVE",
"625 265 OFFCURVE",
"633 273 OFFCURVE",
"640 280 CURVE",
"654 282 LINE SMOOTH",
"664 283 OFFCURVE",
"669 285 OFFCURVE",
"670 286 CURVE SMOOTH",
"672 288 OFFCURVE",
"673 290 OFFCURVE",
"673 292 CURVE SMOOTH",
"673 295 OFFCURVE",
"670 297 OFFCURVE",
"664 300 CURVE SMOOTH",
"657 303 OFFCURVE",
"654 304 OFFCURVE",
"655 305 CURVE SMOOTH",
"708 376 OFFCURVE",
"742 426 OFFCURVE",
"759 457 CURVE",
"785 474 OFFCURVE",
"800 495 OFFCURVE",
"805 518 CURVE SMOOTH",
"806 525 OFFCURVE",
"807 531 OFFCURVE",
"807 538 CURVE SMOOTH",
"807 556 OFFCURVE",
"803 565 OFFCURVE",
"794 565 CURVE SMOOTH",
"789 565 OFFCURVE",
"783 561 OFFCURVE",
"776 553 CURVE SMOOTH",
"759 532 OFFCURVE",
"744 512 OFFCURVE",
"733 493 CURVE",
"694 471 LINE",
"654 449 LINE SMOOTH",
"586 411 OFFCURVE",
"552 374 OFFCURVE",
"552 335 CURVE SMOOTH",
"552 307 OFFCURVE",
"567 290 OFFCURVE",
"596 285 CURVE",
"570 250 LINE",
"565 250 LINE",
"554 249 LINE SMOOTH",
"479 242 OFFCURVE",
"402 233 OFFCURVE",
"324 219 CURVE",
"327 226 LINE",
"343 242 LINE SMOOTH",
"344 243 OFFCURVE",
"344 244 OFFCURVE",
"345 246 CURVE SMOOTH",
"347 249 LINE",
"302 232 OFFCURVE",
"264 216 OFFCURVE",
"233 201 CURVE",
"222 199 OFFCURVE",
"217 192 OFFCURVE",
"217 179 CURVE SMOOTH",
"217 169 OFFCURVE",
"221 165 OFFCURVE",
"228 165 CURVE SMOOTH",
"232 165 LINE",
"329 188 OFFCURVE",
"432 203 OFFCURVE",
"541 214 CURVE",
"458 111 OFFCURVE",
"381 30 OFFCURVE",
"309 -30 CURVE SMOOTH",
"234 -93 OFFCURVE",
"173 -124 OFFCURVE",
"127 -124 CURVE SMOOTH",
"73 -124 OFFCURVE",
"46 -80 OFFCURVE",
"46 9 CURVE SMOOTH",
"46 87 OFFCURVE",
"67 147 OFFCURVE",
"109 190 CURVE SMOOTH",
"115 196 OFFCURVE",
"118 201 OFFCURVE",
"118 206 CURVE SMOOTH",
"118 209 OFFCURVE",
"117 210 OFFCURVE",
"115 210 CURVE SMOOTH",
"112 210 OFFCURVE",
"108 208 OFFCURVE",
"103 203 CURVE SMOOTH",
"42 140 OFFCURVE",
"12 76 OFFCURVE",
"12 11 CURVE SMOOTH",
"12 -92 OFFCURVE",
"46 -144 OFFCURVE",
"113 -144 CURVE SMOOTH"
);
},
{
closed = 1;
nodes = (
"602 303 OFFCURVE",
"586 306 OFFCURVE",
"586 336 CURVE SMOOTH",
"586 368 OFFCURVE",
"612 404 OFFCURVE",
"659 433 CURVE",
"684 445 OFFCURVE",
"702 453 OFFCURVE",
"714 458 CURVE",
"706 443 OFFCURVE",
"691 421 OFFCURVE",
"670 390 CURVE SMOOTH",
"639 346 OFFCURVE",
"619 317 OFFCURVE",
"610 303 CURVE"
);
}
);
userData = {
assembly = "PUSHW[ ]	/* 1 value pushed */\01210 \012CALL[ ]	/* CallFunction */\012PUSHW[ ]	/* 1 value pushed */\012142 \012MDAP[1]	/* MoveDirectAbsPt */\012PUSHW[ ]	/* 1 value pushed */\01281 \012MDAP[1]	/* MoveDirectAbsPt */\012NPUSHW[ ]	/* 5 values pushed */\012202 81 218 81 2 \012DELTAP3[ ]	/* DeltaExceptionP3 */\012NPUSHW[ ]	/* 21 values pushed */\012105 81 121 81 137 81 153 81 169 81 185 81 201 81 217 81 233 81 249 81 10 \012DELTAP1[ ]	/* DeltaExceptionP1 */\012NPUSHW[ ]	/* 33 values pushed */\0129 81 25 81 41 81 57 81 73 81 89 81 105 81 121 81 137 81 153 81 169 81 185 81 201 81 217 81 233 81 249 81 16 \012DELTAP2[ ]	/* DeltaExceptionP2 */\012NPUSHW[ ]	/* 25 values pushed */\0129 81 25 81 41 81 57 81 73 81 89 81 105 81 121 81 137 81 153 81 169 81 185 81 12 \012DELTAP3[ ]	/* DeltaExceptionP3 */\012PUSHW[ ]	/* 2 values pushed */\012136 1069 \012MIRP[10100]	/* MoveIndirectRelPt */\012PUSHW[ ]	/* 1 value pushed */\01236 \012MDRP[10000]	/* MoveDirectRelPt */\012PUSHW[ ]	/* 1 value pushed */\01236 \012MDAP[1]	/* MoveDirectAbsPt */\012PUSHW[ ]	/* 1 value pushed */\012142 \012SRP0[ ]	/* SetRefPoint0 */\012PUSHW[ ]	/* 1 value pushed */\01243 \012MDRP[10000]	/* MoveDirectRelPt */\012PUSHW[ ]	/* 1 value pushed */\01243 \012MDAP[1]	/* MoveDirectAbsPt */\012PUSHW[ ]	/* 2 values pushed */\01253 1068 \012MIRP[10100]	/* MoveIndirectRelPt */\012NPUSHW[ ]	/* 21 values pushed */\012102 53 118 53 134 53 150 53 166 53 182 53 198 53 214 53 230 53 246 53 10 \012DELTAP1[ ]	/* DeltaExceptionP1 */\012NPUSHW[ ]	/* 33 values pushed */\0126 53 22 53 38 53 54 53 70 53 86 53 102 53 118 53 134 53 150 53 166 53 182 53 198 53 214 53 230 53 246 53 16 \012DELTAP2[ ]	/* DeltaExceptionP2 */\012NPUSHW[ ]	/* 25 values pushed */\0126 53 22 53 38 53 54 53 70 53 86 53 102 53 118 53 134 53 150 53 166 53 182 53 12 \012DELTAP3[ ]	/* DeltaExceptionP3 */\012NPUSHW[ ]	/* 5 values pushed */\012197 53 213 53 2 \012DELTAP3[ ]	/* DeltaExceptionP3 */\012PUSHW[ ]	/* 3 values pushed */\01259 43 36 \012SRP1[ ]	/* SetRefPoint1 */\012SRP2[ ]	/* SetRefPoint2 */\012IP[ ]	/* InterpolatePts */\012PUSHW[ ]	/* 3 values pushed */\01271 43 36 \012SRP1[ ]	/* SetRefPoint1 */\012SRP2[ ]	/* SetRefPoint2 */\012IP[ ]	/* InterpolatePts */\012PUSHW[ ]	/* 3 values pushed */\01273 43 36 \012SRP1[ ]	/* SetRefPoint1 */\012SRP2[ ]	/* SetRefPoint2 */\012IP[ ]	/* InterpolatePts */\012PUSHW[ ]	/* 1 value pushed */\01281 \012SRP0[ ]	/* SetRefPoint0 */\012PUSHW[ ]	/* 1 value pushed */\01275 \012MDRP[10000]	/* MoveDirectRelPt */\012PUSHW[ ]	/* 1 value pushed */\01275 \012MDAP[1]	/* MoveDirectAbsPt */\012SVTCA[0]	/* SetFreedomAndProjectionVectorToAxis */\012PUSHW[ ]	/* 1 value pushed */\012123 \012MDAP[1]	/* MoveDirectAbsPt */\012PUSHW[ ]	/* 1 value pushed */\012125 \012MDAP[1]	/* MoveDirectAbsPt */\012PUSHW[ ]	/* 1 value pushed */\0121060 \012RCVT[ ]	/* ReadCVT */\012IF[ ]	/* If */\012PUSHW[ ]	/* 1 value pushed */\01227 \012MDAP[1]	/* MoveDirectAbsPt */\012ELSE[ ]	/* Else */\012PUSHW[ ]	/* 2 values pushed */\01227 1071 \012MIAP[0]	/* MoveIndirectAbsPt */\012EIF[ ]	/* EndIf */\012PUSHW[ ]	/* 4 values pushed */\01255 1062 41 14 \012CALL[ ]	/* CallFunction */\012PUSHW[ ]	/* 3 values pushed */\0122 27 125 \012SRP1[ ]	/* SetRefPoint1 */\012SRP2[ ]	/* SetRefPoint2 */\012IP[ ]	/* InterpolatePts */\012PUSHW[ ]	/* 3 values pushed */\01233 27 125 \012SRP1[ ]	/* SetRefPoint1 */\012SRP2[ ]	/* SetRefPoint2 */\012IP[ ]	/* InterpolatePts */\012PUSHW[ ]	/* 3 values pushed */\01259 27 125 \012SRP1[ ]	/* SetRefPoint1 */\012SRP2[ ]	/* SetRefPoint2 */\012IP[ ]	/* InterpolatePts */\012PUSHW[ ]	/* 3 values pushed */\01271 27 125 \012SRP1[ ]	/* SetRefPoint1 */\012SRP2[ ]	/* SetRefPoint2 */\012IP[ ]	/* InterpolatePts */\012PUSHW[ ]	/* 3 values pushed */\01273 27 125 \012SRP1[ ]	/* SetRefPoint1 */\012SRP2[ ]	/* SetRefPoint2 */\012IP[ ]	/* InterpolatePts */\012PUSHW[ ]	/* 3 values pushed */\01279 27 125 \012SRP1[ ]	/* SetRefPoint1 */\012SRP2[ ]	/* SetRefPoint2 */\012IP[ ]	/* InterpolatePts */\012PUSHW[ ]	/* 3 values pushed */\012112 27 125 \012SRP1[ ]	/* SetRefPoint1 */\012SRP2[ ]	/* SetRefPoint2 */\012IP[ ]	/* InterpolatePts */\012PUSHW[ ]	/* 3 values pushed */\012131 27 125 \012SRP1[ ]	/* SetRefPoint1 */\012SRP2[ ]	/* SetRefPoint2 */\012IP[ ]	/* InterpolatePts */\012IUP[0]	/* InterpolateUntPts */\012IUP[1]	/* InterpolateUntPts */";
};
width = 958;
}
);
leftKerningGroup = H;
note = H;
rightKerningGroup = H;
unicode = 0048;
},
{
color = 3;
glyphname = I;
lastChange = "2022-03-22 09:14:10 +0000";
layers = (
{
anchors = (
{
name = bottom;
position = "{222, -86}";
},
{
name = ogonek;
position = "{455, -30}";
},
{
name = top;
position = "{882, 620}";
}
);
layerId = "16A236A6-57F5-4152-84D1-48D854BBAFA9";
paths = (
{
closed = 1;
nodes = (
"323 -86 OFFCURVE",
"393 -68 OFFCURVE",
"454 -31 CURVE SMOOTH",
"505 0 OFFCURVE",
"560 51 OFFCURVE",
"619 120 CURVE SMOOTH",
"676 189 OFFCURVE",
"735 293 OFFCURVE",
"796 430 CURVE SMOOTH",
"801 440 OFFCURVE",
"805 452 OFFCURVE",
"810 465 CURVE SMOOTH",
"814 478 OFFCURVE",
"817 486 OFFCURVE",
"819 491 CURVE",
"840 503 OFFCURVE",
"856 516 OFFCURVE",
"867 531 CURVE SMOOTH",
"876 542 OFFCURVE",
"881 556 OFFCURVE",
"881 571 CURVE SMOOTH",
"881 584 OFFCURVE",
"877 591 OFFCURVE",
"869 591 CURVE SMOOTH",
"863 591 OFFCURVE",
"856 587 OFFCURVE",
"847 578 CURVE SMOOTH",
"822 553 OFFCURVE",
"804 526 OFFCURVE",
"792 499 CURVE",
"767 484 OFFCURVE",
"744 473 OFFCURVE",
"725 462 CURVE SMOOTH",
"677 435 LINE SMOOTH",
"547 362 OFFCURVE",
"486 286 OFFCURVE",
"486 226 CURVE SMOOTH",
"486 217 OFFCURVE",
"487 210 OFFCURVE",
"489 203 CURVE SMOOTH",
"493 184 OFFCURVE",
"506 175 OFFCURVE",
"529 175 CURVE SMOOTH",
"549 175 OFFCURVE",
"559 177 OFFCURVE",
"559 182 CURVE SMOOTH",
"559 185 OFFCURVE",
"552 187 OFFCURVE",
"538 187 CURVE SMOOTH",
"531 187 OFFCURVE",
"524 191 OFFCURVE",
"517 199 CURVE SMOOTH",
"514 202 OFFCURVE",
"511 205 OFFCURVE",
"508 210 CURVE",
"506 250 OFFCURVE",
"524 288 OFFCURVE",
"561 324 CURVE SMOOTH",
"584 346 OFFCURVE",
"626 376 OFFCURVE",
"686 415 CURVE SMOOTH",
"705 427 OFFCURVE",
"733 443 OFFCURVE",
"772 464 CURVE",
"773 465 OFFCURVE",
"759 435 OFFCURVE",
"760 436 CURVE",
"720 352 OFFCURVE",
"692 295 OFFCURVE",
"677 266 CURVE SMOOTH",
"648 212 OFFCURVE",
"619 170 OFFCURVE",
"592 140 CURVE SMOOTH",
"529 71 OFFCURVE",
"473 22 OFFCURVE",
"422 -9 CURVE SMOOTH",
"359 -46 OFFCURVE",
"290 -65 OFFCURVE",
"217 -65 CURVE SMOOTH",
"162 -65 OFFCURVE",
"118 -43 OFFCURVE",
"85 0 CURVE SMOOTH",
"53 41 OFFCURVE",
"37 91 OFFCURVE",
"37 152 CURVE SMOOTH",
"37 187 OFFCURVE",
"43 222 OFFCURVE",
"55 257 CURVE SMOOTH",
"66 289 OFFCURVE",
"81 315 OFFCURVE",
"100 334 CURVE SMOOTH",
"106 341 OFFCURVE",
"109 346 OFFCURVE",
"109 351 CURVE SMOOTH",
"109 353 OFFCURVE",
"108 354 OFFCURVE",
"106 354 CURVE SMOOTH",
"103 354 OFFCURVE",
"100 352 OFFCURVE",
"95 347 CURVE SMOOTH",
"37 286 OFFCURVE",
"8 220 OFFCURVE",
"8 150 CURVE SMOOTH",
"8 83 OFFCURVE",
"30 27 OFFCURVE",
"75 -18 CURVE SMOOTH",
"120 -63 OFFCURVE",
"176 -86 OFFCURVE",
"242 -86 CURVE SMOOTH"
);
}
);
userData = {
assembly = "PUSHW[ ]	/* 1 value pushed */\01210 \012CALL[ ]	/* CallFunction */\012PUSHW[ ]	/* 4 values pushed */\01227 1065 15 14 \012CALL[ ]	/* CallFunction */\012NPUSHW[ ]	/* 21 values pushed */\012102 27 118 27 134 27 150 27 166 27 182 27 198 27 214 27 230 27 246 27 10 \012DELTAP1[ ]	/* DeltaExceptionP1 */\012NPUSHW[ ]	/* 33 values pushed */\0126 27 22 27 38 27 54 27 70 27 86 27 102 27 118 27 134 27 150 27 166 27 182 27 198 27 214 27 230 27 246 27 16 \012DELTAP2[ ]	/* DeltaExceptionP2 */\012NPUSHW[ ]	/* 25 values pushed */\0126 27 22 27 38 27 54 27 70 27 86 27 102 27 118 27 134 27 150 27 166 27 182 27 12 \012DELTAP3[ ]	/* DeltaExceptionP3 */\012NPUSHW[ ]	/* 5 values pushed */\012197 27 213 27 2 \012DELTAP3[ ]	/* DeltaExceptionP3 */\012SVTCA[0]	/* SetFreedomAndProjectionVectorToAxis */\012PUSHW[ ]	/* 1 value pushed */\01275 \012MDAP[1]	/* MoveDirectAbsPt */\012PUSHW[ ]	/* 4 values pushed */\01231 1061 11 14 \012CALL[ ]	/* CallFunction */\012IUP[0]	/* InterpolateUntPts */\012IUP[1]	/* InterpolateUntPts */";
};
width = 706;
}
);
leftKerningGroup = I;
note = I;
rightKerningGroup = I;
unicode = 0049;
},
{
color = 3;
glyphname = J;
lastChange = "2022-03-22 09:14:38 +0000";
layers = (
{
anchors = (
{
name = top;
position = "{640, 640}";
}
);
layerId = "16A236A6-57F5-4152-84D1-48D854BBAFA9";
paths = (
{
closed = 1;
nodes = (
"121 -321 OFFCURVE",
"151 -305 OFFCURVE",
"184 -272 CURVE SMOOTH",
"291 -171 OFFCURVE",
"392 -51 OFFCURVE",
"487 90 CURVE",
"572 149 OFFCURVE",
"635 183 OFFCURVE",
"675 192 CURVE SMOOTH",
"692 195 OFFCURVE",
"700 199 OFFCURVE",
"700 205 CURVE SMOOTH",
"700 208 OFFCURVE",
"694 211 OFFCURVE",
"682 212 CURVE",
"639 206 OFFCURVE",
"584 181 OFFCURVE",
"517 137 CURVE",
"550 193 OFFCURVE",
"585 262 OFFCURVE",
"624 347 CURVE SMOOTH",
"673 453 OFFCURVE",
"697 527 OFFCURVE",
"697 568 CURVE SMOOTH",
"697 586 OFFCURVE",
"693 598 OFFCURVE",
"684 605 CURVE SMOOTH",
"667 619 OFFCURVE",
"641 626 OFFCURVE",
"607 626 CURVE SMOOTH",
"518 626 OFFCURVE",
"411 589 OFFCURVE",
"286 514 CURVE SMOOTH",
"225 477 OFFCURVE",
"170 431 OFFCURVE",
"121 376 CURVE SMOOTH",
"83 334 OFFCURVE",
"57 298 OFFCURVE",
"44 268 CURVE SMOOTH",
"36 251 OFFCURVE",
"32 232 OFFCURVE",
"32 211 CURVE SMOOTH",
"32 155 OFFCURVE",
"61 127 OFFCURVE",
"118 127 CURVE SMOOTH",
"127 127 OFFCURVE",
"136 128 OFFCURVE",
"147 129 CURVE SMOOTH",
"247 144 OFFCURVE",
"340 174 OFFCURVE",
"427 219 CURVE SMOOTH",
"434 223 OFFCURVE",
"438 227 OFFCURVE",
"438 231 CURVE SMOOTH",
"438 234 OFFCURVE",
"436 236 OFFCURVE",
"431 236 CURVE SMOOTH",
"426 236 OFFCURVE",
"418 233 OFFCURVE",
"409 228 CURVE SMOOTH",
"386 214 OFFCURVE",
"346 198 OFFCURVE",
"287 179 CURVE SMOOTH",
"232 162 OFFCURVE",
"190 152 OFFCURVE",
"155 147 CURVE SMOOTH",
"148 146 OFFCURVE",
"141 145 OFFCURVE",
"134 145 CURVE SMOOTH",
"97 145 OFFCURVE",
"78 163 OFFCURVE",
"78 200 CURVE SMOOTH",
"78 213 OFFCURVE",
"80 228 OFFCURVE",
"85 247 CURVE SMOOTH",
"92 278 OFFCURVE",
"112 313 OFFCURVE",
"147 352 CURVE SMOOTH",
"190 402 OFFCURVE",
"246 449 OFFCURVE",
"315 492 CURVE SMOOTH",
"354 517 OFFCURVE",
"403 541 OFFCURVE",
"460 564 CURVE SMOOTH",
"530 591 OFFCURVE",
"583 605 OFFCURVE",
"620 605 CURVE SMOOTH",
"654 605 OFFCURVE",
"671 594 OFFCURVE",
"671 572 CURVE SMOOTH",
"671 528 OFFCURVE",
"608 395 OFFCURVE",
"482 172 CURVE SMOOTH",
"469 151 OFFCURVE",
"458 131 OFFCURVE",
"448 114 CURVE SMOOTH",
"438 97 OFFCURVE",
"429 81 OFFCURVE",
"420 68 CURVE",
"340 9 LINE SMOOTH",
"305 -17 OFFCURVE",
"260 -55 OFFCURVE",
"209 -107 CURVE SMOOTH",
"152 -165 OFFCURVE",
"107 -219 OFFCURVE",
"74 -269 CURVE SMOOTH",
"67 -278 OFFCURVE",
"64 -287 OFFCURVE",
"64 -296 CURVE SMOOTH",
"64 -313 OFFCURVE",
"74 -321 OFFCURVE",
"94 -321 CURVE SMOOTH"
);
},
{
closed = 1;
nodes = (
"117 -274 OFFCURVE",
"115 -271 OFFCURVE",
"115 -266 CURVE SMOOTH",
"115 -263 OFFCURVE",
"117 -258 OFFCURVE",
"120 -253 CURVE SMOOTH",
"150 -207 OFFCURVE",
"191 -158 OFFCURVE",
"242 -106 CURVE SMOOTH",
"286 -61 OFFCURVE",
"326 -26 OFFCURVE",
"361 -2 CURVE SMOOTH",
"380 11 LINE",
"303 -93 OFFCURVE",
"227 -180 OFFCURVE",
"150 -256 CURVE SMOOTH",
"138 -268 OFFCURVE",
"129 -274 OFFCURVE",
"122 -274 CURVE SMOOTH"
);
}
);
userData = {
assembly = "PUSHW[ ]	/* 1 value pushed */\01210 \012CALL[ ]	/* CallFunction */\012PUSHW[ ]	/* 4 values pushed */\01246 1070 69 14 \012CALL[ ]	/* CallFunction */\012PUSHW[ ]	/* 4 values pushed */\0122 1067 33 14 \012CALL[ ]	/* CallFunction */\012PUSHW[ ]	/* 1 value pushed */\0122 \012SRP0[ ]	/* SetRefPoint0 */\012PUSHW[ ]	/* 1 value pushed */\01211 \012MDRP[10000]	/* MoveDirectRelPt */\012PUSHW[ ]	/* 1 value pushed */\01211 \012MDAP[1]	/* MoveDirectAbsPt */\012PUSHW[ ]	/* 3 values pushed */\0127 69 11 \012SRP1[ ]	/* SetRefPoint1 */\012SRP2[ ]	/* SetRefPoint2 */\012IP[ ]	/* InterpolatePts */\012NPUSHW[ ]	/* 21 values pushed */\012105 33 121 33 137 33 153 33 169 33 185 33 201 33 217 33 233 33 249 33 10 \012DELTAP1[ ]	/* DeltaExceptionP1 */\012NPUSHW[ ]	/* 33 values pushed */\0129 33 25 33 41 33 57 33 73 33 89 33 105 33 121 33 137 33 153 33 169 33 185 33 201 33 217 33 233 33 249 33 16 \012DELTAP2[ ]	/* DeltaExceptionP2 */\012NPUSHW[ ]	/* 33 values pushed */\0129 33 25 33 41 33 57 33 73 33 89 33 105 33 121 33 137 33 153 33 169 33 185 33 201 33 217 33 233 33 249 33 16 \012DELTAP3[ ]	/* DeltaExceptionP3 */\012NPUSHW[ ]	/* 21 values pushed */\012102 46 118 46 134 46 150 46 166 46 182 46 198 46 214 46 230 46 246 46 10 \012DELTAP1[ ]	/* DeltaExceptionP1 */\012NPUSHW[ ]	/* 33 values pushed */\0126 46 22 46 38 46 54 46 70 46 86 46 102 46 118 46 134 46 150 46 166 46 182 46 198 46 214 46 230 46 246 46 16 \012DELTAP2[ ]	/* DeltaExceptionP2 */\012NPUSHW[ ]	/* 25 values pushed */\0126 46 22 46 38 46 54 46 70 46 86 46 102 46 118 46 134 46 150 46 166 46 182 46 12 \012DELTAP3[ ]	/* DeltaExceptionP3 */\012NPUSHW[ ]	/* 5 values pushed */\012197 46 213 46 2 \012DELTAP3[ ]	/* DeltaExceptionP3 */\012PUSHW[ ]	/* 3 values pushed */\01279 69 11 \012SRP1[ ]	/* SetRefPoint1 */\012SRP2[ ]	/* SetRefPoint2 */\012IP[ ]	/* InterpolatePts */\012PUSHW[ ]	/* 1 value pushed */\0122 \012SRP0[ ]	/* SetRefPoint0 */\012PUSHW[ ]	/* 1 value pushed */\01295 \012MDRP[11100]	/* MoveDirectRelPt */\012SVTCA[0]	/* SetFreedomAndProjectionVectorToAxis */\012PUSHW[ ]	/* 1 value pushed */\01219 \012MDAP[1]	/* MoveDirectAbsPt */\012PUSHW[ ]	/* 1 value pushed */\0120 \012MDAP[1]	/* MoveDirectAbsPt */\012PUSHW[ ]	/* 1 value pushed */\01235 \012MDAP[1]	/* MoveDirectAbsPt */\012PUSHW[ ]	/* 3 values pushed */\0127 19 0 \012SRP1[ ]	/* SetRefPoint1 */\012SRP2[ ]	/* SetRefPoint2 */\012IP[ ]	/* InterpolatePts */\012PUSHW[ ]	/* 3 values pushed */\01279 19 0 \012SRP1[ ]	/* SetRefPoint1 */\012SRP2[ ]	/* SetRefPoint2 */\012IP[ ]	/* InterpolatePts */\012IUP[0]	/* InterpolateUntPts */\012IUP[1]	/* InterpolateUntPts */";
};
width = 620;
}
);
leftKerningGroup = J;
note = J;
rightKerningGroup = J;
unicode = 004A;
},
{
color = 3;
glyphname = K;
lastChange = "2022-03-22 13:38:17 +0000";
layers = (
{
anchors = (
{
name = bottom;
position = "{553, 0}";
}
);
layerId = "16A236A6-57F5-4152-84D1-48D854BBAFA9";
paths = (
{
closed = 1;
nodes = (
"982 -168 OFFCURVE",
"1017 -157 OFFCURVE",
"1050 -136 CURVE SMOOTH",
"1084 -115 OFFCURVE",
"1109 -89 OFFCURVE",
"1118 -56 CURVE SMOOTH",
"1120 -49 LINE",
"1120 -44 OFFCURVE",
"1117 -45 OFFCURVE",
"1111 -51 CURVE SMOOTH",
"1104 -56 OFFCURVE",
"1099 -63 OFFCURVE",
"1096 -71 CURVE SMOOTH",
"1081 -110 OFFCURVE",
"1047 -130 OFFCURVE",
"996 -130 CURVE SMOOTH",
"976 -130 OFFCURVE",
"956 -127 OFFCURVE",
"935 -121 CURVE SMOOTH",
"885 -107 OFFCURVE",
"804 -31 OFFCURVE",
"694 111 CURVE SMOOTH",
"614 214 LINE",
"612 216 LINE",
"646 231 OFFCURVE",
"688 254 OFFCURVE",
"737 285 CURVE SMOOTH",
"786 316 OFFCURVE",
"871 382 OFFCURVE",
"994 483 CURVE SMOOTH",
"1105 574 OFFCURVE",
"1170 623 OFFCURVE",
"1188 630 CURVE SMOOTH",
"1199 634 OFFCURVE",
"1205 639 OFFCURVE",
"1205 646 CURVE SMOOTH",
"1205 652 OFFCURVE",
"1200 657 OFFCURVE",
"1189 657 CURVE SMOOTH",
"1179 657 OFFCURVE",
"1167 653 OFFCURVE",
"1154 645 CURVE SMOOTH",
"1132 630 OFFCURVE",
"1070 577 OFFCURVE",
"967 488 CURVE SMOOTH",
"867 400 OFFCURVE",
"787 338 OFFCURVE",
"727 301 CURVE SMOOTH",
"685 275 OFFCURVE",
"642 252 OFFCURVE",
"599 233 CURVE",
"576 264 LINE",
"675 409 OFFCURVE",
"724 506 OFFCURVE",
"724 556 CURVE SMOOTH",
"724 605 OFFCURVE",
"690 630 OFFCURVE",
"623 630 CURVE SMOOTH",
"542 630 OFFCURVE",
"433 591 OFFCURVE",
"296 514 CURVE SMOOTH",
"231 477 OFFCURVE",
"173 432 OFFCURVE",
"117 376 CURVE SMOOTH",
"74 334 OFFCURVE",
"45 298 OFFCURVE",
"28 268 CURVE SMOOTH",
"15 247 OFFCURVE",
"9 224 OFFCURVE",
"9 198 CURVE SMOOTH",
"9 151 OFFCURVE",
"35 127 OFFCURVE",
"87 127 CURVE SMOOTH",
"96 127 OFFCURVE",
"105 128 OFFCURVE",
"116 129 CURVE SMOOTH",
"163 136 OFFCURVE",
"207 146 OFFCURVE",
"246 164 CURVE SMOOTH",
"310 194 LINE SMOOTH",
"318 198 OFFCURVE",
"322 202 OFFCURVE",
"322 207 CURVE SMOOTH",
"322 210 OFFCURVE",
"320 211 OFFCURVE",
"315 211 CURVE SMOOTH",
"309 211 OFFCURVE",
"301 208 OFFCURVE",
"292 203 CURVE SMOOTH",
"269 190 OFFCURVE",
"240 178 OFFCURVE",
"201 165 CURVE SMOOTH",
"159 152 OFFCURVE",
"127 145 OFFCURVE",
"105 145 CURVE SMOOTH",
"70 145 OFFCURVE",
"53 160 OFFCURVE",
"53 191 CURVE SMOOTH",
"53 206 OFFCURVE",
"57 225 OFFCURVE",
"66 247 CURVE SMOOTH",
"77 277 OFFCURVE",
"101 312 OFFCURVE",
"139 352 CURVE SMOOTH",
"188 403 OFFCURVE",
"249 449 OFFCURVE",
"322 492 CURVE SMOOTH",
"456 570 OFFCURVE",
"559 609 OFFCURVE",
"631 609 CURVE SMOOTH",
"671 609 OFFCURVE",
"691 596 OFFCURVE",
"691 570 CURVE SMOOTH",
"691 529 OFFCURVE",
"644 438 OFFCURVE",
"549 297 CURVE",
"520 333 OFFCURVE",
"495 351 OFFCURVE",
"474 351 CURVE SMOOTH",
"458 351 OFFCURVE",
"444 339 OFFCURVE",
"433 316 CURVE SMOOTH",
"424 298 OFFCURVE",
"420 279 OFFCURVE",
"420 260 CURVE SMOOTH",
"420 217 OFFCURVE",
"438 192 OFFCURVE",
"473 185 CURVE",
"378 43 OFFCURVE",
"295 -62 OFFCURVE",
"226 -129 CURVE",
"217 -136 OFFCURVE",
"210 -140 OFFCURVE",
"205 -140 CURVE SMOOTH",
"202 -140 OFFCURVE",
"198 -139 OFFCURVE",
"193 -136 CURVE SMOOTH",
"188 -133 OFFCURVE",
"185 -131 OFFCURVE",
"183 -131 CURVE SMOOTH",
"176 -131 OFFCURVE",
"172 -135 OFFCURVE",
"172 -142 CURVE SMOOTH",
"172 -153 OFFCURVE",
"190 -165 OFFCURVE",
"213 -165 CURVE SMOOTH",
"234 -165 OFFCURVE",
"252 -157 OFFCURVE",
"269 -140 CURVE SMOOTH",
"324 -86 OFFCURVE",
"408 22 OFFCURVE",
"522 185 CURVE",
"545 190 OFFCURVE",
"567 196 OFFCURVE",
"590 207 CURVE",
"649 119 LINE",
"778 -57 OFFCURVE",
"864 -151 OFFCURVE",
"907 -163 CURVE SMOOTH",
"920 -166 OFFCURVE",
"932 -168 OFFCURVE",
"947 -168 CURVE SMOOTH"
);
},
{
closed = 1;
nodes = (
"469 219 OFFCURVE",
"459 237 OFFCURVE",
"459 262 CURVE SMOOTH",
"459 287 OFFCURVE",
"471 308 OFFCURVE",
"488 308 CURVE SMOOTH",
"495 308 OFFCURVE",
"502 304 OFFCURVE",
"509 297 CURVE",
"517 293 OFFCURVE",
"526 286 OFFCURVE",
"535 277 CURVE",
"492 212 LINE SMOOTH",
"491 211 OFFCURVE",
"490 210 OFFCURVE",
"490 209 CURVE"
);
},
{
closed = 1;
nodes = (
"563 245 LINE",
"578 224 LINE",
"564 217 OFFCURVE",
"551 212 OFFCURVE",
"538 209 CURVE"
);
}
);
userData = {
assembly = "PUSHW[ ]	/* 1 value pushed */\01210 \012CALL[ ]	/* CallFunction */\012PUSHW[ ]	/* 4 values pushed */\01268 1070 90 14 \012CALL[ ]	/* CallFunction */\012PUSHW[ ]	/* 4 values pushed */\012128 1070 50 14 \012CALL[ ]	/* CallFunction */\012PUSHW[ ]	/* 4 values pushed */\012101 1068 58 14 \012CALL[ ]	/* CallFunction */\012PUSHW[ ]	/* 3 values pushed */\01248 90 101 \012SRP1[ ]	/* SetRefPoint1 */\012SRP2[ ]	/* SetRefPoint2 */\012IP[ ]	/* InterpolatePts */\012PUSHW[ ]	/* 3 values pushed */\01256 90 101 \012SRP1[ ]	/* SetRefPoint1 */\012SRP2[ ]	/* SetRefPoint2 */\012IP[ ]	/* InterpolatePts */\012NPUSHW[ ]	/* 5 values pushed */\012202 58 218 58 2 \012DELTAP3[ ]	/* DeltaExceptionP3 */\012NPUSHW[ ]	/* 21 values pushed */\012105 58 121 58 137 58 153 58 169 58 185 58 201 58 217 58 233 58 249 58 10 \012DELTAP1[ ]	/* DeltaExceptionP1 */\012NPUSHW[ ]	/* 33 values pushed */\0129 58 25 58 41 58 57 58 73 58 89 58 105 58 121 58 137 58 153 58 169 58 185 58 201 58 217 58 233 58 249 58 16 \012DELTAP2[ ]	/* DeltaExceptionP2 */\012NPUSHW[ ]	/* 25 values pushed */\0129 58 25 58 41 58 57 58 73 58 89 58 105 58 121 58 137 58 153 58 169 58 185 58 12 \012DELTAP3[ ]	/* DeltaExceptionP3 */\012NPUSHW[ ]	/* 21 values pushed */\012102 68 118 68 134 68 150 68 166 68 182 68 198 68 214 68 230 68 246 68 10 \012DELTAP1[ ]	/* DeltaExceptionP1 */\012NPUSHW[ ]	/* 33 values pushed */\0126 68 22 68 38 68 54 68 70 68 86 68 102 68 118 68 134 68 150 68 166 68 182 68 198 68 214 68 230 68 246 68 16 \012DELTAP2[ ]	/* DeltaExceptionP2 */\012NPUSHW[ ]	/* 25 values pushed */\0126 68 22 68 38 68 54 68 70 68 86 68 102 68 118 68 134 68 150 68 166 68 182 68 12 \012DELTAP3[ ]	/* DeltaExceptionP3 */\012NPUSHW[ ]	/* 5 values pushed */\012197 68 213 68 2 \012DELTAP3[ ]	/* DeltaExceptionP3 */\012PUSHW[ ]	/* 3 values pushed */\012118 90 101 \012SRP1[ ]	/* SetRefPoint1 */\012SRP2[ ]	/* SetRefPoint2 */\012IP[ ]	/* InterpolatePts */\012PUSHW[ ]	/* 3 values pushed */\012119 90 101 \012SRP1[ ]	/* SetRefPoint1 */\012SRP2[ ]	/* SetRefPoint2 */\012IP[ ]	/* InterpolatePts */\012NPUSHW[ ]	/* 21 values pushed */\012102 128 118 128 134 128 150 128 166 128 182 128 198 128 214 128 230 128 246 128 10 \012DELTAP1[ ]	/* DeltaExceptionP1 */\012NPUSHW[ ]	/* 33 values pushed */\0126 128 22 128 38 128 54 128 70 128 86 128 102 128 118 128 134 128 150 128 166 128 182 128 198 128 214 128 230 128 246 128 16 \012DELTAP2[ ]	/* DeltaExceptionP2 */\012NPUSHW[ ]	/* 25 values pushed */\0126 128 22 128 38 128 54 128 70 128 86 128 102 128 118 128 134 128 150 128 166 128 182 128 12 \012DELTAP3[ ]	/* DeltaExceptionP3 */\012NPUSHW[ ]	/* 5 values pushed */\012197 128 213 128 2 \012DELTAP3[ ]	/* DeltaExceptionP3 */\012PUSHW[ ]	/* 1 value pushed */\012101 \012SRP0[ ]	/* SetRefPoint0 */\012PUSHW[ ]	/* 1 value pushed */\012134 \012MDRP[11100]	/* MoveDirectRelPt */\012SVTCA[0]	/* SetFreedomAndProjectionVectorToAxis */\012PUSHW[ ]	/* 1 value pushed */\01223 \012MDAP[1]	/* MoveDirectAbsPt */\012PUSHW[ ]	/* 1 value pushed */\01226 \012MDAP[1]	/* MoveDirectAbsPt */\012PUSHW[ ]	/* 1 value pushed */\01236 \012MDAP[1]	/* MoveDirectAbsPt */\012PUSHW[ ]	/* 1 value pushed */\01260 \012MDAP[1]	/* MoveDirectAbsPt */\012PUSHW[ ]	/* 1 value pushed */\01236 \012SRP0[ ]	/* SetRefPoint0 */\012PUSHW[ ]	/* 2 values pushed */\01212 1064 \012MIRP[10100]	/* MoveIndirectRelPt */\012PUSHW[ ]	/* 1 value pushed */\01241 \012MDRP[10000]	/* MoveDirectRelPt */\012PUSHW[ ]	/* 1 value pushed */\01241 \012MDAP[1]	/* MoveDirectAbsPt */\012PUSHW[ ]	/* 3 values pushed */\01248 23 60 \012SRP1[ ]	/* SetRefPoint1 */\012SRP2[ ]	/* SetRefPoint2 */\012IP[ ]	/* InterpolatePts */\012PUSHW[ ]	/* 3 values pushed */\01256 23 60 \012SRP1[ ]	/* SetRefPoint1 */\012SRP2[ ]	/* SetRefPoint2 */\012IP[ ]	/* InterpolatePts */\012PUSHW[ ]	/* 3 values pushed */\012118 23 60 \012SRP1[ ]	/* SetRefPoint1 */\012SRP2[ ]	/* SetRefPoint2 */\012IP[ ]	/* InterpolatePts */\012PUSHW[ ]	/* 3 values pushed */\012119 23 60 \012SRP1[ ]	/* SetRefPoint1 */\012SRP2[ ]	/* SetRefPoint2 */\012IP[ ]	/* InterpolatePts */\012IUP[0]	/* InterpolateUntPts */\012IUP[1]	/* InterpolateUntPts */";
};
width = 825;
}
);
leftKerningGroup = K;
note = K;
rightKerningGroup = K;
unicode = 004B;
},
{
color = 3;
glyphname = L;
lastChange = "2022-03-22 13:38:22 +0000";
layers = (
{
anchors = (
{
name = bottom;
position = "{261, 0}";
},
{
name = top;
position = "{814, 621}";
},
{
name = topright;
position = "{841, 620}";
}
);
layerId = "16A236A6-57F5-4152-84D1-48D854BBAFA9";
paths = (
{
closed = 1;
nodes = (
"802 -163 OFFCURVE",
"838 -149 OFFCURVE",
"867 -120 CURVE SMOOTH",
"896 -91 OFFCURVE",
"911 -56 OFFCURVE",
"911 -16 CURVE SMOOTH",
"911 -10 OFFCURVE",
"910 -7 OFFCURVE",
"908 -7 CURVE SMOOTH",
"900 -7 OFFCURVE",
"896 -17 OFFCURVE",
"896 -36 CURVE SMOOTH",
"896 -65 OFFCURVE",
"882 -88 OFFCURVE",
"853 -104 CURVE SMOOTH",
"828 -117 OFFCURVE",
"796 -124 OFFCURVE",
"759 -124 CURVE SMOOTH",
"647 -124 OFFCURVE",
"535 -89 OFFCURVE",
"427 -17 CURVE SMOOTH",
"291 73 LINE",
"309 95 OFFCURVE",
"328 125 OFFCURVE",
"349 164 CURVE SMOOTH",
"396 251 OFFCURVE",
"447 329 OFFCURVE",
"504 398 CURVE SMOOTH",
"581 493 OFFCURVE",
"645 540 OFFCURVE",
"697 540 CURVE SMOOTH",
"727 540 OFFCURVE",
"754 529 OFFCURVE",
"779 508 CURVE SMOOTH",
"804 487 OFFCURVE",
"816 464 OFFCURVE",
"817 441 CURVE SMOOTH",
"818 428 OFFCURVE",
"822 421 OFFCURVE",
"827 421 CURVE SMOOTH",
"830 421 OFFCURVE",
"831 424 OFFCURVE",
"831 430 CURVE SMOOTH",
"831 434 LINE SMOOTH",
"831 467 OFFCURVE",
"817 498 OFFCURVE",
"796 529 CURVE SMOOTH",
"771 564 OFFCURVE",
"741 582 OFFCURVE",
"707 582 CURVE SMOOTH",
"648 582 OFFCURVE",
"585 543 OFFCURVE",
"518 464 CURVE SMOOTH",
"466 403 OFFCURVE",
"406 312 OFFCURVE",
"338 191 CURVE SMOOTH",
"313 146 OFFCURVE",
"290 111 OFFCURVE",
"269 87 CURVE",
"158 162 OFFCURVE",
"88 200 OFFCURVE",
"61 200 CURVE SMOOTH",
"33 200 OFFCURVE",
"19 183 OFFCURVE",
"19 148 CURVE SMOOTH",
"19 115 OFFCURVE",
"32 82 OFFCURVE",
"57 49 CURVE SMOOTH",
"84 12 OFFCURVE",
"116 -6 OFFCURVE",
"154 -6 CURVE SMOOTH",
"193 -6 OFFCURVE",
"230 11 OFFCURVE",
"265 44 CURVE",
"405 -48 LINE SMOOTH",
"522 -125 OFFCURVE",
"640 -163 OFFCURVE",
"759 -163 CURVE SMOOTH"
);
},
{
closed = 1;
nodes = (
"127 22 OFFCURVE",
"103 31 OFFCURVE",
"82 49 CURVE SMOOTH",
"59 70 OFFCURVE",
"48 91 OFFCURVE",
"48 112 CURVE SMOOTH",
"48 133 OFFCURVE",
"57 144 OFFCURVE",
"75 144 CURVE SMOOTH",
"98 144 OFFCURVE",
"154 116 OFFCURVE",
"241 59 CURVE",
"213 34 OFFCURVE",
"184 22 OFFCURVE",
"154 22 CURVE SMOOTH"
);
}
);
userData = {
assembly = "PUSHW[ ]	/* 1 value pushed */\01210 \012CALL[ ]	/* CallFunction */\012PUSHW[ ]	/* 4 values pushed */\01256 1065 13 14 \012CALL[ ]	/* CallFunction */\012NPUSHW[ ]	/* 21 values pushed */\012102 56 118 56 134 56 150 56 166 56 182 56 198 56 214 56 230 56 246 56 10 \012DELTAP1[ ]	/* DeltaExceptionP1 */\012NPUSHW[ ]	/* 33 values pushed */\0126 56 22 56 38 56 54 56 70 56 86 56 102 56 118 56 134 56 150 56 166 56 182 56 198 56 214 56 230 56 246 56 16 \012DELTAP2[ ]	/* DeltaExceptionP2 */\012NPUSHW[ ]	/* 25 values pushed */\0126 56 22 56 38 56 54 56 70 56 86 56 102 56 118 56 134 56 150 56 166 56 182 56 12 \012DELTAP3[ ]	/* DeltaExceptionP3 */\012NPUSHW[ ]	/* 5 values pushed */\012197 56 213 56 2 \012DELTAP3[ ]	/* DeltaExceptionP3 */\012SVTCA[0]	/* SetFreedomAndProjectionVectorToAxis */\012PUSHW[ ]	/* 1 value pushed */\0121060 \012RCVT[ ]	/* ReadCVT */\012IF[ ]	/* If */\012PUSHW[ ]	/* 1 value pushed */\0129 \012MDAP[1]	/* MoveDirectAbsPt */\012ELSE[ ]	/* Else */\012PUSHW[ ]	/* 2 values pushed */\0129 1071 \012MIAP[0]	/* MoveIndirectAbsPt */\012EIF[ ]	/* EndIf */\012PUSHW[ ]	/* 1 value pushed */\0121060 \012RCVT[ ]	/* ReadCVT */\012IF[ ]	/* If */\012PUSHW[ ]	/* 1 value pushed */\01250 \012MDAP[1]	/* MoveDirectAbsPt */\012ELSE[ ]	/* Else */\012PUSHW[ ]	/* 2 values pushed */\01250 1071 \012MIAP[0]	/* MoveIndirectAbsPt */\012EIF[ ]	/* EndIf */\012PUSHW[ ]	/* 4 values pushed */\01244 1064 4 14 \012CALL[ ]	/* CallFunction */\012PUSHW[ ]	/* 4 values pushed */\01223 1064 35 14 \012CALL[ ]	/* CallFunction */\012PUSHW[ ]	/* 4 values pushed */\01215 1064 54 14 \012CALL[ ]	/* CallFunction */\012PUSHW[ ]	/* 1 value pushed */\0129 \012SRP0[ ]	/* SetRefPoint0 */\012PUSHW[ ]	/* 2 values pushed */\01260 1064 \012MIRP[10100]	/* MoveIndirectRelPt */\012NPUSHW[ ]	/* 21 values pushed */\012103 60 119 60 135 60 151 60 167 60 183 60 199 60 215 60 231 60 247 60 10 \012DELTAP1[ ]	/* DeltaExceptionP1 */\012NPUSHW[ ]	/* 33 values pushed */\0127 60 23 60 39 60 55 60 71 60 87 60 103 60 119 60 135 60 151 60 167 60 183 60 199 60 215 60 231 60 247 60 16 \012DELTAP2[ ]	/* DeltaExceptionP2 */\012NPUSHW[ ]	/* 25 values pushed */\0127 60 23 60 39 60 55 60 71 60 87 60 103 60 119 60 135 60 151 60 167 60 183 60 12 \012DELTAP3[ ]	/* DeltaExceptionP3 */\012NPUSHW[ ]	/* 5 values pushed */\012198 60 214 60 2 \012DELTAP3[ ]	/* DeltaExceptionP3 */\012IUP[0]	/* InterpolateUntPts */\012IUP[1]	/* InterpolateUntPts */";
};
width = 461;
}
);
leftKerningGroup = L;
note = L;
rightKerningGroup = L;
unicode = 004C;
},
{
color = 3;
glyphname = Ldot;
lastChange = "2022-03-22 12:49:56 +0000";
layers = (
{
layerId = "16A236A6-57F5-4152-84D1-48D854BBAFA9";
paths = (
{
closed = 1;
nodes = (
"802 -163 OFFCURVE",
"838 -149 OFFCURVE",
"867 -120 CURVE SMOOTH",
"896 -91 OFFCURVE",
"911 -56 OFFCURVE",
"911 -16 CURVE SMOOTH",
"911 -10 OFFCURVE",
"910 -7 OFFCURVE",
"908 -7 CURVE SMOOTH",
"900 -7 OFFCURVE",
"896 -17 OFFCURVE",
"896 -36 CURVE SMOOTH",
"896 -65 OFFCURVE",
"882 -88 OFFCURVE",
"853 -104 CURVE SMOOTH",
"828 -117 OFFCURVE",
"796 -124 OFFCURVE",
"759 -124 CURVE SMOOTH",
"647 -124 OFFCURVE",
"535 -89 OFFCURVE",
"427 -17 CURVE SMOOTH",
"291 73 LINE",
"309 95 OFFCURVE",
"328 125 OFFCURVE",
"349 164 CURVE SMOOTH",
"396 251 OFFCURVE",
"447 329 OFFCURVE",
"504 398 CURVE SMOOTH",
"581 493 OFFCURVE",
"645 540 OFFCURVE",
"697 540 CURVE SMOOTH",
"727 540 OFFCURVE",
"754 529 OFFCURVE",
"779 508 CURVE SMOOTH",
"804 487 OFFCURVE",
"816 464 OFFCURVE",
"817 441 CURVE SMOOTH",
"818 428 OFFCURVE",
"822 421 OFFCURVE",
"827 421 CURVE SMOOTH",
"830 421 OFFCURVE",
"831 424 OFFCURVE",
"831 430 CURVE SMOOTH",
"831 434 LINE SMOOTH",
"831 467 OFFCURVE",
"817 498 OFFCURVE",
"796 529 CURVE SMOOTH",
"771 564 OFFCURVE",
"741 582 OFFCURVE",
"707 582 CURVE SMOOTH",
"648 582 OFFCURVE",
"585 543 OFFCURVE",
"518 464 CURVE SMOOTH",
"466 403 OFFCURVE",
"406 312 OFFCURVE",
"338 191 CURVE SMOOTH",
"313 146 OFFCURVE",
"290 111 OFFCURVE",
"269 87 CURVE",
"158 162 OFFCURVE",
"88 200 OFFCURVE",
"61 200 CURVE SMOOTH",
"33 200 OFFCURVE",
"19 183 OFFCURVE",
"19 148 CURVE SMOOTH",
"19 115 OFFCURVE",
"32 82 OFFCURVE",
"57 49 CURVE SMOOTH",
"84 12 OFFCURVE",
"116 -6 OFFCURVE",
"154 -6 CURVE SMOOTH",
"193 -6 OFFCURVE",
"230 11 OFFCURVE",
"265 44 CURVE",
"405 -48 LINE SMOOTH",
"522 -125 OFFCURVE",
"640 -163 OFFCURVE",
"759 -163 CURVE SMOOTH"
);
},
{
closed = 1;
nodes = (
"127 22 OFFCURVE",
"103 31 OFFCURVE",
"82 49 CURVE SMOOTH",
"59 70 OFFCURVE",
"48 91 OFFCURVE",
"48 112 CURVE SMOOTH",
"48 133 OFFCURVE",
"57 144 OFFCURVE",
"75 144 CURVE SMOOTH",
"98 144 OFFCURVE",
"154 116 OFFCURVE",
"241 59 CURVE",
"213 34 OFFCURVE",
"184 22 OFFCURVE",
"154 22 CURVE SMOOTH"
);
},
{
closed = 1;
nodes = (
"660 261 OFFCURVE",
"664 274 OFFCURVE",
"679 299 CURVE SMOOTH",
"684 308 OFFCURVE",
"686 315 OFFCURVE",
"686 320 CURVE SMOOTH",
"686 327 OFFCURVE",
"682 330 OFFCURVE",
"674 330 CURVE SMOOTH",
"662 330 OFFCURVE",
"651 326 OFFCURVE",
"640 317 CURVE",
"633 309 OFFCURVE",
"626 302 OFFCURVE",
"621 295 CURVE SMOOTH",
"615 288 OFFCURVE",
"610 281 OFFCURVE",
"605 276 CURVE SMOOTH",
"597 266 OFFCURVE",
"605 261 OFFCURVE",
"628 261 CURVE SMOOTH"
);
}
);
width = 461;
}
);
leftKerningGroup = L;
rightKerningGroup = L;
unicode = 013F;
},
{
glyphname = Lslash;
lastChange = "2022-03-22 09:18:49 +0000";
layers = (
{
layerId = "16A236A6-57F5-4152-84D1-48D854BBAFA9";
paths = (
{
closed = 1;
nodes = (
"802 -163 OFFCURVE",
"838 -149 OFFCURVE",
"867 -120 CURVE SMOOTH",
"896 -91 OFFCURVE",
"911 -56 OFFCURVE",
"911 -16 CURVE SMOOTH",
"911 -10 OFFCURVE",
"910 -7 OFFCURVE",
"908 -7 CURVE SMOOTH",
"900 -7 OFFCURVE",
"896 -17 OFFCURVE",
"896 -36 CURVE SMOOTH",
"896 -65 OFFCURVE",
"882 -88 OFFCURVE",
"853 -104 CURVE SMOOTH",
"828 -117 OFFCURVE",
"796 -124 OFFCURVE",
"759 -124 CURVE SMOOTH",
"647 -124 OFFCURVE",
"536 -88 OFFCURVE",
"427 -17 CURVE SMOOTH",
"291 73 LINE",
"309 95 OFFCURVE",
"328 125 OFFCURVE",
"349 164 CURVE SMOOTH",
"396 251 OFFCURVE",
"447 329 OFFCURVE",
"504 398 CURVE SMOOTH",
"581 493 OFFCURVE",
"645 540 OFFCURVE",
"697 540 CURVE SMOOTH",
"727 540 OFFCURVE",
"754 529 OFFCURVE",
"779 508 CURVE SMOOTH",
"804 487 OFFCURVE",
"816 464 OFFCURVE",
"817 441 CURVE SMOOTH",
"818 428 OFFCURVE",
"822 421 OFFCURVE",
"827 421 CURVE SMOOTH",
"830 421 OFFCURVE",
"831 424 OFFCURVE",
"831 430 CURVE SMOOTH",
"831 434 LINE SMOOTH",
"829 467 OFFCURVE",
"817 498 OFFCURVE",
"796 529 CURVE SMOOTH",
"771 564 OFFCURVE",
"741 582 OFFCURVE",
"707 582 CURVE SMOOTH",
"648 582 OFFCURVE",
"585 543 OFFCURVE",
"518 464 CURVE SMOOTH",
"466 403 OFFCURVE",
"406 312 OFFCURVE",
"338 191 CURVE SMOOTH",
"313 146 OFFCURVE",
"290 111 OFFCURVE",
"269 87 CURVE",
"158 162 OFFCURVE",
"88 200 OFFCURVE",
"61 200 CURVE SMOOTH",
"33 200 OFFCURVE",
"19 183 OFFCURVE",
"19 148 CURVE SMOOTH",
"19 115 OFFCURVE",
"32 82 OFFCURVE",
"57 49 CURVE SMOOTH",
"84 12 OFFCURVE",
"116 -6 OFFCURVE",
"154 -6 CURVE SMOOTH",
"193 -6 OFFCURVE",
"230 11 OFFCURVE",
"265 44 CURVE",
"405 -48 LINE SMOOTH",
"522 -125 OFFCURVE",
"640 -163 OFFCURVE",
"759 -163 CURVE SMOOTH"
);
},
{
closed = 1;
nodes = (
"127 22 OFFCURVE",
"103 31 OFFCURVE",
"82 49 CURVE SMOOTH",
"59 70 OFFCURVE",
"48 91 OFFCURVE",
"48 112 CURVE SMOOTH",
"48 133 OFFCURVE",
"57 144 OFFCURVE",
"75 144 CURVE SMOOTH",
"98 144 OFFCURVE",
"154 116 OFFCURVE",
"241 59 CURVE",
"213 34 OFFCURVE",
"184 22 OFFCURVE",
"154 22 CURVE SMOOTH"
);
},
{
closed = 1;
nodes = (
"318.359 180.578 OFFCURVE",
"385.053 194.179 OFFCURVE",
"457.311 204.61 CURVE",
"466.356 205.031 OFFCURVE",
"473.27 206.126 OFFCURVE",
"478.209 206.908 CURVE SMOOTH",
"489.073 208.629 LINE SMOOTH",
"495.987 209.724 OFFCURVE",
"499.625 212.325 OFFCURVE",
"498.843 217.263 CURVE SMOOTH",
"498.374 220.226 OFFCURVE",
"494.941 222.72 OFFCURVE",
"488.859 222.769 CURVE SMOOTH",
"460.578 222.34 LINE SMOOTH",
"425.226 221.803 OFFCURVE",
"385.249 218.509 OFFCURVE",
"341.791 211.626 CURVE SMOOTH",
"316.111 207.559 OFFCURVE",
"289.6 202.348 OFFCURVE",
"261.27 195.836 CURVE",
"248.019 183.612 OFFCURVE",
"241.682 172.484 OFFCURVE",
"243.089 163.595 CURVE SMOOTH",
"243.715 159.644 OFFCURVE",
"246.991 158.138 OFFCURVE",
"252.917 159.077 CURVE"
);
}
);
width = 461;
}
);
leftKerningGroup = L;
rightKerningGroup = L;
unicode = 0141;
},
{
glyphname = M;
lastChange = "2022-03-18 06:00:18 +0000";
layers = (
{
layerId = "16A236A6-57F5-4152-84D1-48D854BBAFA9";
paths = (
{
closed = 1;
nodes = (
"990 -79 OFFCURVE",
"1036 -46 OFFCURVE",
"1099 21 CURVE SMOOTH",
"1106 28 OFFCURVE",
"1109 35 OFFCURVE",
"1109 42 CURVE SMOOTH",
"1109 47 OFFCURVE",
"1107 49 OFFCURVE",
"1104 49 CURVE SMOOTH",
"1101 49 OFFCURVE",
"1098 47 OFFCURVE",
"1094 43 CURVE SMOOTH",
"1074 23 OFFCURVE",
"1051 4 OFFCURVE",
"1024 -14 CURVE SMOOTH",
"989 -38 OFFCURVE",
"963 -50 OFFCURVE",
"947 -50 CURVE SMOOTH",
"937 -50 OFFCURVE",
"931 -44 OFFCURVE",
"931 -33 CURVE SMOOTH",
"931 -31 OFFCURVE",
"932 -28 OFFCURVE",
"932 -25 CURVE",
"946 50 OFFCURVE",
"982 129 OFFCURVE",
"1039 214 CURVE",
"1186 415 LINE SMOOTH",
"1192 424 OFFCURVE",
"1195 434 OFFCURVE",
"1195 445 CURVE SMOOTH",
"1195 479 OFFCURVE",
"1166 515 OFFCURVE",
"1134 515 CURVE SMOOTH",
"1089 515 OFFCURVE",
"1033 492 OFFCURVE",
"968 445 CURVE SMOOTH",
"852 364 OFFCURVE",
"734 266 OFFCURVE",
"606 149 CURVE",
"653 238 OFFCURVE",
"682 301 OFFCURVE",
"697 340 CURVE SMOOTH",
"709 372 OFFCURVE",
"715 398 OFFCURVE",
"715 418 CURVE SMOOTH",
"715 451 OFFCURVE",
"700 467 OFFCURVE",
"670 467 CURVE SMOOTH",
"631 467 OFFCURVE",
"580 442 OFFCURVE",
"515 397 CURVE",
"522 411 LINE SMOOTH",
"545 460 OFFCURVE",
"557 504 OFFCURVE",
"557 544 CURVE SMOOTH",
"557 605 OFFCURVE",
"521 628 OFFCURVE",
"464 628 CURVE SMOOTH",
"392 628 OFFCURVE",
"303 594 OFFCURVE",
"196 525 CURVE SMOOTH",
"165 505 OFFCURVE",
"129 475 OFFCURVE",
"86 436 CURVE SMOOTH",
"41 393 OFFCURVE",
"15 362 OFFCURVE",
"8 344 CURVE SMOOTH",
"6 339 OFFCURVE",
"5 333 OFFCURVE",
"5 328 CURVE SMOOTH",
"5 296 OFFCURVE",
"43 273 OFFCURVE",
"95 273 CURVE SMOOTH",
"110 273 OFFCURVE",
"118 276 OFFCURVE",
"118 284 CURVE SMOOTH",
"118 288 OFFCURVE",
"115 290 OFFCURVE",
"109 290 CURVE SMOOTH",
"104 290 LINE SMOOTH",
"65 288 OFFCURVE",
"45 297 OFFCURVE",
"45 316 CURVE SMOOTH",
"45 333 OFFCURVE",
"71 366 OFFCURVE",
"122 416 CURVE SMOOTH",
"165 459 OFFCURVE",
"200 489 OFFCURVE",
"225 506 CURVE SMOOTH",
"260 529 OFFCURVE",
"299 551 OFFCURVE",
"343 571 CURVE SMOOTH",
"400 596 OFFCURVE",
"444 609 OFFCURVE",
"475 609 CURVE SMOOTH",
"510 609 OFFCURVE",
"527 595 OFFCURVE",
"527 568 CURVE SMOOTH",
"527 550 OFFCURVE",
"521 525 OFFCURVE",
"508 494 CURVE SMOOTH",
"480 430 LINE SMOOTH",
"467 397 OFFCURVE",
"452 366 OFFCURVE",
"433 335 CURVE",
"367 281 LINE SMOOTH",
"336 257 OFFCURVE",
"300 222 OFFCURVE",
"259 175 CURVE SMOOTH",
"212 121 OFFCURVE",
"177 72 OFFCURVE",
"152 28 CURVE SMOOTH",
"148 21 OFFCURVE",
"146 13 OFFCURVE",
"146 6 CURVE SMOOTH",
"146 -11 OFFCURVE",
"155 -19 OFFCURVE",
"174 -19 CURVE SMOOTH",
"197 -19 OFFCURVE",
"223 -4 OFFCURVE",
"252 26 CURVE SMOOTH",
"341 119 OFFCURVE",
"421 228 OFFCURVE",
"492 355 CURVE",
"558 405 OFFCURVE",
"613 434 OFFCURVE",
"658 441 CURVE SMOOTH",
"669 442 OFFCURVE",
"675 437 OFFCURVE",
"675 425 CURVE SMOOTH",
"675 410 OFFCURVE",
"668 387 OFFCURVE",
"653 357 CURVE SMOOTH",
"598 241 OFFCURVE",
"543 137 OFFCURVE",
"489 46 CURVE",
"488 43 OFFCURVE",
"487 41 OFFCURVE",
"487 40 CURVE SMOOTH",
"487 31 OFFCURVE",
"495 26 OFFCURVE",
"511 26 CURVE SMOOTH",
"521 26 OFFCURVE",
"529 29 OFFCURVE",
"534 35 CURVE SMOOTH",
"638 155 OFFCURVE",
"782 281 OFFCURVE",
"974 417 CURVE SMOOTH",
"1043 466 OFFCURVE",
"1097 492 OFFCURVE",
"1136 492 CURVE SMOOTH",
"1149 492 OFFCURVE",
"1156 484 OFFCURVE",
"1156 468 CURVE SMOOTH",
"1156 462 OFFCURVE",
"1155 457 OFFCURVE",
"1152 452 CURVE",
"1080 360 OFFCURVE",
"1021 277 OFFCURVE",
"974 197 CURVE SMOOTH",
"917 101 OFFCURVE",
"888 31 OFFCURVE",
"887 -14 CURVE SMOOTH",
"887 -25 OFFCURVE",
"895 -39 OFFCURVE",
"912 -55 CURVE SMOOTH",
"929 -71 OFFCURVE",
"945 -79 OFFCURVE",
"961 -79 CURVE SMOOTH"
);
},
{
closed = 1;
nodes = (
"190 24 OFFCURVE",
"188 27 OFFCURVE",
"188 32 CURVE SMOOTH",
"188 35 OFFCURVE",
"189 39 OFFCURVE",
"191 43 CURVE SMOOTH",
"214 84 OFFCURVE",
"243 124 OFFCURVE",
"278 165 CURVE",
"335 222 OFFCURVE",
"377 260 OFFCURVE",
"404 281 CURVE",
"350 192 OFFCURVE",
"289 111 OFFCURVE",
"220 40 CURVE SMOOTH",
"210 29 OFFCURVE",
"202 24 OFFCURVE",
"195 24 CURVE SMOOTH"
);
}
);
userData = {
assembly = "PUSHW[ ]	/* 1 value pushed */\01210 \012CALL[ ]	/* CallFunction */\012PUSHW[ ]	/* 4 values pushed */\01280 1070 89 14 \012CALL[ ]	/* CallFunction */\012PUSHW[ ]	/* 4 values pushed */\012100 1065 68 14 \012CALL[ ]	/* CallFunction */\012PUSHW[ ]	/* 4 values pushed */\012107 1070 45 14 \012CALL[ ]	/* CallFunction */\012NPUSHW[ ]	/* 5 values pushed */\012202 45 218 45 2 \012DELTAP3[ ]	/* DeltaExceptionP3 */\012NPUSHW[ ]	/* 21 values pushed */\012105 45 121 45 137 45 153 45 169 45 185 45 201 45 217 45 233 45 249 45 10 \012DELTAP1[ ]	/* DeltaExceptionP1 */\012NPUSHW[ ]	/* 33 values pushed */\0129 45 25 45 41 45 57 45 73 45 89 45 105 45 121 45 137 45 153 45 169 45 185 45 201 45 217 45 233 45 249 45 16 \012DELTAP2[ ]	/* DeltaExceptionP2 */\012NPUSHW[ ]	/* 25 values pushed */\0129 45 25 45 41 45 57 45 73 45 89 45 105 45 121 45 137 45 153 45 169 45 185 45 12 \012DELTAP3[ ]	/* DeltaExceptionP3 */\012NPUSHW[ ]	/* 21 values pushed */\012102 80 118 80 134 80 150 80 166 80 182 80 198 80 214 80 230 80 246 80 10 \012DELTAP1[ ]	/* DeltaExceptionP1 */\012NPUSHW[ ]	/* 33 values pushed */\0126 80 22 80 38 80 54 80 70 80 86 80 102 80 118 80 134 80 150 80 166 80 182 80 198 80 214 80 230 80 246 80 16 \012DELTAP2[ ]	/* DeltaExceptionP2 */\012NPUSHW[ ]	/* 25 values pushed */\0126 80 22 80 38 80 54 80 70 80 86 80 102 80 118 80 134 80 150 80 166 80 182 80 12 \012DELTAP3[ ]	/* DeltaExceptionP3 */\012NPUSHW[ ]	/* 5 values pushed */\012197 80 213 80 2 \012DELTAP3[ ]	/* DeltaExceptionP3 */\012NPUSHW[ ]	/* 21 values pushed */\012102 100 118 100 134 100 150 100 166 100 182 100 198 100 214 100 230 100 246 100 10 \012DELTAP1[ ]	/* DeltaExceptionP1 */\012NPUSHW[ ]	/* 33 values pushed */\0126 100 22 100 38 100 54 100 70 100 86 100 102 100 118 100 134 100 150 100 166 100 182 100 198 100 214 100 230 100 246 100 16 \012DELTAP2[ ]	/* DeltaExceptionP2 */\012NPUSHW[ ]	/* 25 values pushed */\0126 100 22 100 38 100 54 100 70 100 86 100 102 100 118 100 134 100 150 100 166 100 182 100 12 \012DELTAP3[ ]	/* DeltaExceptionP3 */\012NPUSHW[ ]	/* 5 values pushed */\012197 100 213 100 2 \012DELTAP3[ ]	/* DeltaExceptionP3 */\012PUSHW[ ]	/* 3 values pushed */\012103 89 107 \012SRP1[ ]	/* SetRefPoint1 */\012SRP2[ ]	/* SetRefPoint2 */\012IP[ ]	/* InterpolatePts */\012PUSHW[ ]	/* 3 values pushed */\012112 89 107 \012SRP1[ ]	/* SetRefPoint1 */\012SRP2[ ]	/* SetRefPoint2 */\012IP[ ]	/* InterpolatePts */\012PUSHW[ ]	/* 3 values pushed */\012124 89 107 \012SRP1[ ]	/* SetRefPoint1 */\012SRP2[ ]	/* SetRefPoint2 */\012IP[ ]	/* InterpolatePts */\012SVTCA[0]	/* SetFreedomAndProjectionVectorToAxis */\012PUSHW[ ]	/* 1 value pushed */\01297 \012MDAP[1]	/* MoveDirectAbsPt */\012PUSHW[ ]	/* 1 value pushed */\0121060 \012RCVT[ ]	/* ReadCVT */\012IF[ ]	/* If */\012PUSHW[ ]	/* 1 value pushed */\0123 \012MDAP[1]	/* MoveDirectAbsPt */\012ELSE[ ]	/* Else */\012PUSHW[ ]	/* 2 values pushed */\0123 1071 \012MIAP[0]	/* MoveIndirectAbsPt */\012EIF[ ]	/* EndIf */\012PUSHW[ ]	/* 1 value pushed */\0121060 \012RCVT[ ]	/* ReadCVT */\012IF[ ]	/* If */\012PUSHW[ ]	/* 1 value pushed */\0127 \012MDAP[1]	/* MoveDirectAbsPt */\012ELSE[ ]	/* Else */\012PUSHW[ ]	/* 2 values pushed */\0127 1071 \012MIAP[0]	/* MoveIndirectAbsPt */\012EIF[ ]	/* EndIf */\012PUSHW[ ]	/* 1 value pushed */\0121060 \012RCVT[ ]	/* ReadCVT */\012IF[ ]	/* If */\012PUSHW[ ]	/* 1 value pushed */\01221 \012MDAP[1]	/* MoveDirectAbsPt */\012ELSE[ ]	/* Else */\012PUSHW[ ]	/* 2 values pushed */\01221 1071 \012MIAP[0]	/* MoveIndirectAbsPt */\012EIF[ ]	/* EndIf */\012PUSHW[ ]	/* 1 value pushed */\0121060 \012RCVT[ ]	/* ReadCVT */\012IF[ ]	/* If */\012PUSHW[ ]	/* 1 value pushed */\01253 \012MDAP[1]	/* MoveDirectAbsPt */\012ELSE[ ]	/* Else */\012PUSHW[ ]	/* 2 values pushed */\01253 1071 \012MIAP[0]	/* MoveIndirectAbsPt */\012EIF[ ]	/* EndIf */\012PUSHW[ ]	/* 4 values pushed */\0125 1064 17 14 \012CALL[ ]	/* CallFunction */\012PUSHW[ ]	/* 4 values pushed */\012117 1061 30 14 \012CALL[ ]	/* CallFunction */\012PUSHW[ ]	/* 3 values pushed */\012103 3 97 \012SRP1[ ]	/* SetRefPoint1 */\012SRP2[ ]	/* SetRefPoint2 */\012IP[ ]	/* InterpolatePts */\012PUSHW[ ]	/* 3 values pushed */\012112 3 97 \012SRP1[ ]	/* SetRefPoint1 */\012SRP2[ ]	/* SetRefPoint2 */\012IP[ ]	/* InterpolatePts */\012PUSHW[ ]	/* 3 values pushed */\012124 3 97 \012SRP1[ ]	/* SetRefPoint1 */\012SRP2[ ]	/* SetRefPoint2 */\012IP[ ]	/* InterpolatePts */\012IUP[0]	/* InterpolateUntPts */\012IUP[1]	/* InterpolateUntPts */";
};
width = 1096;
}
);
note = M;
unicode = 004D;
},
{
color = 3;
glyphname = N;
lastChange = "2022-03-22 12:57:56 +0000";
layers = (
{
anchors = (
{
name = bottom;
position = "{419, 0}";
},
{
name = top;
position = "{769, 620}";
}
);
layerId = "16A236A6-57F5-4152-84D1-48D854BBAFA9";
paths = (
{
closed = 1;
nodes = (
"718 -116 OFFCURVE",
"764 -83 OFFCURVE",
"826 -16 CURVE SMOOTH",
"832 -9 OFFCURVE",
"835 -3 OFFCURVE",
"835 4 CURVE SMOOTH",
"835 9 OFFCURVE",
"833 12 OFFCURVE",
"830 12 CURVE SMOOTH",
"827 12 OFFCURVE",
"824 10 OFFCURVE",
"821 7 CURVE SMOOTH",
"800 -13 OFFCURVE",
"777 -32 OFFCURVE",
"751 -50 CURVE SMOOTH",
"716 -75 OFFCURVE",
"690 -87 OFFCURVE",
"673 -87 CURVE SMOOTH",
"663 -87 OFFCURVE",
"658 -81 OFFCURVE",
"658 -70 CURVE SMOOTH",
"658 -68 OFFCURVE",
"659 -65 OFFCURVE",
"659 -62 CURVE",
"678 33 OFFCURVE",
"704 118 OFFCURVE",
"741 195 CURVE SMOOTH",
"766 250 OFFCURVE",
"801 309 OFFCURVE",
"846 370 CURVE SMOOTH",
"946 505 LINE SMOOTH",
"952 514 OFFCURVE",
"955 524 OFFCURVE",
"955 535 CURVE SMOOTH",
"955 569 OFFCURVE",
"926 605 OFFCURVE",
"894 605 CURVE SMOOTH",
"850 605 OFFCURVE",
"789 582 OFFCURVE",
"712 537 CURVE",
"635 485 OFFCURVE",
"570 441 OFFCURVE",
"518 404 CURVE",
"525 414 OFFCURVE",
"529 422 OFFCURVE",
"532 427 CURVE SMOOTH",
"549 463 OFFCURVE",
"557 501 OFFCURVE",
"557 540 CURVE SMOOTH",
"557 573 OFFCURVE",
"549 596 OFFCURVE",
"533 608 CURVE SMOOTH",
"514 622 OFFCURVE",
"489 629 OFFCURVE",
"459 629 CURVE SMOOTH",
"384 629 OFFCURVE",
"297 597 OFFCURVE",
"196 532 CURVE SMOOTH",
"165 513 OFFCURVE",
"129 482 OFFCURVE",
"86 439 CURVE SMOOTH",
"41 395 OFFCURVE",
"15 363 OFFCURVE",
"8 344 CURVE SMOOTH",
"6 339 OFFCURVE",
"5 333 OFFCURVE",
"5 328 CURVE SMOOTH",
"5 296 OFFCURVE",
"43 273 OFFCURVE",
"95 273 CURVE SMOOTH",
"110 273 OFFCURVE",
"118 276 OFFCURVE",
"118 284 CURVE SMOOTH",
"118 288 OFFCURVE",
"115 290 OFFCURVE",
"109 290 CURVE SMOOTH",
"104 290 LINE SMOOTH",
"65 290 OFFCURVE",
"46 297 OFFCURVE",
"46 317 CURVE SMOOTH",
"46 342 OFFCURVE",
"70 378 OFFCURVE",
"118 425 CURVE SMOOTH",
"186 493 OFFCURVE",
"257 538 OFFCURVE",
"341 574 CURVE SMOOTH",
"397 597 OFFCURVE",
"441 609 OFFCURVE",
"473 609 CURVE SMOOTH",
"509 609 OFFCURVE",
"527 595 OFFCURVE",
"527 568 CURVE SMOOTH",
"527 550 OFFCURVE",
"521 525 OFFCURVE",
"508 494 CURVE SMOOTH",
"480 430 LINE SMOOTH",
"466 398 OFFCURVE",
"452 366 OFFCURVE",
"433 335 CURVE",
"367 281 LINE SMOOTH",
"337 256 OFFCURVE",
"300 222 OFFCURVE",
"259 175 CURVE SMOOTH",
"212 121 OFFCURVE",
"177 72 OFFCURVE",
"152 28 CURVE SMOOTH",
"148 21 OFFCURVE",
"146 13 OFFCURVE",
"146 6 CURVE SMOOTH",
"146 -11 OFFCURVE",
"155 -19 OFFCURVE",
"174 -19 CURVE SMOOTH",
"209 -19 OFFCURVE",
"267 31 OFFCURVE",
"346 131 CURVE SMOOTH",
"405 206 OFFCURVE",
"449 271 OFFCURVE",
"482 328 CURVE",
"497 345 OFFCURVE",
"534 377 OFFCURVE",
"595 424 CURVE SMOOTH",
"651 465 OFFCURVE",
"691 494 OFFCURVE",
"718 510 CURVE SMOOTH",
"796 557 OFFCURVE",
"855 582 OFFCURVE",
"896 582 CURVE SMOOTH",
"909 582 OFFCURVE",
"916 574 OFFCURVE",
"916 558 CURVE SMOOTH",
"916 552 OFFCURVE",
"915 547 OFFCURVE",
"912 542 CURVE",
"716 291 OFFCURVE",
"617 94 OFFCURVE",
"614 -51 CURVE SMOOTH",
"614 -62 OFFCURVE",
"622 -76 OFFCURVE",
"639 -92 CURVE SMOOTH",
"656 -108 OFFCURVE",
"672 -116 OFFCURVE",
"688 -116 CURVE SMOOTH"
);
},
{
closed = 1;
nodes = (
"190 24 OFFCURVE",
"188 27 OFFCURVE",
"188 32 CURVE SMOOTH",
"188 35 OFFCURVE",
"189 39 OFFCURVE",
"191 43 CURVE SMOOTH",
"210 78 OFFCURVE",
"237 115 OFFCURVE",
"270 155 CURVE SMOOTH",
"309 202 OFFCURVE",
"353 244 OFFCURVE",
"402 283 CURVE",
"338 183 OFFCURVE",
"280 103 OFFCURVE",
"220 40 CURVE SMOOTH",
"210 29 OFFCURVE",
"202 24 OFFCURVE",
"195 24 CURVE SMOOTH"
);
}
);
userData = {
assembly = "PUSHW[ ]	/* 1 value pushed */\01210 \012CALL[ ]	/* CallFunction */\012PUSHW[ ]	/* 1 value pushed */\012119 \012MDAP[1]	/* MoveDirectAbsPt */\012PUSHW[ ]	/* 1 value pushed */\01257 \012MDAP[1]	/* MoveDirectAbsPt */\012NPUSHW[ ]	/* 5 values pushed */\012202 57 218 57 2 \012DELTAP3[ ]	/* DeltaExceptionP3 */\012NPUSHW[ ]	/* 21 values pushed */\012105 57 121 57 137 57 153 57 169 57 185 57 201 57 217 57 233 57 249 57 10 \012DELTAP1[ ]	/* DeltaExceptionP1 */\012NPUSHW[ ]	/* 33 values pushed */\0129 57 25 57 41 57 57 57 73 57 89 57 105 57 121 57 137 57 153 57 169 57 185 57 201 57 217 57 233 57 249 57 16 \012DELTAP2[ ]	/* DeltaExceptionP2 */\012NPUSHW[ ]	/* 25 values pushed */\0129 57 25 57 41 57 57 57 73 57 89 57 105 57 121 57 137 57 153 57 169 57 185 57 12 \012DELTAP3[ ]	/* DeltaExceptionP3 */\012PUSHW[ ]	/* 1 value pushed */\012119 \012SRP0[ ]	/* SetRefPoint0 */\012PUSHW[ ]	/* 1 value pushed */\01277 \012MDRP[10000]	/* MoveDirectRelPt */\012PUSHW[ ]	/* 1 value pushed */\01277 \012MDAP[1]	/* MoveDirectAbsPt */\012PUSHW[ ]	/* 2 values pushed */\01268 1070 \012MIRP[10100]	/* MoveIndirectRelPt */\012NPUSHW[ ]	/* 21 values pushed */\012102 68 118 68 134 68 150 68 166 68 182 68 198 68 214 68 230 68 246 68 10 \012DELTAP1[ ]	/* DeltaExceptionP1 */\012NPUSHW[ ]	/* 33 values pushed */\0126 68 22 68 38 68 54 68 70 68 86 68 102 68 118 68 134 68 150 68 166 68 182 68 198 68 214 68 230 68 246 68 16 \012DELTAP2[ ]	/* DeltaExceptionP2 */\012NPUSHW[ ]	/* 25 values pushed */\0126 68 22 68 38 68 54 68 70 68 86 68 102 68 118 68 134 68 150 68 166 68 182 68 12 \012DELTAP3[ ]	/* DeltaExceptionP3 */\012NPUSHW[ ]	/* 5 values pushed */\012197 68 213 68 2 \012DELTAP3[ ]	/* DeltaExceptionP3 */\012PUSHW[ ]	/* 1 value pushed */\01277 \012SRP0[ ]	/* SetRefPoint0 */\012PUSHW[ ]	/* 1 value pushed */\01279 \012MDRP[10000]	/* MoveDirectRelPt */\012PUSHW[ ]	/* 1 value pushed */\01279 \012MDAP[1]	/* MoveDirectAbsPt */\012PUSHW[ ]	/* 1 value pushed */\01257 \012SRP0[ ]	/* SetRefPoint0 */\012PUSHW[ ]	/* 1 value pushed */\01287 \012MDRP[10000]	/* MoveDirectRelPt */\012PUSHW[ ]	/* 1 value pushed */\01287 \012MDAP[1]	/* MoveDirectAbsPt */\012PUSHW[ ]	/* 1 value pushed */\01257 \012SRP0[ ]	/* SetRefPoint0 */\012PUSHW[ ]	/* 2 values pushed */\01289 1065 \012MIRP[10100]	/* MoveIndirectRelPt */\012PUSHW[ ]	/* 1 value pushed */\01257 \012SRP0[ ]	/* SetRefPoint0 */\012PUSHW[ ]	/* 1 value pushed */\01291 \012MDRP[10000]	/* MoveDirectRelPt */\012PUSHW[ ]	/* 1 value pushed */\01291 \012MDAP[1]	/* MoveDirectAbsPt */\012PUSHW[ ]	/* 3 values pushed */\01293 77 89 \012SRP1[ ]	/* SetRefPoint1 */\012SRP2[ ]	/* SetRefPoint2 */\012IP[ ]	/* InterpolatePts */\012PUSHW[ ]	/* 3 values pushed */\012105 77 89 \012SRP1[ ]	/* SetRefPoint1 */\012SRP2[ ]	/* SetRefPoint2 */\012IP[ ]	/* InterpolatePts */\012SVTCA[0]	/* SetFreedomAndProjectionVectorToAxis */\012PUSHW[ ]	/* 1 value pushed */\01285 \012MDAP[1]	/* MoveDirectAbsPt */\012PUSHW[ ]	/* 1 value pushed */\0121060 \012RCVT[ ]	/* ReadCVT */\012IF[ ]	/* If */\012PUSHW[ ]	/* 1 value pushed */\01218 \012MDAP[1]	/* MoveDirectAbsPt */\012ELSE[ ]	/* Else */\012PUSHW[ ]	/* 2 values pushed */\01218 1071 \012MIAP[0]	/* MoveIndirectAbsPt */\012EIF[ ]	/* EndIf */\012PUSHW[ ]	/* 1 value pushed */\0121060 \012RCVT[ ]	/* ReadCVT */\012IF[ ]	/* If */\012PUSHW[ ]	/* 1 value pushed */\01242 \012MDAP[1]	/* MoveDirectAbsPt */\012ELSE[ ]	/* Else */\012PUSHW[ ]	/* 2 values pushed */\01242 1071 \012MIAP[0]	/* MoveIndirectAbsPt */\012EIF[ ]	/* EndIf */\012PUSHW[ ]	/* 4 values pushed */\0128 1064 20 14 \012CALL[ ]	/* CallFunction */\012PUSHW[ ]	/* 4 values pushed */\01298 1061 30 14 \012CALL[ ]	/* CallFunction */\012PUSHW[ ]	/* 1 value pushed */\01298 \012SRP0[ ]	/* SetRefPoint0 */\012PUSHW[ ]	/* 1 value pushed */\01259 \012MDRP[10000]	/* MoveDirectRelPt */\012PUSHW[ ]	/* 1 value pushed */\01259 \012MDAP[1]	/* MoveDirectAbsPt */\012PUSHW[ ]	/* 3 values pushed */\01293 42 85 \012SRP1[ ]	/* SetRefPoint1 */\012SRP2[ ]	/* SetRefPoint2 */\012IP[ ]	/* InterpolatePts */\012PUSHW[ ]	/* 3 values pushed */\012105 42 85 \012SRP1[ ]	/* SetRefPoint1 */\012SRP2[ ]	/* SetRefPoint2 */\012IP[ ]	/* InterpolatePts */\012IUP[0]	/* InterpolateUntPts */\012IUP[1]	/* InterpolateUntPts */";
};
width = 817;
}
);
leftKerningGroup = N;
note = N;
rightKerningGroup = N;
unicode = 004E;
},
{
glyphname = Eng;
lastChange = "2022-03-22 09:20:33 +0000";
layers = (
{
background = {
paths = (
{
closed = 1;
nodes = (
"922 464 OFFCURVE",
"806 270 OFFCURVE",
"743 157 CURVE SMOOTH",
"647 -15 OFFCURVE",
"500 -242 OFFCURVE",
"399 -312 CURVE SMOOTH",
"389 -319 OFFCURVE",
"373 -320 OFFCURVE",
"350 -316 CURVE SMOOTH",
"329 -312 OFFCURVE",
"314 -303 OFFCURVE",
"306 -290 CURVE SMOOTH",
"292 -266 OFFCURVE",
"299 -210 OFFCURVE",
"330 -120 CURVE SMOOTH",
"333 -111 OFFCURVE",
"337 -105 OFFCURVE",
"343 -101 CURVE SMOOTH",
"348 -98 OFFCURVE",
"352 -98 OFFCURVE",
"352 -100 CURVE SMOOTH",
"354 -103 OFFCURVE",
"354 -106 OFFCURVE",
"353 -111 CURVE SMOOTH",
"345 -139 OFFCURVE",
"339 -169 OFFCURVE",
"335 -201 CURVE SMOOTH",
"329 -244 OFFCURVE",
"331 -272 OFFCURVE",
"339 -286 CURVE SMOOTH",
"345 -295 OFFCURVE",
"354 -295 OFFCURVE",
"368 -282 CURVE SMOOTH",
"444 -211 OFFCURVE",
"559 -69 OFFCURVE",
"669 111 CURVE SMOOTH",
"726 203 OFFCURVE",
"780 289 OFFCURVE",
"917 551 CURVE",
"955 536 LINE"
);
}
);
};
layerId = "16A236A6-57F5-4152-84D1-48D854BBAFA9";
paths = (
{
closed = 1;
nodes = (
"384 -318 OFFCURVE",
"393 -316 OFFCURVE",
"399 -312 CURVE SMOOTH",
"500 -248 OFFCURVE",
"647 -14 OFFCURVE",
"777 214 CURVE SMOOTH",
"819 287 OFFCURVE",
"860 361 OFFCURVE",
"902 434 CURVE SMOOTH",
"932 487 OFFCURVE",
"947 511 OFFCURVE",
"952 530 CURVE",
"955 536 LINE",
"954 537 LINE",
"955 541 OFFCURVE",
"955 546 OFFCURVE",
"955 551 CURVE SMOOTH",
"955 569 OFFCURVE",
"926 605 OFFCURVE",
"894 605 CURVE SMOOTH",
"850 605 OFFCURVE",
"789 582 OFFCURVE",
"712 537 CURVE",
"635 485 OFFCURVE",
"570 441 OFFCURVE",
"518 404 CURVE",
"525 414 OFFCURVE",
"529 422 OFFCURVE",
"532 427 CURVE SMOOTH",
"549 463 OFFCURVE",
"557 501 OFFCURVE",
"557 540 CURVE SMOOTH",
"557 573 OFFCURVE",
"549 596 OFFCURVE",
"533 608 CURVE SMOOTH",
"514 622 OFFCURVE",
"489 629 OFFCURVE",
"459 629 CURVE SMOOTH",
"384 629 OFFCURVE",
"297 597 OFFCURVE",
"196 532 CURVE SMOOTH",
"165 513 OFFCURVE",
"129 482 OFFCURVE",
"86 439 CURVE SMOOTH",
"41 395 OFFCURVE",
"15 363 OFFCURVE",
"8 344 CURVE SMOOTH",
"6 339 OFFCURVE",
"5 333 OFFCURVE",
"5 328 CURVE SMOOTH",
"5 296 OFFCURVE",
"44 273 OFFCURVE",
"96 273 CURVE SMOOTH",
"111 273 OFFCURVE",
"118 276 OFFCURVE",
"118 284 CURVE SMOOTH",
"118 288 OFFCURVE",
"115 290 OFFCURVE",
"108 290 CURVE SMOOTH",
"104 290 LINE SMOOTH",
"65 288 OFFCURVE",
"46 297 OFFCURVE",
"46 317 CURVE SMOOTH",
"46 342 OFFCURVE",
"70 378 OFFCURVE",
"118 425 CURVE SMOOTH",
"186 493 OFFCURVE",
"257 538 OFFCURVE",
"341 574 CURVE SMOOTH",
"397 597 OFFCURVE",
"441 609 OFFCURVE",
"473 609 CURVE SMOOTH",
"509 609 OFFCURVE",
"527 595 OFFCURVE",
"527 568 CURVE SMOOTH",
"527 550 OFFCURVE",
"521 525 OFFCURVE",
"508 494 CURVE SMOOTH",
"480 430 LINE SMOOTH",
"466 398 OFFCURVE",
"452 366 OFFCURVE",
"433 335 CURVE",
"367 281 LINE SMOOTH",
"337 256 OFFCURVE",
"300 222 OFFCURVE",
"259 175 CURVE SMOOTH",
"212 121 OFFCURVE",
"177 72 OFFCURVE",
"152 28 CURVE SMOOTH",
"148 21 OFFCURVE",
"146 13 OFFCURVE",
"146 6 CURVE SMOOTH",
"146 -11 OFFCURVE",
"155 -19 OFFCURVE",
"174 -19 CURVE SMOOTH",
"209 -19 OFFCURVE",
"267 31 OFFCURVE",
"346 131 CURVE SMOOTH",
"405 206 OFFCURVE",
"449 271 OFFCURVE",
"482 328 CURVE",
"497 345 OFFCURVE",
"534 377 OFFCURVE",
"595 424 CURVE SMOOTH",
"651 465 OFFCURVE",
"691 494 OFFCURVE",
"718 510 CURVE SMOOTH",
"796 557 OFFCURVE",
"854 582 OFFCURVE",
"896 582 CURVE SMOOTH",
"910 582 OFFCURVE",
"916 571 OFFCURVE",
"916 563 CURVE SMOOTH",
"916 551 OFFCURVE",
"915 547 OFFCURVE",
"884 493 CURVE SMOOTH",
"833 405 OFFCURVE",
"762 264 OFFCURVE",
"695 154 CURVE SMOOTH",
"559 -69 OFFCURVE",
"481 -186 OFFCURVE",
"421 -240 CURVE SMOOTH",
"380 -279 OFFCURVE",
"359 -290 OFFCURVE",
"348 -290 CURVE SMOOTH",
"343 -290 OFFCURVE",
"341 -289 OFFCURVE",
"339 -286 CURVE SMOOTH",
"334 -278 OFFCURVE",
"332 -264 OFFCURVE",
"332 -245 CURVE SMOOTH",
"332 -233 OFFCURVE",
"333 -218 OFFCURVE",
"335 -201 CURVE SMOOTH",
"339 -169 OFFCURVE",
"345 -139 OFFCURVE",
"353 -111 CURVE SMOOTH",
"354 -106 OFFCURVE",
"354 -103 OFFCURVE",
"352 -100 CURVE",
"352 -98 OFFCURVE",
"348 -98 OFFCURVE",
"343 -101 CURVE SMOOTH",
"337 -105 OFFCURVE",
"333 -111 OFFCURVE",
"330 -120 CURVE SMOOTH",
"309 -181 OFFCURVE",
"299 -226 OFFCURVE",
"299 -256 CURVE SMOOTH",
"299 -271 OFFCURVE",
"301 -282 OFFCURVE",
"306 -290 CURVE SMOOTH",
"314 -303 OFFCURVE",
"329 -312 OFFCURVE",
"350 -316 CURVE SMOOTH",
"358 -317 OFFCURVE",
"365 -318 OFFCURVE",
"372 -318 CURVE SMOOTH"
);
},
{
closed = 1;
nodes = (
"190 24 OFFCURVE",
"188 27 OFFCURVE",
"188 32 CURVE SMOOTH",
"188 35 OFFCURVE",
"189 39 OFFCURVE",
"191 43 CURVE SMOOTH",
"210 78 OFFCURVE",
"237 115 OFFCURVE",
"270 155 CURVE SMOOTH",
"309 202 OFFCURVE",
"353 244 OFFCURVE",
"402 283 CURVE",
"338 183 OFFCURVE",
"280 103 OFFCURVE",
"220 40 CURVE SMOOTH",
"210 29 OFFCURVE",
"202 24 OFFCURVE",
"195 24 CURVE SMOOTH"
);
}
);
width = 817;
}
);
leftKerningGroup = N;
rightKerningGroup = N;
unicode = 014A;
},
{
color = 3;
glyphname = O;
lastChange = "2022-03-25 01:05:07 +0000";
layers = (
{
anchors = (
{
name = bottom;
position = "{230, -49}";
},
{
name = horn;
position = "{690, 468}";
},
{
name = ogonek;
position = "{514, 10}";
},
{
name = top;
position = "{627, 536}";
}
);
layerId = "16A236A6-57F5-4152-84D1-48D854BBAFA9";
paths = (
{
closed = 1;
nodes = (
"274 -48 OFFCURVE",
"283 -47 OFFCURVE",
"294 -46 CURVE SMOOTH",
"412 -34 OFFCURVE",
"523 3 OFFCURVE",
"627 66 CURVE SMOOTH",
"744 136 OFFCURVE",
"803 214 OFFCURVE",
"803 301 CURVE SMOOTH",
"803 307 OFFCURVE",
"803 313 OFFCURVE",
"802 320 CURVE SMOOTH",
"796 383 OFFCURVE",
"759 432 OFFCURVE",
"690 468 CURVE SMOOTH",
"629 499 OFFCURVE",
"556 515 OFFCURVE",
"472 515 CURVE SMOOTH",
"387 515 OFFCURVE",
"307 496 OFFCURVE",
"232 459 CURVE SMOOTH",
"145 414 OFFCURVE",
"102 357 OFFCURVE",
"102 286 CURVE SMOOTH",
"102 275 OFFCURVE",
"102 268 OFFCURVE",
"103 265 CURVE",
"67 219 OFFCURVE",
"43 171 OFFCURVE",
"32 122 CURVE SMOOTH",
"30 114 OFFCURVE",
"29 106 OFFCURVE",
"29 99 CURVE SMOOTH",
"29 55 OFFCURVE",
"55 19 OFFCURVE",
"106 -9 CURVE SMOOTH",
"152 -35 OFFCURVE",
"204 -48 OFFCURVE",
"263 -48 CURVE SMOOTH"
);
},
{
closed = 1;
nodes = (
"221 -26 OFFCURVE",
"180 -15 OFFCURVE",
"145 8 CURVE SMOOTH",
"106 32 OFFCURVE",
"87 62 OFFCURVE",
"87 99 CURVE SMOOTH",
"87 133 OFFCURVE",
"100 171 OFFCURVE",
"127 212 CURVE",
"155 171 OFFCURVE",
"200 143 OFFCURVE",
"262 127 CURVE SMOOTH",
"271 125 OFFCURVE",
"276 126 OFFCURVE",
"276 130 CURVE SMOOTH",
"276 133 OFFCURVE",
"271 137 OFFCURVE",
"262 140 CURVE SMOOTH",
"205 155 OFFCURVE",
"165 186 OFFCURVE",
"142 235 CURVE",
"181 290 OFFCURVE",
"238 339 OFFCURVE",
"313 382 CURVE SMOOTH",
"366 411 OFFCURVE",
"415 432 OFFCURVE",
"460 445 CURVE SMOOTH",
"465 446 OFFCURVE",
"467 449 OFFCURVE",
"467 455 CURVE SMOOTH",
"467 464 OFFCURVE",
"464 472 OFFCURVE",
"457 479 CURVE",
"472 479 LINE SMOOTH",
"548 479 OFFCURVE",
"612 466 OFFCURVE",
"663 440 CURVE SMOOTH",
"721 409 OFFCURVE",
"752 366 OFFCURVE",
"757 310 CURVE SMOOTH",
"763 247 OFFCURVE",
"735 188 OFFCURVE",
"674 132 CURVE SMOOTH",
"624 86 OFFCURVE",
"556 47 OFFCURVE",
"470 16 CURVE SMOOTH",
"393 -12 OFFCURVE",
"326 -26 OFFCURVE",
"269 -26 CURVE SMOOTH"
);
},
{
closed = 1;
nodes = (
"135 348 OFFCURVE",
"166 389 OFFCURVE",
"225 422 CURVE SMOOTH",
"272 448 OFFCURVE",
"331 466 OFFCURVE",
"403 475 CURVE",
"296 434 OFFCURVE",
"206 375 OFFCURVE",
"131 297 CURVE"
);
}
);
userData = {
assembly = "PUSHW[ ]	/* 1 value pushed */\01210 \012CALL[ ]	/* CallFunction */\012PUSHW[ ]	/* 4 values pushed */\01254 1070 11 14 \012CALL[ ]	/* CallFunction */\012PUSHW[ ]	/* 4 values pushed */\01229 1065 17 14 \012CALL[ ]	/* CallFunction */\012NPUSHW[ ]	/* 21 values pushed */\012102 29 118 29 134 29 150 29 166 29 182 29 198 29 214 29 230 29 246 29 10 \012DELTAP1[ ]	/* DeltaExceptionP1 */\012NPUSHW[ ]	/* 33 values pushed */\0126 29 22 29 38 29 54 29 70 29 86 29 102 29 118 29 134 29 150 29 166 29 182 29 198 29 214 29 230 29 246 29 16 \012DELTAP2[ ]	/* DeltaExceptionP2 */\012NPUSHW[ ]	/* 25 values pushed */\0126 29 22 29 38 29 54 29 70 29 86 29 102 29 118 29 134 29 150 29 166 29 182 29 12 \012DELTAP3[ ]	/* DeltaExceptionP3 */\012NPUSHW[ ]	/* 5 values pushed */\012197 29 213 29 2 \012DELTAP3[ ]	/* DeltaExceptionP3 */\012PUSHW[ ]	/* 3 values pushed */\01252 17 29 \012SRP1[ ]	/* SetRefPoint1 */\012SRP2[ ]	/* SetRefPoint2 */\012IP[ ]	/* InterpolatePts */\012NPUSHW[ ]	/* 21 values pushed */\012102 54 118 54 134 54 150 54 166 54 182 54 198 54 214 54 230 54 246 54 10 \012DELTAP1[ ]	/* DeltaExceptionP1 */\012NPUSHW[ ]	/* 33 values pushed */\0126 54 22 54 38 54 54 54 70 54 86 54 102 54 118 54 134 54 150 54 166 54 182 54 198 54 214 54 230 54 246 54 16 \012DELTAP2[ ]	/* DeltaExceptionP2 */\012NPUSHW[ ]	/* 25 values pushed */\0126 54 22 54 38 54 54 54 70 54 86 54 102 54 118 54 134 54 150 54 166 54 182 54 12 \012DELTAP3[ ]	/* DeltaExceptionP3 */\012NPUSHW[ ]	/* 5 values pushed */\012197 54 213 54 2 \012DELTAP3[ ]	/* DeltaExceptionP3 */\012SVTCA[0]	/* SetFreedomAndProjectionVectorToAxis */\012PUSHW[ ]	/* 4 values pushed */\01258 1061 7 14 \012CALL[ ]	/* CallFunction */\012PUSHW[ ]	/* 4 values pushed */\01221 1064 35 14 \012CALL[ ]	/* CallFunction */\012PUSHW[ ]	/* 1 value pushed */\0127 \012SRP0[ ]	/* SetRefPoint0 */\012PUSHW[ ]	/* 1 value pushed */\0124 \012MDRP[10000]	/* MoveDirectRelPt */\012PUSHW[ ]	/* 1 value pushed */\0124 \012MDAP[1]	/* MoveDirectAbsPt */\012PUSHW[ ]	/* 1 value pushed */\01235 \012SRP0[ ]	/* SetRefPoint0 */\012PUSHW[ ]	/* 1 value pushed */\01225 \012MDRP[10000]	/* MoveDirectRelPt */\012PUSHW[ ]	/* 1 value pushed */\01225 \012MDAP[1]	/* MoveDirectAbsPt */\012IUP[0]	/* InterpolateUntPts */\012IUP[1]	/* InterpolateUntPts */";
};
width = 774;
}
);
leftKerningGroup = O;
note = O;
rightKerningGroup = O;
unicode = 004F;
},
{
color = 3;
glyphname = Oslash;
lastChange = "2022-03-22 09:23:34 +0000";
layers = (
{
anchors = (
{
name = top;
position = "{487, 540}";
}
);
layerId = "16A236A6-57F5-4152-84D1-48D854BBAFA9";
paths = (
{
closed = 1;
nodes = (
"-22 -247 OFFCURVE",
"-22 -247 OFFCURVE",
"-22 -246 CURVE SMOOTH",
"-22 -245 OFFCURVE",
"-22 -243 OFFCURVE",
"-21 -241 CURVE",
"-15 -219 LINE SMOOTH",
"-12 -208 OFFCURVE",
"-7 -193 OFFCURVE",
"2 -174 CURVE SMOOTH",
"19 -135 OFFCURVE",
"47 -88 OFFCURVE",
"86 -33 CURVE",
"101 -39 OFFCURVE",
"118 -42 OFFCURVE",
"139 -42 CURVE SMOOTH",
"199 -42 OFFCURVE",
"267 -23 OFFCURVE",
"342 15 CURVE SMOOTH",
"418 53 OFFCURVE",
"481 100 OFFCURVE",
"531 156 CURVE SMOOTH",
"587 219 OFFCURVE",
"615 281 OFFCURVE",
"615 342 CURVE SMOOTH",
"615 393 OFFCURVE",
"598 433 OFFCURVE",
"563 463 CURVE",
"608 502 OFFCURVE",
"643 531 OFFCURVE",
"666 550 CURVE SMOOTH",
"700 579 LINE",
"699 582 OFFCURVE",
"695 583 OFFCURVE",
"687 583 CURVE SMOOTH",
"667 583 OFFCURVE",
"639 571 OFFCURVE",
"607 543 CURVE SMOOTH",
"536 481 LINE",
"503 498 OFFCURVE",
"463 507 OFFCURVE",
"418 507 CURVE SMOOTH",
"359 507 OFFCURVE",
"298 493 OFFCURVE",
"237 464 CURVE SMOOTH",
"172 434 OFFCURVE",
"123 396 OFFCURVE",
"90 351 CURVE SMOOTH",
"86 346 OFFCURVE",
"84 341 OFFCURVE",
"84 337 CURVE",
"85 335 LINE",
"86 335 LINE SMOOTH",
"90 335 OFFCURVE",
"94 337 OFFCURVE",
"98 341 CURVE SMOOTH",
"159 392 OFFCURVE",
"215 426 OFFCURVE",
"267 445 CURVE",
"106 306 OFFCURVE",
"26 182 OFFCURVE",
"26 72 CURVE SMOOTH",
"26 26 OFFCURVE",
"40 -6 OFFCURVE",
"68 -24 CURVE",
"45 -53 OFFCURVE",
"25 -87 OFFCURVE",
"2 -124 CURVE SMOOTH",
"-29 -175 OFFCURVE",
"-44 -210 OFFCURVE",
"-44 -229 CURVE SMOOTH",
"-44 -237 OFFCURVE",
"-31 -248 OFFCURVE",
"-23 -248 CURVE"
);
},
{
closed = 1;
nodes = (
"59 5 OFFCURVE",
"49 30 OFFCURVE",
"49 66 CURVE SMOOTH",
"49 129 OFFCURVE",
"85 203 OFFCURVE",
"157 288 CURVE SMOOTH",
"226 369 OFFCURVE",
"292 421 OFFCURVE",
"355 442 CURVE",
"368 450 LINE",
"366 459 OFFCURVE",
"352 464 OFFCURVE",
"327 464 CURVE SMOOTH",
"322 464 OFFCURVE",
"315 463 OFFCURVE",
"304 462 CURVE",
"345 476 OFFCURVE",
"387 483 OFFCURVE",
"431 483 CURVE SMOOTH",
"466 483 OFFCURVE",
"497 478 OFFCURVE",
"522 467 CURVE",
"341 302 OFFCURVE",
"193 143 OFFCURVE",
"79 -9 CURVE"
);
},
{
closed = 1;
nodes = (
"120 -24 OFFCURVE",
"108 -22 OFFCURVE",
"97 -18 CURVE",
"201 123 OFFCURVE",
"350 276 OFFCURVE",
"549 451 CURVE",
"574 432 OFFCURVE",
"586 406 OFFCURVE",
"586 372 CURVE SMOOTH",
"586 314 OFFCURVE",
"560 253 OFFCURVE",
"507 188 CURVE SMOOTH",
"459 129 OFFCURVE",
"399 79 OFFCURVE",
"327 38 CURVE SMOOTH",
"254 -3 OFFCURVE",
"190 -24 OFFCURVE",
"134 -24 CURVE SMOOTH"
);
}
);
userData = {
assembly = "PUSHW[ ]	/* 1 value pushed */\01210 \012CALL[ ]	/* CallFunction */\012PUSHW[ ]	/* 1 value pushed */\01287 \012MDAP[1]	/* MoveDirectAbsPt */\012PUSHW[ ]	/* 1 value pushed */\01229 \012MDAP[1]	/* MoveDirectAbsPt */\012PUSHW[ ]	/* 1 value pushed */\01287 \012SRP0[ ]	/* SetRefPoint0 */\012PUSHW[ ]	/* 1 value pushed */\01261 \012MDRP[10000]	/* MoveDirectRelPt */\012PUSHW[ ]	/* 1 value pushed */\01261 \012MDAP[1]	/* MoveDirectAbsPt */\012NPUSHW[ ]	/* 5 values pushed */\012202 29 218 29 2 \012DELTAP3[ ]	/* DeltaExceptionP3 */\012NPUSHW[ ]	/* 21 values pushed */\012105 29 121 29 137 29 153 29 169 29 185 29 201 29 217 29 233 29 249 29 10 \012DELTAP1[ ]	/* DeltaExceptionP1 */\012NPUSHW[ ]	/* 33 values pushed */\0129 29 25 29 41 29 57 29 73 29 89 29 105 29 121 29 137 29 153 29 169 29 185 29 201 29 217 29 233 29 249 29 16 \012DELTAP2[ ]	/* DeltaExceptionP2 */\012NPUSHW[ ]	/* 25 values pushed */\0129 29 25 29 41 29 57 29 73 29 89 29 105 29 121 29 137 29 153 29 169 29 185 29 12 \012DELTAP3[ ]	/* DeltaExceptionP3 */\012PUSHW[ ]	/* 1 value pushed */\01229 \012SRP0[ ]	/* SetRefPoint0 */\012PUSHW[ ]	/* 2 values pushed */\01233 1065 \012MIRP[10100]	/* MoveIndirectRelPt */\012PUSHW[ ]	/* 3 values pushed */\0122 61 33 \012SRP1[ ]	/* SetRefPoint1 */\012SRP2[ ]	/* SetRefPoint2 */\012IP[ ]	/* InterpolatePts */\012PUSHW[ ]	/* 3 values pushed */\0126 61 33 \012SRP1[ ]	/* SetRefPoint1 */\012SRP2[ ]	/* SetRefPoint2 */\012IP[ ]	/* InterpolatePts */\012PUSHW[ ]	/* 1 value pushed */\01261 \012SRP0[ ]	/* SetRefPoint0 */\012PUSHW[ ]	/* 2 values pushed */\01216 1066 \012MIRP[10100]	/* MoveIndirectRelPt */\012NPUSHW[ ]	/* 21 values pushed */\012102 16 118 16 134 16 150 16 166 16 182 16 198 16 214 16 230 16 246 16 10 \012DELTAP1[ ]	/* DeltaExceptionP1 */\012NPUSHW[ ]	/* 33 values pushed */\0126 16 22 16 38 16 54 16 70 16 86 16 102 16 118 16 134 16 150 16 166 16 182 16 198 16 214 16 230 16 246 16 16 \012DELTAP2[ ]	/* DeltaExceptionP2 */\012NPUSHW[ ]	/* 33 values pushed */\0126 16 22 16 38 16 54 16 70 16 86 16 102 16 118 16 134 16 150 16 166 16 182 16 198 16 214 16 230 16 246 16 16 \012DELTAP3[ ]	/* DeltaExceptionP3 */\012PUSHW[ ]	/* 3 values pushed */\01221 61 33 \012SRP1[ ]	/* SetRefPoint1 */\012SRP2[ ]	/* SetRefPoint2 */\012IP[ ]	/* InterpolatePts */\012PUSHW[ ]	/* 3 values pushed */\01263 61 33 \012SRP1[ ]	/* SetRefPoint1 */\012SRP2[ ]	/* SetRefPoint2 */\012IP[ ]	/* InterpolatePts */\012PUSHW[ ]	/* 1 value pushed */\01233 \012SRP0[ ]	/* SetRefPoint0 */\012PUSHW[ ]	/* 1 value pushed */\01288 \012MDRP[11100]	/* MoveDirectRelPt */\012SVTCA[0]	/* SetFreedomAndProjectionVectorToAxis */\012PUSHW[ ]	/* 1 value pushed */\01280 \012MDAP[1]	/* MoveDirectAbsPt */\012PUSHW[ ]	/* 1 value pushed */\01282 \012MDAP[1]	/* MoveDirectAbsPt */\012PUSHW[ ]	/* 1 value pushed */\01247 \012MDAP[1]	/* MoveDirectAbsPt */\012PUSHW[ ]	/* 1 value pushed */\01249 \012MDAP[1]	/* MoveDirectAbsPt */\012PUSHW[ ]	/* 1 value pushed */\01251 \012MDAP[1]	/* MoveDirectAbsPt */\012PUSHW[ ]	/* 3 values pushed */\0122 51 80 \012SRP1[ ]	/* SetRefPoint1 */\012SRP2[ ]	/* SetRefPoint2 */\012IP[ ]	/* InterpolatePts */\012PUSHW[ ]	/* 3 values pushed */\0126 51 80 \012SRP1[ ]	/* SetRefPoint1 */\012SRP2[ ]	/* SetRefPoint2 */\012IP[ ]	/* InterpolatePts */\012PUSHW[ ]	/* 3 values pushed */\01221 51 80 \012SRP1[ ]	/* SetRefPoint1 */\012SRP2[ ]	/* SetRefPoint2 */\012IP[ ]	/* InterpolatePts */\012PUSHW[ ]	/* 3 values pushed */\01263 51 80 \012SRP1[ ]	/* SetRefPoint1 */\012SRP2[ ]	/* SetRefPoint2 */\012IP[ ]	/* InterpolatePts */\012IUP[0]	/* InterpolateUntPts */\012IUP[1]	/* InterpolateUntPts */";
};
width = 634;
}
);
leftKerningGroup = O;
note = Oslash;
rightKerningGroup = O;
unicode = 00D8;
},
{
glyphname = OE;
lastChange = "2022-03-22 09:23:40 +0000";
layers = (
{
layerId = "16A236A6-57F5-4152-84D1-48D854BBAFA9";
paths = (
{
closed = 1;
nodes = (
"765 -93 OFFCURVE",
"821 -86 OFFCURVE",
"874 -73 CURVE SMOOTH",
"906 -65 OFFCURVE",
"953 -49 OFFCURVE",
"1016 -25 CURVE SMOOTH",
"1065 -6 OFFCURVE",
"1121 20 OFFCURVE",
"1186 55 CURVE SMOOTH",
"1217 71 OFFCURVE",
"1261 96 OFFCURVE",
"1321 131 CURVE SMOOTH",
"1331 137 OFFCURVE",
"1336 143 OFFCURVE",
"1336 149 CURVE SMOOTH",
"1336 153 OFFCURVE",
"1334 155 OFFCURVE",
"1329 155 CURVE SMOOTH",
"1325 155 OFFCURVE",
"1321 154 OFFCURVE",
"1316 151 CURVE SMOOTH",
"1176 78 LINE SMOOTH",
"1120 49 OFFCURVE",
"1069 27 OFFCURVE",
"1023 12 CURVE SMOOTH",
"871 -39 LINE SMOOTH",
"809 -57 OFFCURVE",
"751 -66 OFFCURVE",
"696 -66 CURVE SMOOTH",
"593 -66 OFFCURVE",
"541 -31 OFFCURVE",
"541 40 CURVE SMOOTH",
"541 93 OFFCURVE",
"571 161 OFFCURVE",
"632 244 CURVE",
"707 255 OFFCURVE",
"769 264 OFFCURVE",
"818 270 CURVE SMOOTH",
"867 276 OFFCURVE",
"903 279 OFFCURVE",
"926 279 CURVE SMOOTH",
"980 279 OFFCURVE",
"1028 272 OFFCURVE",
"1070 259 CURVE SMOOTH",
"1093 252 OFFCURVE",
"1104 242 OFFCURVE",
"1104 229 CURVE SMOOTH",
"1104 223 OFFCURVE",
"1100 218 OFFCURVE",
"1092 214 CURVE SMOOTH",
"1082 209 OFFCURVE",
"1077 202 OFFCURVE",
"1077 193 CURVE SMOOTH",
"1078 186 OFFCURVE",
"1081 183 OFFCURVE",
"1086 183 CURVE SMOOTH",
"1091 183 OFFCURVE",
"1097 186 OFFCURVE",
"1104 192 CURVE SMOOTH",
"1122 206 OFFCURVE",
"1131 222 OFFCURVE",
"1131 239 CURVE SMOOTH",
"1131 261 OFFCURVE",
"1115 278 OFFCURVE",
"1083 289 CURVE SMOOTH",
"1045 301 OFFCURVE",
"1003 307 OFFCURVE",
"957 307 CURVE SMOOTH",
"924 307 OFFCURVE",
"880 303 OFFCURVE",
"823 296 CURVE SMOOTH",
"716 283 OFFCURVE",
"661 276 OFFCURVE",
"658 275 CURVE",
"713 332 OFFCURVE",
"781 384 OFFCURVE",
"863 431 CURVE SMOOTH",
"968 492 OFFCURVE",
"1066 526 OFFCURVE",
"1156 532 CURVE SMOOTH",
"1216 536 OFFCURVE",
"1256 513 OFFCURVE",
"1256 469 CURVE SMOOTH",
"1256 465 OFFCURVE",
"1256 460 OFFCURVE",
"1255 453 CURVE SMOOTH",
"1254 446 OFFCURVE",
"1253 441 OFFCURVE",
"1253 438 CURVE SMOOTH",
"1253 418 OFFCURVE",
"1260 408 OFFCURVE",
"1273 408 CURVE SMOOTH",
"1291 408 OFFCURVE",
"1299 427 OFFCURVE",
"1299 466 CURVE SMOOTH",
"1299 497 OFFCURVE",
"1290 519 OFFCURVE",
"1272 532 CURVE SMOOTH",
"1255 545 OFFCURVE",
"1228 551 OFFCURVE",
"1189 551 CURVE SMOOTH",
"1173 551 LINE SMOOTH",
"1167 551 OFFCURVE",
"1161 551 OFFCURVE",
"1154 550 CURVE SMOOTH",
"1050 543 OFFCURVE",
"946 514 OFFCURVE",
"841 458 CURVE SMOOTH",
"814 444 OFFCURVE",
"788 429 OFFCURVE",
"763 413 CURVE",
"745 434 OFFCURVE",
"721 452 OFFCURVE",
"690 468 CURVE SMOOTH",
"629 499 OFFCURVE",
"556 515 OFFCURVE",
"472 515 CURVE SMOOTH",
"387 515 OFFCURVE",
"307 496 OFFCURVE",
"232 459 CURVE SMOOTH",
"145 414 OFFCURVE",
"102 357 OFFCURVE",
"102 286 CURVE SMOOTH",
"102 275 OFFCURVE",
"102 268 OFFCURVE",
"103 265 CURVE",
"67 219 OFFCURVE",
"43 171 OFFCURVE",
"32 122 CURVE SMOOTH",
"30 114 OFFCURVE",
"29 106 OFFCURVE",
"29 99 CURVE SMOOTH",
"29 55 OFFCURVE",
"55 19 OFFCURVE",
"106 -9 CURVE SMOOTH",
"152 -35 OFFCURVE",
"204 -48 OFFCURVE",
"263 -48 CURVE SMOOTH",
"274 -48 OFFCURVE",
"283 -47 OFFCURVE",
"294 -46 CURVE SMOOTH",
"367 -38 OFFCURVE",
"440 -20 OFFCURVE",
"511 7 CURVE",
"521 -12 OFFCURVE",
"535 -29 OFFCURVE",
"554 -45 CURVE SMOOTH",
"594 -77 OFFCURVE",
"645 -93 OFFCURVE",
"707 -93 CURVE SMOOTH"
);
},
{
closed = 1;
nodes = (
"221 -26 OFFCURVE",
"180 -15 OFFCURVE",
"145 8 CURVE SMOOTH",
"106 32 OFFCURVE",
"87 62 OFFCURVE",
"87 99 CURVE SMOOTH",
"87 133 OFFCURVE",
"100 171 OFFCURVE",
"127 212 CURVE",
"155 171 OFFCURVE",
"200 143 OFFCURVE",
"262 127 CURVE SMOOTH",
"271 125 OFFCURVE",
"276 126 OFFCURVE",
"276 130 CURVE SMOOTH",
"276 133 OFFCURVE",
"271 137 OFFCURVE",
"262 140 CURVE SMOOTH",
"205 155 OFFCURVE",
"165 186 OFFCURVE",
"142 235 CURVE",
"181 290 OFFCURVE",
"238 339 OFFCURVE",
"313 382 CURVE SMOOTH",
"366 411 OFFCURVE",
"415 432 OFFCURVE",
"460 445 CURVE SMOOTH",
"465 446 OFFCURVE",
"467 449 OFFCURVE",
"467 455 CURVE SMOOTH",
"467 464 OFFCURVE",
"464 472 OFFCURVE",
"457 479 CURVE",
"472 479 LINE SMOOTH",
"548 479 OFFCURVE",
"612 466 OFFCURVE",
"663 440 CURVE SMOOTH",
"690 425 OFFCURVE",
"711 409 OFFCURVE",
"726 389 CURVE",
"675 353 OFFCURVE",
"629 312 OFFCURVE",
"588 268 CURVE",
"577 267 OFFCURVE",
"567 266 OFFCURVE",
"558 266 CURVE SMOOTH",
"545 266 OFFCURVE",
"534 267 OFFCURVE",
"525 269 CURVE SMOOTH",
"518 270 OFFCURVE",
"514 273 OFFCURVE",
"514 277 CURVE SMOOTH",
"514 285 OFFCURVE",
"540 298 OFFCURVE",
"557 299 CURVE SMOOTH",
"576 300 OFFCURVE",
"585 303 OFFCURVE",
"585 309 CURVE SMOOTH",
"585 311 OFFCURVE",
"582 312 OFFCURVE",
"577 312 CURVE SMOOTH",
"572 312 LINE SMOOTH",
"534 310 OFFCURVE",
"504 301 OFFCURVE",
"483 284 CURVE SMOOTH",
"474 277 OFFCURVE",
"470 269 OFFCURVE",
"470 259 CURVE SMOOTH",
"470 242 OFFCURVE",
"485 227 OFFCURVE",
"505 228 CURVE SMOOTH",
"557 233 LINE",
"516 180 OFFCURVE",
"495 128 OFFCURVE",
"495 78 CURVE SMOOTH",
"495 59 OFFCURVE",
"497 43 OFFCURVE",
"502 29 CURVE",
"491 24 OFFCURVE",
"481 20 OFFCURVE",
"470 16 CURVE SMOOTH",
"393 -12 OFFCURVE",
"326 -26 OFFCURVE",
"269 -26 CURVE SMOOTH"
);
},
{
closed = 1;
nodes = (
"135 348 OFFCURVE",
"166 389 OFFCURVE",
"225 422 CURVE SMOOTH",
"272 448 OFFCURVE",
"331 466 OFFCURVE",
"403 475 CURVE",
"296 434 OFFCURVE",
"206 375 OFFCURVE",
"131 297 CURVE"
);
}
);
userData = {
assembly = "PUSHW[ ]	/* 1 value pushed */\01210 \012CALL[ ]	/* CallFunction */\012PUSHW[ ]	/* 4 values pushed */\012124 1070 23 14 \012CALL[ ]	/* CallFunction */\012PUSHW[ ]	/* 4 values pushed */\012167 1065 29 14 \012CALL[ ]	/* CallFunction */\012PUSHW[ ]	/* 4 values pushed */\01289 1070 135 14 \012CALL[ ]	/* CallFunction */\012PUSHW[ ]	/* 4 values pushed */\01249 1070 56 14 \012CALL[ ]	/* CallFunction */\012NPUSHW[ ]	/* 5 values pushed */\012202 56 218 56 2 \012DELTAP3[ ]	/* DeltaExceptionP3 */\012NPUSHW[ ]	/* 21 values pushed */\012105 56 121 56 137 56 153 56 169 56 185 56 201 56 217 56 233 56 249 56 10 \012DELTAP1[ ]	/* DeltaExceptionP1 */\012NPUSHW[ ]	/* 33 values pushed */\0129 56 25 56 41 56 57 56 73 56 89 56 105 56 121 56 137 56 153 56 169 56 185 56 201 56 217 56 233 56 249 56 16 \012DELTAP2[ ]	/* DeltaExceptionP2 */\012NPUSHW[ ]	/* 25 values pushed */\0129 56 25 56 41 56 57 56 73 56 89 56 105 56 121 56 137 56 153 56 169 56 185 56 12 \012DELTAP3[ ]	/* DeltaExceptionP3 */\012PUSHW[ ]	/* 1 value pushed */\01256 \012SRP0[ ]	/* SetRefPoint0 */\012PUSHW[ ]	/* 1 value pushed */\01253 \012MDRP[10000]	/* MoveDirectRelPt */\012PUSHW[ ]	/* 1 value pushed */\01253 \012MDAP[1]	/* MoveDirectAbsPt */\012NPUSHW[ ]	/* 21 values pushed */\012102 89 118 89 134 89 150 89 166 89 182 89 198 89 214 89 230 89 246 89 10 \012DELTAP1[ ]	/* DeltaExceptionP1 */\012NPUSHW[ ]	/* 33 values pushed */\0126 89 22 89 38 89 54 89 70 89 86 89 102 89 118 89 134 89 150 89 166 89 182 89 198 89 214 89 230 89 246 89 16 \012DELTAP2[ ]	/* DeltaExceptionP2 */\012NPUSHW[ ]	/* 25 values pushed */\0126 89 22 89 38 89 54 89 70 89 86 89 102 89 118 89 134 89 150 89 166 89 182 89 12 \012DELTAP3[ ]	/* DeltaExceptionP3 */\012NPUSHW[ ]	/* 5 values pushed */\012197 89 213 89 2 \012DELTAP3[ ]	/* DeltaExceptionP3 */\012PUSHW[ ]	/* 3 values pushed */\012106 23 49 \012SRP1[ ]	/* SetRefPoint1 */\012SRP2[ ]	/* SetRefPoint2 */\012IP[ ]	/* InterpolatePts */\012NPUSHW[ ]	/* 21 values pushed */\012102 167 118 167 134 167 150 167 166 167 182 167 198 167 214 167 230 167 246 167 10 \012DELTAP1[ ]	/* DeltaExceptionP1 */\012NPUSHW[ ]	/* 33 values pushed */\0126 167 22 167 38 167 54 167 70 167 86 167 102 167 118 167 134 167 150 167 166 167 182 167 198 167 214 167 230 167 246 167 16 \012DELTAP2[ ]	/* DeltaExceptionP2 */\012NPUSHW[ ]	/* 25 values pushed */\0126 167 22 167 38 167 54 167 70 167 86 167 102 167 118 167 134 167 150 167 166 167 182 167 12 \012DELTAP3[ ]	/* DeltaExceptionP3 */\012NPUSHW[ ]	/* 5 values pushed */\012197 167 213 167 2 \012DELTAP3[ ]	/* DeltaExceptionP3 */\012PUSHW[ ]	/* 3 values pushed */\012122 29 167 \012SRP1[ ]	/* SetRefPoint1 */\012SRP2[ ]	/* SetRefPoint2 */\012IP[ ]	/* InterpolatePts */\012NPUSHW[ ]	/* 21 values pushed */\012102 124 118 124 134 124 150 124 166 124 182 124 198 124 214 124 230 124 246 124 10 \012DELTAP1[ ]	/* DeltaExceptionP1 */\012NPUSHW[ ]	/* 33 values pushed */\0126 124 22 124 38 124 54 124 70 124 86 124 102 124 118 124 134 124 150 124 166 124 182 124 198 124 214 124 230 124 246 124 16 \012DELTAP2[ ]	/* DeltaExceptionP2 */\012NPUSHW[ ]	/* 25 values pushed */\0126 124 22 124 38 124 54 124 70 124 86 124 102 124 118 124 134 124 150 124 166 124 182 124 12 \012DELTAP3[ ]	/* DeltaExceptionP3 */\012NPUSHW[ ]	/* 5 values pushed */\012197 124 213 124 2 \012DELTAP3[ ]	/* DeltaExceptionP3 */\012PUSHW[ ]	/* 3 values pushed */\012137 23 49 \012SRP1[ ]	/* SetRefPoint1 */\012SRP2[ ]	/* SetRefPoint2 */\012IP[ ]	/* InterpolatePts */\012PUSHW[ ]	/* 3 values pushed */\012163 23 49 \012SRP1[ ]	/* SetRefPoint1 */\012SRP2[ ]	/* SetRefPoint2 */\012IP[ ]	/* InterpolatePts */\012PUSHW[ ]	/* 1 value pushed */\01249 \012SRP0[ ]	/* SetRefPoint0 */\012PUSHW[ ]	/* 1 value pushed */\012170 \012MDRP[11100]	/* MoveDirectRelPt */\012SVTCA[0]	/* SetFreedomAndProjectionVectorToAxis */\012PUSHW[ ]	/* 1 value pushed */\01242 \012MDAP[1]	/* MoveDirectAbsPt */\012PUSHW[ ]	/* 1 value pushed */\01245 \012MDAP[1]	/* MoveDirectAbsPt */\012PUSHW[ ]	/* 4 values pushed */\01291 1063 10 14 \012CALL[ ]	/* CallFunction */\012PUSHW[ ]	/* 4 values pushed */\012128 1061 19 14 \012CALL[ ]	/* CallFunction */\012PUSHW[ ]	/* 4 values pushed */\01233 1064 105 14 \012CALL[ ]	/* CallFunction */\012PUSHW[ ]	/* 4 values pushed */\01268 1064 84 14 \012CALL[ ]	/* CallFunction */\012PUSHW[ ]	/* 1 value pushed */\01219 \012SRP0[ ]	/* SetRefPoint0 */\012PUSHW[ ]	/* 1 value pushed */\01216 \012MDRP[10000]	/* MoveDirectRelPt */\012PUSHW[ ]	/* 1 value pushed */\01216 \012MDAP[1]	/* MoveDirectAbsPt */\012PUSHW[ ]	/* 1 value pushed */\01233 \012SRP0[ ]	/* SetRefPoint0 */\012PUSHW[ ]	/* 1 value pushed */\012149 \012MDRP[11100]	/* MoveDirectRelPt */\012PUSHW[ ]	/* 1 value pushed */\01265 \012MDRP[10000]	/* MoveDirectRelPt */\012PUSHW[ ]	/* 1 value pushed */\01265 \012MDAP[1]	/* MoveDirectAbsPt */\012PUSHW[ ]	/* 1 value pushed */\01268 \012SRP0[ ]	/* SetRefPoint0 */\012PUSHW[ ]	/* 1 value pushed */\012145 \012MDRP[10000]	/* MoveDirectRelPt */\012PUSHW[ ]	/* 1 value pushed */\012145 \012MDAP[1]	/* MoveDirectAbsPt */\012PUSHW[ ]	/* 1 value pushed */\012105 \012SRP0[ ]	/* SetRefPoint0 */\012PUSHW[ ]	/* 1 value pushed */\012163 \012MDRP[10000]	/* MoveDirectRelPt */\012PUSHW[ ]	/* 1 value pushed */\012163 \012MDAP[1]	/* MoveDirectAbsPt */\012PUSHW[ ]	/* 3 values pushed */\012167 149 65 \012SRP1[ ]	/* SetRefPoint1 */\012SRP2[ ]	/* SetRefPoint2 */\012IP[ ]	/* InterpolatePts */\012IUP[0]	/* InterpolateUntPts */\012IUP[1]	/* InterpolateUntPts */";
};
width = 1253;
}
);
leftKerningGroup = O;
note = OE;
rightKerningGroup = E;
unicode = 0152;
},
{
glyphname = P;
lastChange = "2022-03-22 13:35:02 +0000";
layers = (
{
layerId = "16A236A6-57F5-4152-84D1-48D854BBAFA9";
paths = (
{
closed = 1;
nodes = (
"118 -92 OFFCURVE",
"125 -91 OFFCURVE",
"133 -89 CURVE",
"153 -80 OFFCURVE",
"163 -73 OFFCURVE",
"163 -66 CURVE SMOOTH",
"163 -62 OFFCURVE",
"160 -60 OFFCURVE",
"154 -60 CURVE SMOOTH",
"146 -60 OFFCURVE",
"137 -63 OFFCURVE",
"126 -69 CURVE",
"123 -70 OFFCURVE",
"120 -70 OFFCURVE",
"115 -70 CURVE SMOOTH",
"99 -70 OFFCURVE",
"91 -61 OFFCURVE",
"91 -43 CURVE SMOOTH",
"91 1 OFFCURVE",
"128 70 OFFCURVE",
"202 163 CURVE",
"217 160 OFFCURVE",
"237 159 OFFCURVE",
"262 159 CURVE SMOOTH",
"307 159 OFFCURVE",
"357 164 OFFCURVE",
"412 175 CURVE SMOOTH",
"559 204 OFFCURVE",
"750 306 OFFCURVE",
"750 440 CURVE SMOOTH",
"750 565 OFFCURVE",
"574 601 OFFCURVE",
"407 596 CURVE SMOOTH",
"261 592 OFFCURVE",
"64 526 OFFCURVE",
"64 402 CURVE SMOOTH",
"64 363 OFFCURVE",
"104 320 OFFCURVE",
"144 312 CURVE SMOOTH",
"153 310 OFFCURVE",
"158 312 OFFCURVE",
"158 317 CURVE SMOOTH",
"158 323 OFFCURVE",
"152 328 OFFCURVE",
"140 331 CURVE SMOOTH",
"128 334 OFFCURVE",
"118 342 OFFCURVE",
"109 354 CURVE SMOOTH",
"100 367 OFFCURVE",
"96 381 OFFCURVE",
"96 396 CURVE SMOOTH",
"96 503 OFFCURVE",
"316 572 OFFCURVE",
"446 572 CURVE SMOOTH",
"583 572 OFFCURVE",
"714 545 OFFCURVE",
"714 430 CURVE SMOOTH",
"714 315 OFFCURVE",
"542 221 OFFCURVE",
"407 195 CURVE SMOOTH",
"360 186 OFFCURVE",
"321 181 OFFCURVE",
"286 181 CURVE SMOOTH",
"261 181 OFFCURVE",
"240 183 OFFCURVE",
"222 188 CURVE",
"291 272 OFFCURVE",
"377 354 OFFCURVE",
"481 441 CURVE SMOOTH",
"492 450 OFFCURVE",
"498 458 OFFCURVE",
"498 464 CURVE SMOOTH",
"498 465 OFFCURVE",
"498 466 OFFCURVE",
"497 467 CURVE SMOOTH",
"494 472 OFFCURVE",
"486 475 OFFCURVE",
"475 475 CURVE SMOOTH",
"454 475 OFFCURVE",
"441 471 OFFCURVE",
"434 463 CURVE",
"434 462 OFFCURVE",
"422 455 OFFCURVE",
"399 442 CURVE SMOOTH",
"381 431 OFFCURVE",
"372 421 OFFCURVE",
"372 414 CURVE SMOOTH",
"372 411 OFFCURVE",
"374 408 OFFCURVE",
"377 405 CURVE",
"280 307 LINE SMOOTH",
"245 271 OFFCURVE",
"216 237 OFFCURVE",
"189 202 CURVE",
"182 207 LINE",
"172 230 OFFCURVE",
"162 242 OFFCURVE",
"152 242 CURVE SMOOTH",
"141 242 OFFCURVE",
"137 231 OFFCURVE",
"137 211 CURVE SMOOTH",
"137 198 OFFCURVE",
"139 185 OFFCURVE",
"167 173 CURVE",
"104 86 OFFCURVE",
"72 14 OFFCURVE",
"72 -41 CURVE SMOOTH",
"72 -75 OFFCURVE",
"85 -92 OFFCURVE",
"112 -92 CURVE SMOOTH"
);
}
);
userData = {
assembly = "PUSHW[ ]	/* 1 value pushed */\01210 \012CALL[ ]	/* CallFunction */\012PUSHW[ ]	/* 4 values pushed */\0120 1067 62 14 \012CALL[ ]	/* CallFunction */\012NPUSHW[ ]	/* 21 values pushed */\012105 62 121 62 137 62 153 62 169 62 185 62 201 62 217 62 233 62 249 62 10 \012DELTAP1[ ]	/* DeltaExceptionP1 */\012NPUSHW[ ]	/* 33 values pushed */\0129 62 25 62 41 62 57 62 73 62 89 62 105 62 121 62 137 62 153 62 169 62 185 62 201 62 217 62 233 62 249 62 16 \012DELTAP2[ ]	/* DeltaExceptionP2 */\012NPUSHW[ ]	/* 33 values pushed */\0129 62 25 62 41 62 57 62 73 62 89 62 105 62 121 62 137 62 153 62 169 62 185 62 201 62 217 62 233 62 249 62 16 \012DELTAP3[ ]	/* DeltaExceptionP3 */\012SVTCA[0]	/* SetFreedomAndProjectionVectorToAxis */\012PUSHW[ ]	/* 4 values pushed */\01216 1064 22 14 \012CALL[ ]	/* CallFunction */\012PUSHW[ ]	/* 4 values pushed */\01291 1061 66 14 \012CALL[ ]	/* CallFunction */\012PUSHW[ ]	/* 4 values pushed */\01255 1061 6 14 \012CALL[ ]	/* CallFunction */\012PUSHW[ ]	/* 1 value pushed */\0126 \012SRP0[ ]	/* SetRefPoint0 */\012PUSHW[ ]	/* 1 value pushed */\0128 \012MDRP[10000]	/* MoveDirectRelPt */\012PUSHW[ ]	/* 1 value pushed */\0128 \012MDAP[1]	/* MoveDirectAbsPt */\012IUP[0]	/* InterpolateUntPts */\012IUP[1]	/* InterpolateUntPts */";
};
width = 565;
}
);
note = P;
unicode = 0050;
},
{
glyphname = Thorn;
lastChange = "2022-03-18 06:00:18 +0000";
layers = (
{
layerId = "16A236A6-57F5-4152-84D1-48D854BBAFA9";
paths = (
{
closed = 1;
nodes = (
"91 -156 OFFCURVE",
"98 -155 OFFCURVE",
"106 -153 CURVE",
"126 -144 OFFCURVE",
"136 -137 OFFCURVE",
"136 -130 CURVE SMOOTH",
"136 -126 OFFCURVE",
"133 -124 OFFCURVE",
"127 -124 CURVE SMOOTH",
"119 -124 OFFCURVE",
"110 -127 OFFCURVE",
"99 -133 CURVE",
"96 -134 OFFCURVE",
"93 -134 OFFCURVE",
"88 -134 CURVE SMOOTH",
"72 -134 OFFCURVE",
"64 -125 OFFCURVE",
"64 -107 CURVE SMOOTH",
"64 -1 OFFCURVE",
"411 437 OFFCURVE",
"589 586 CURVE SMOOTH",
"600 595 OFFCURVE",
"606 603 OFFCURVE",
"606 609 CURVE SMOOTH",
"606 610 OFFCURVE",
"606 611 OFFCURVE",
"605 612 CURVE SMOOTH",
"602 617 OFFCURVE",
"594 620 OFFCURVE",
"583 620 CURVE SMOOTH",
"562 620 OFFCURVE",
"549 616 OFFCURVE",
"542 608 CURVE",
"542 607 OFFCURVE",
"530 600 OFFCURVE",
"507 587 CURVE SMOOTH",
"489 576 OFFCURVE",
"480 566 OFFCURVE",
"480 559 CURVE SMOOTH",
"480 556 OFFCURVE",
"482 553 OFFCURVE",
"485 550 CURVE",
"405 473 OFFCURVE",
"299 340 OFFCURVE",
"198 208 CURVE SMOOTH",
"131 121 OFFCURVE",
"45 -28 OFFCURVE",
"45 -105 CURVE SMOOTH",
"45 -139 OFFCURVE",
"58 -156 OFFCURVE",
"85 -156 CURVE SMOOTH"
);
},
{
closed = 1;
nodes = (
"240 107 OFFCURVE",
"290 112 OFFCURVE",
"345 123 CURVE SMOOTH",
"492 152 OFFCURVE",
"683 254 OFFCURVE",
"683 369 CURVE SMOOTH",
"683 475 OFFCURVE",
"523 506 OFFCURVE",
"372 502 CURVE SMOOTH",
"239 498 OFFCURVE",
"60 442 OFFCURVE",
"60 336 CURVE SMOOTH",
"60 303 OFFCURVE",
"96 267 OFFCURVE",
"133 260 CURVE SMOOTH",
"141 258 OFFCURVE",
"145 260 OFFCURVE",
"145 264 CURVE SMOOTH",
"145 269 OFFCURVE",
"140 273 OFFCURVE",
"129 276 CURVE SMOOTH",
"118 278 OFFCURVE",
"109 285 OFFCURVE",
"101 296 CURVE SMOOTH",
"93 307 OFFCURVE",
"89 319 OFFCURVE",
"89 331 CURVE SMOOTH",
"89 423 OFFCURVE",
"289 481 OFFCURVE",
"407 481 CURVE SMOOTH",
"530 481 OFFCURVE",
"648 458 OFFCURVE",
"650 362 CURVE SMOOTH",
"649 264 OFFCURVE",
"476 169 OFFCURVE",
"340 143 CURVE SMOOTH",
"293 134 OFFCURVE",
"254 129 OFFCURVE",
"219 129 CURVE SMOOTH",
"194 129 OFFCURVE",
"173 131 OFFCURVE",
"155 136 CURVE SMOOTH",
"120 149 OFFCURVE",
"98 160 OFFCURVE",
"88 160 CURVE SMOOTH",
"78 160 OFFCURVE",
"73 156 OFFCURVE",
"73 148 CURVE SMOOTH",
"73 123 OFFCURVE",
"142 107 OFFCURVE",
"195 107 CURVE SMOOTH"
);
}
);
width = 565;
}
);
unicode = 00DE;
},
{
glyphname = Q;
lastChange = "2022-03-22 13:35:06 +0000";
layers = (
{
layerId = "16A236A6-57F5-4152-84D1-48D854BBAFA9";
paths = (
{
closed = 1;
nodes = (
"763 -255 OFFCURVE",
"802 -241 OFFCURVE",
"837 -212 CURVE SMOOTH",
"874 -183 OFFCURVE",
"896 -148 OFFCURVE",
"905 -108 CURVE SMOOTH",
"906 -101 OFFCURVE",
"905 -98 OFFCURVE",
"904 -98 CURVE SMOOTH",
"896 -98 OFFCURVE",
"890 -108 OFFCURVE",
"885 -128 CURVE SMOOTH",
"878 -158 OFFCURVE",
"858 -181 OFFCURVE",
"826 -196 CURVE SMOOTH",
"797 -209 OFFCURVE",
"765 -216 OFFCURVE",
"728 -216 CURVE SMOOTH",
"616 -216 OFFCURVE",
"513 -180 OFFCURVE",
"420 -109 CURVE SMOOTH",
"340 -45 LINE",
"443 -20 OFFCURVE",
"535 25 OFFCURVE",
"616 90 CURVE SMOOTH",
"714 169 OFFCURVE",
"770 261 OFFCURVE",
"784 367 CURVE SMOOTH",
"786 380 OFFCURVE",
"787 392 OFFCURVE",
"787 404 CURVE SMOOTH",
"787 473 OFFCURVE",
"759 525 OFFCURVE",
"702 559 CURVE SMOOTH",
"657 588 OFFCURVE",
"597 602 OFFCURVE",
"522 602 CURVE SMOOTH",
"444 602 OFFCURVE",
"368 579 OFFCURVE",
"295 534 CURVE SMOOTH",
"208 480 OFFCURVE",
"159 410 OFFCURVE",
"147 325 CURVE SMOOTH",
"146 314 OFFCURVE",
"145 305 OFFCURVE",
"145 300 CURVE",
"99 238 OFFCURVE",
"69 180 OFFCURVE",
"55 127 CURVE SMOOTH",
"50 109 OFFCURVE",
"48 93 OFFCURVE",
"48 78 CURVE SMOOTH",
"48 66 OFFCURVE",
"49 55 OFFCURVE",
"52 45 CURVE",
"43 30 OFFCURVE",
"38 18 OFFCURVE",
"38 7 CURVE SMOOTH",
"38 4 OFFCURVE",
"41 -3 OFFCURVE",
"41 -13 CURVE SMOOTH",
"41 -15 OFFCURVE",
"40 -16 OFFCURVE",
"40 -17 CURVE",
"37 -24 OFFCURVE",
"42 -27 OFFCURVE",
"54 -27 CURVE SMOOTH",
"58 -27 OFFCURVE",
"60 -26 OFFCURVE",
"59 -23 CURVE SMOOTH",
"58 -17 OFFCURVE",
"58 -12 OFFCURVE",
"58 -8 CURVE SMOOTH",
"58 2 OFFCURVE",
"59 10 OFFCURVE",
"62 16 CURVE",
"88 -35 OFFCURVE",
"143 -60 OFFCURVE",
"227 -60 CURVE SMOOTH",
"244 -60 OFFCURVE",
"263 -59 OFFCURVE",
"283 -56 CURVE",
"391 -140 LINE SMOOTH",
"490 -217 OFFCURVE",
"599 -255 OFFCURVE",
"719 -255 CURVE SMOOTH"
);
},
{
closed = 1;
nodes = (
"160 -38 OFFCURVE",
"109 -10 OFFCURVE",
"99 50 CURVE",
"125 53 OFFCURVE",
"176 25 OFFCURVE",
"253 -34 CURVE"
);
},
{
closed = 1;
nodes = (
"287 -4 LINE SMOOTH",
"210 56 OFFCURVE",
"153 86 OFFCURVE",
"117 86 CURVE SMOOTH",
"110 86 OFFCURVE",
"105 85 OFFCURVE",
"98 84 CURVE",
"101 99 OFFCURVE",
"104 112 OFFCURVE",
"109 127 CURVE SMOOTH",
"126 175 OFFCURVE",
"142 211 OFFCURVE",
"157 235 CURVE",
"165 214 OFFCURVE",
"180 193 OFFCURVE",
"203 170 CURVE SMOOTH",
"228 144 OFFCURVE",
"250 131 OFFCURVE",
"270 131 CURVE SMOOTH",
"275 131 OFFCURVE",
"277 133 OFFCURVE",
"277 137 CURVE SMOOTH",
"277 142 OFFCURVE",
"273 146 OFFCURVE",
"266 149 CURVE SMOOTH",
"217 167 OFFCURVE",
"187 205 OFFCURVE",
"175 264 CURVE",
"220 331 OFFCURVE",
"280 390 OFFCURVE",
"355 441 CURVE SMOOTH",
"408 477 OFFCURVE",
"455 502 OFFCURVE",
"498 517 CURVE SMOOTH",
"503 519 OFFCURVE",
"506 525 OFFCURVE",
"507 534 CURVE SMOOTH",
"507 543 OFFCURVE",
"505 551 OFFCURVE",
"501 559 CURVE",
"515 559 LINE SMOOTH",
"581 559 OFFCURVE",
"634 547 OFFCURVE",
"673 524 CURVE SMOOTH",
"721 495 OFFCURVE",
"745 451 OFFCURVE",
"745 392 CURVE SMOOTH",
"745 380 OFFCURVE",
"744 368 OFFCURVE",
"742 355 CURVE SMOOTH",
"727 252 OFFCURVE",
"673 164 OFFCURVE",
"578 91 CURVE SMOOTH",
"500 32 OFFCURVE",
"413 -7 OFFCURVE",
"316 -26 CURVE"
);
},
{
closed = 1;
nodes = (
"188 400 OFFCURVE",
"224 450 OFFCURVE",
"282 489 CURVE SMOOTH",
"329 521 OFFCURVE",
"385 543 OFFCURVE",
"452 554 CURVE",
"349 505 OFFCURVE",
"257 433 OFFCURVE",
"175 338 CURVE"
);
}
);
userData = {
assembly = "PUSHW[ ]	/* 1 value pushed */\01210 \012CALL[ ]	/* CallFunction */\012PUSHW[ ]	/* 4 values pushed */\01239 1070 64 14 \012CALL[ ]	/* CallFunction */\012PUSHW[ ]	/* 1 value pushed */\01239 \012SRP0[ ]	/* SetRefPoint0 */\012PUSHW[ ]	/* 1 value pushed */\01241 \012MDRP[10000]	/* MoveDirectRelPt */\012PUSHW[ ]	/* 1 value pushed */\01241 \012MDAP[1]	/* MoveDirectAbsPt */\012NPUSHW[ ]	/* 5 values pushed */\012202 64 218 64 2 \012DELTAP3[ ]	/* DeltaExceptionP3 */\012NPUSHW[ ]	/* 21 values pushed */\012105 64 121 64 137 64 153 64 169 64 185 64 201 64 217 64 233 64 249 64 10 \012DELTAP1[ ]	/* DeltaExceptionP1 */\012NPUSHW[ ]	/* 33 values pushed */\0129 64 25 64 41 64 57 64 73 64 89 64 105 64 121 64 137 64 153 64 169 64 185 64 201 64 217 64 233 64 249 64 16 \012DELTAP2[ ]	/* DeltaExceptionP2 */\012NPUSHW[ ]	/* 25 values pushed */\0129 64 25 64 41 64 57 64 73 64 89 64 105 64 121 64 137 64 153 64 169 64 185 64 12 \012DELTAP3[ ]	/* DeltaExceptionP3 */\012PUSHW[ ]	/* 1 value pushed */\01264 \012SRP0[ ]	/* SetRefPoint0 */\012PUSHW[ ]	/* 1 value pushed */\01262 \012MDRP[10000]	/* MoveDirectRelPt */\012PUSHW[ ]	/* 1 value pushed */\01262 \012MDAP[1]	/* MoveDirectAbsPt */\012PUSHW[ ]	/* 1 value pushed */\01239 \012SRP0[ ]	/* SetRefPoint0 */\012PUSHW[ ]	/* 1 value pushed */\012107 \012MDRP[11100]	/* MoveDirectRelPt */\012SVTCA[0]	/* SetFreedomAndProjectionVectorToAxis */\012PUSHW[ ]	/* 4 values pushed */\01248 1064 4 14 \012CALL[ ]	/* CallFunction */\012PUSHW[ ]	/* 4 values pushed */\01235 1064 68 14 \012CALL[ ]	/* CallFunction */\012PUSHW[ ]	/* 4 values pushed */\012102 1063 10 14 \012CALL[ ]	/* CallFunction */\012PUSHW[ ]	/* 1 value pushed */\01210 \012SRP0[ ]	/* SetRefPoint0 */\012PUSHW[ ]	/* 1 value pushed */\01295 \012MDRP[11100]	/* MoveDirectRelPt */\012PUSHW[ ]	/* 3 values pushed */\01212 10 95 \012SRP1[ ]	/* SetRefPoint1 */\012SRP2[ ]	/* SetRefPoint2 */\012IP[ ]	/* InterpolatePts */\012PUSHW[ ]	/* 1 value pushed */\012102 \012SRP0[ ]	/* SetRefPoint0 */\012PUSHW[ ]	/* 1 value pushed */\01216 \012MDRP[10000]	/* MoveDirectRelPt */\012PUSHW[ ]	/* 1 value pushed */\01216 \012MDAP[1]	/* MoveDirectAbsPt */\012PUSHW[ ]	/* 3 values pushed */\01245 10 102 \012SRP1[ ]	/* SetRefPoint1 */\012SRP2[ ]	/* SetRefPoint2 */\012IP[ ]	/* InterpolatePts */\012IUP[0]	/* InterpolateUntPts */\012IUP[1]	/* InterpolateUntPts */";
};
width = 696;
}
);
note = Q;
unicode = 0051;
},
{
color = 3;
glyphname = R;
lastChange = "2022-03-22 13:33:49 +0000";
layers = (
{
anchors = (
{
name = bottom;
position = "{313, 0}";
},
{
name = top;
position = "{583, 620}";
}
);
layerId = "16A236A6-57F5-4152-84D1-48D854BBAFA9";
paths = (
{
closed = 1;
nodes = (
"775 -168 OFFCURVE",
"809 -157 OFFCURVE",
"840 -136 CURVE SMOOTH",
"871 -115 OFFCURVE",
"890 -89 OFFCURVE",
"899 -56 CURVE",
"900 -54 OFFCURVE",
"900 -52 OFFCURVE",
"900 -50 CURVE SMOOTH",
"900 -47 OFFCURVE",
"899 -46 OFFCURVE",
"898 -46 CURVE SMOOTH",
"889 -46 OFFCURVE",
"883 -54 OFFCURVE",
"879 -71 CURVE SMOOTH",
"869 -110 OFFCURVE",
"838 -130 OFFCURVE",
"785 -130 CURVE SMOOTH",
"765 -130 OFFCURVE",
"745 -127 OFFCURVE",
"724 -121 CURVE SMOOTH",
"671 -107 OFFCURVE",
"583 -30 OFFCURVE",
"458 111 CURVE SMOOTH",
"425 148 OFFCURVE",
"393 181 OFFCURVE",
"362 208 CURVE",
"405 220 LINE SMOOTH",
"488 243 OFFCURVE",
"556 279 OFFCURVE",
"612 319 CURVE SMOOTH",
"680 369 OFFCURVE",
"716 420 OFFCURVE",
"716 475 CURVE SMOOTH",
"716 510 OFFCURVE",
"699 539 OFFCURVE",
"664 561 CURVE SMOOTH",
"624 586 OFFCURVE",
"565 598 OFFCURVE",
"485 598 CURVE SMOOTH",
"399 598 OFFCURVE",
"323 585 OFFCURVE",
"258 559 CURVE SMOOTH",
"181 529 OFFCURVE",
"133 485 OFFCURVE",
"112 427 CURVE",
"109 421 OFFCURVE",
"108 413 OFFCURVE",
"108 404 CURVE SMOOTH",
"108 365 OFFCURVE",
"146 322 OFFCURVE",
"187 314 CURVE SMOOTH",
"197 312 OFFCURVE",
"202 314 OFFCURVE",
"202 319 CURVE SMOOTH",
"202 325 OFFCURVE",
"196 330 OFFCURVE",
"184 333 CURVE SMOOTH",
"172 336 OFFCURVE",
"162 344 OFFCURVE",
"153 356 CURVE SMOOTH",
"144 369 OFFCURVE",
"140 383 OFFCURVE",
"140 398 CURVE SMOOTH",
"140 406 OFFCURVE",
"141 413 OFFCURVE",
"144 419 CURVE SMOOTH",
"163 470 OFFCURVE",
"213 511 OFFCURVE",
"294 543 CURVE SMOOTH",
"359 569 OFFCURVE",
"416 582 OFFCURVE",
"467 582 CURVE SMOOTH",
"536 582 OFFCURVE",
"590 570 OFFCURVE",
"630 546 CURVE SMOOTH",
"665 525 OFFCURVE",
"683 498 OFFCURVE",
"683 465 CURVE SMOOTH",
"683 460 OFFCURVE",
"683 456 OFFCURVE",
"682 451 CURVE SMOOTH",
"670 365 OFFCURVE",
"573 293 OFFCURVE",
"392 235 CURVE SMOOTH",
"376 230 OFFCURVE",
"360 226 OFFCURVE",
"345 223 CURVE",
"330 236 OFFCURVE",
"315 247 OFFCURVE",
"299 258 CURVE",
"344 311 OFFCURVE",
"409 373 OFFCURVE",
"495 445 CURVE SMOOTH",
"506 454 OFFCURVE",
"512 462 OFFCURVE",
"512 468 CURVE SMOOTH",
"512 469 OFFCURVE",
"511 470 OFFCURVE",
"511 471 CURVE",
"508 476 OFFCURVE",
"500 479 OFFCURVE",
"489 479 CURVE SMOOTH",
"470 479 OFFCURVE",
"456 475 OFFCURVE",
"448 467 CURVE",
"394 431 LINE SMOOTH",
"377 420 OFFCURVE",
"363 410 OFFCURVE",
"353 403 CURVE SMOOTH",
"342 396 OFFCURVE",
"335 390 OFFCURVE",
"332 387 CURVE",
"351 392 OFFCURVE",
"370 400 OFFCURVE",
"391 409 CURVE",
"348 364 OFFCURVE",
"308 319 OFFCURVE",
"271 275 CURVE",
"254 284 OFFCURVE",
"239 289 OFFCURVE",
"226 289 CURVE SMOOTH",
"218 289 OFFCURVE",
"211 287 OFFCURVE",
"206 284 CURVE SMOOTH",
"186 273 OFFCURVE",
"176 260 OFFCURVE",
"176 245 CURVE SMOOTH",
"176 228 OFFCURVE",
"189 213 OFFCURVE",
"214 202 CURVE",
"170 140 LINE SMOOTH",
"136 92 OFFCURVE",
"117 54 OFFCURVE",
"106 27 CURVE SMOOTH",
"103 18 OFFCURVE",
"101 12 OFFCURVE",
"101 7 CURVE SMOOTH",
"101 -4 OFFCURVE",
"107 -9 OFFCURVE",
"120 -9 CURVE SMOOTH",
"143 -9 OFFCURVE",
"178 6 OFFCURVE",
"225 37 CURVE SMOOTH",
"226 38 OFFCURVE",
"227 39 OFFCURVE",
"227 40 CURVE SMOOTH",
"227 43 OFFCURVE",
"224 43 OFFCURVE",
"219 42 CURVE SMOOTH",
"213 42 OFFCURVE",
"207 40 OFFCURVE",
"202 37 CURVE",
"189 26 OFFCURVE",
"174 20 OFFCURVE",
"158 20 CURVE SMOOTH",
"154 20 OFFCURVE",
"152 22 OFFCURVE",
"152 27 CURVE SMOOTH",
"152 45 OFFCURVE",
"174 92 OFFCURVE",
"225 161 CURVE SMOOTH",
"239 180 LINE SMOOTH",
"242 185 OFFCURVE",
"245 190 OFFCURVE",
"248 193 CURVE",
"250 193 LINE SMOOTH",
"279 193 OFFCURVE",
"308 196 OFFCURVE",
"336 202 CURVE",
"357 182 OFFCURVE",
"383 154 OFFCURVE",
"412 119 CURVE SMOOTH",
"561 -58 OFFCURVE",
"657 -152 OFFCURVE",
"699 -163 CURVE SMOOTH",
"714 -166 OFFCURVE",
"727 -168 OFFCURVE",
"740 -168 CURVE SMOOTH"
);
},
{
closed = 1;
nodes = (
"217 224 OFFCURVE",
"212 229 OFFCURVE",
"212 236 CURVE SMOOTH",
"212 252 OFFCURVE",
"229 261 OFFCURVE",
"245 261 CURVE SMOOTH",
"250 261 OFFCURVE",
"254 260 OFFCURVE",
"258 259 CURVE",
"227 219 LINE"
);
},
{
closed = 1;
nodes = (
"267 219 OFFCURVE",
"272 226 OFFCURVE",
"277 231 CURVE SMOOTH",
"281 236 OFFCURVE",
"284 241 OFFCURVE",
"287 244 CURVE",
"302 233 OFFCURVE",
"312 225 OFFCURVE",
"319 218 CURVE",
"290 214 OFFCURVE",
"271 212 OFFCURVE",
"262 212 CURVE"
);
}
);
userData = {
assembly = "PUSHW[ ]	/* 1 value pushed */\01210 \012CALL[ ]	/* CallFunction */\012PUSHW[ ]	/* 3 values pushed */\012136 95 13 \012CALL[ ]	/* CallFunction */\012PUSHW[ ]	/* 1 value pushed */\01295 \012SRP0[ ]	/* SetRefPoint0 */\012PUSHW[ ]	/* 1 value pushed */\01233 \012MDRP[10000]	/* MoveDirectRelPt */\012PUSHW[ ]	/* 1 value pushed */\01233 \012MDAP[1]	/* MoveDirectAbsPt */\012NPUSHW[ ]	/* 21 values pushed */\012102 136 118 136 134 136 150 136 166 136 182 136 198 136 214 136 230 136 246 136 10 \012DELTAP1[ ]	/* DeltaExceptionP1 */\012NPUSHW[ ]	/* 7 values pushed */\0126 136 22 136 38 136 3 \012DELTAP2[ ]	/* DeltaExceptionP2 */\012NPUSHW[ ]	/* 5 values pushed */\01253 136 69 136 2 \012DELTAP2[ ]	/* DeltaExceptionP2 */\012PUSHW[ ]	/* 1 value pushed */\012136 \012SRP0[ ]	/* SetRefPoint0 */\012PUSHW[ ]	/* 2 values pushed */\01241 1069 \012MIRP[10100]	/* MoveIndirectRelPt */\012SVTCA[0]	/* SetFreedomAndProjectionVectorToAxis */\012PUSHW[ ]	/* 1 value pushed */\0121060 \012RCVT[ ]	/* ReadCVT */\012IF[ ]	/* If */\012PUSHW[ ]	/* 1 value pushed */\01231 \012MDAP[1]	/* MoveDirectAbsPt */\012ELSE[ ]	/* Else */\012PUSHW[ ]	/* 2 values pushed */\01231 1071 \012MIAP[0]	/* MoveIndirectAbsPt */\012EIF[ ]	/* EndIf */\012PUSHW[ ]	/* 4 values pushed */\012117 1064 4 14 \012CALL[ ]	/* CallFunction */\012IUP[0]	/* InterpolateUntPts */\012IUP[1]	/* InterpolateUntPts */";
};
width = 565;
}
);
leftKerningGroup = R;
note = R;
rightKerningGroup = R;
unicode = 0052;
},
{
color = 3;
glyphname = S;
lastChange = "2022-03-22 13:33:58 +0000";
layers = (
{
anchors = (
{
name = bottom;
position = "{150, -144}";
},
{
name = cedilla;
position = "{324, -64}";
},
{
name = top;
position = "{743, 660}";
}
);
layerId = "16A236A6-57F5-4152-84D1-48D854BBAFA9";
paths = (
{
closed = 1;
nodes = (
"95 -144 OFFCURVE",
"161 -128 OFFCURVE",
"250 -97 CURVE SMOOTH",
"378 -52 OFFCURVE",
"480 3 OFFCURVE",
"561 67 CURVE",
"587 70 LINE SMOOTH",
"595 71 OFFCURVE",
"603 71 OFFCURVE",
"610 72 CURVE SMOOTH",
"623 73 OFFCURVE",
"629 76 OFFCURVE",
"629 83 CURVE SMOOTH",
"629 87 OFFCURVE",
"626 89 OFFCURVE",
"620 89 CURVE SMOOTH",
"615 89 LINE SMOOTH",
"604 89 OFFCURVE",
"596 89 OFFCURVE",
"591 88 CURVE SMOOTH",
"584 87 LINE",
"635 133 OFFCURVE",
"660 178 OFFCURVE",
"658 223 CURVE",
"660 249 OFFCURVE",
"638 269 OFFCURVE",
"591 284 CURVE SMOOTH",
"566 292 OFFCURVE",
"518 301 OFFCURVE",
"447 311 CURVE SMOOTH",
"360 324 OFFCURVE",
"316 347 OFFCURVE",
"316 378 CURVE SMOOTH",
"316 387 OFFCURVE",
"319 397 OFFCURVE",
"325 409 CURVE SMOOTH",
"352 464 OFFCURVE",
"401 509 OFFCURVE",
"472 543 CURVE SMOOTH",
"538 574 OFFCURVE",
"607 591 OFFCURVE",
"680 591 CURVE SMOOTH",
"738 591 OFFCURVE",
"767 575 OFFCURVE",
"767 543 CURVE SMOOTH",
"767 530 OFFCURVE",
"762 516 OFFCURVE",
"752 500 CURVE SMOOTH",
"748 493 OFFCURVE",
"746 488 OFFCURVE",
"746 485 CURVE SMOOTH",
"746 482 OFFCURVE",
"747 481 OFFCURVE",
"749 481 CURVE SMOOTH",
"754 481 OFFCURVE",
"760 487 OFFCURVE",
"767 498 CURVE SMOOTH",
"785 526 OFFCURVE",
"794 549 OFFCURVE",
"794 568 CURVE SMOOTH",
"794 604 OFFCURVE",
"762 622 OFFCURVE",
"699 622 CURVE SMOOTH",
"611 622 OFFCURVE",
"521 594 OFFCURVE",
"427 539 CURVE SMOOTH",
"341 489 OFFCURVE",
"290 440 OFFCURVE",
"275 393 CURVE SMOOTH",
"271 381 OFFCURVE",
"269 370 OFFCURVE",
"269 361 CURVE SMOOTH",
"269 336 OFFCURVE",
"284 317 OFFCURVE",
"313 304 CURVE SMOOTH",
"336 294 OFFCURVE",
"377 285 OFFCURVE",
"435 277 CURVE SMOOTH",
"498 268 OFFCURVE",
"535 262 OFFCURVE",
"546 259 CURVE SMOOTH",
"582 248 OFFCURVE",
"600 229 OFFCURVE",
"600 204 CURVE SMOOTH",
"600 197 OFFCURVE",
"599 191 OFFCURVE",
"597 184 CURVE SMOOTH",
"588 149 OFFCURVE",
"561 113 OFFCURVE",
"517 78 CURVE",
"436 66 OFFCURVE",
"348 48 OFFCURVE",
"252 25 CURVE SMOOTH",
"199 12 OFFCURVE",
"145 -9 OFFCURVE",
"89 -38 CURVE SMOOTH",
"32 -68 OFFCURVE",
"2 -90 OFFCURVE",
"-2 -105 CURVE",
"-3 -107 OFFCURVE",
"-3 -110 OFFCURVE",
"-3 -115 CURVE SMOOTH",
"-3 -134 OFFCURVE",
"15 -144 OFFCURVE",
"50 -144 CURVE SMOOTH"
);
},
{
closed = 1;
nodes = (
"35 -120 OFFCURVE",
"31 -118 OFFCURVE",
"31 -114 CURVE SMOOTH",
"31 -113 LINE SMOOTH",
"31 -100 OFFCURVE",
"57 -82 OFFCURVE",
"108 -58 CURVE SMOOTH",
"159 -35 OFFCURVE",
"206 -17 OFFCURVE",
"253 -6 CURVE SMOOTH",
"350 18 OFFCURVE",
"424 37 OFFCURVE",
"480 52 CURVE",
"414 7 OFFCURVE",
"334 -32 OFFCURVE",
"239 -65 CURVE SMOOTH",
"139 -102 OFFCURVE",
"74 -120 OFFCURVE",
"44 -120 CURVE SMOOTH"
);
}
);
userData = {
assembly = "PUSHW[ ]	/* 1 value pushed */\01210 \012CALL[ ]	/* CallFunction */\012PUSHW[ ]	/* 4 values pushed */\01216 1070 62 14 \012CALL[ ]	/* CallFunction */\012PUSHW[ ]	/* 4 values pushed */\01222 1070 54 14 \012CALL[ ]	/* CallFunction */\012PUSHW[ ]	/* 4 values pushed */\01270 1065 8 14 \012CALL[ ]	/* CallFunction */\012NPUSHW[ ]	/* 5 values pushed */\012202 8 218 8 2 \012DELTAP3[ ]	/* DeltaExceptionP3 */\012NPUSHW[ ]	/* 21 values pushed */\012105 8 121 8 137 8 153 8 169 8 185 8 201 8 217 8 233 8 249 8 10 \012DELTAP1[ ]	/* DeltaExceptionP1 */\012NPUSHW[ ]	/* 33 values pushed */\0129 8 25 8 41 8 57 8 73 8 89 8 105 8 121 8 137 8 153 8 169 8 185 8 201 8 217 8 233 8 249 8 16 \012DELTAP2[ ]	/* DeltaExceptionP2 */\012NPUSHW[ ]	/* 25 values pushed */\0129 8 25 8 41 8 57 8 73 8 89 8 105 8 121 8 137 8 153 8 169 8 185 8 12 \012DELTAP3[ ]	/* DeltaExceptionP3 */\012NPUSHW[ ]	/* 21 values pushed */\012102 16 118 16 134 16 150 16 166 16 182 16 198 16 214 16 230 16 246 16 10 \012DELTAP1[ ]	/* DeltaExceptionP1 */\012NPUSHW[ ]	/* 33 values pushed */\0126 16 22 16 38 16 54 16 70 16 86 16 102 16 118 16 134 16 150 16 166 16 182 16 198 16 214 16 230 16 246 16 16 \012DELTAP2[ ]	/* DeltaExceptionP2 */\012NPUSHW[ ]	/* 25 values pushed */\0126 16 22 16 38 16 54 16 70 16 86 16 102 16 118 16 134 16 150 16 166 16 182 16 12 \012DELTAP3[ ]	/* DeltaExceptionP3 */\012NPUSHW[ ]	/* 5 values pushed */\012197 16 213 16 2 \012DELTAP3[ ]	/* DeltaExceptionP3 */\012NPUSHW[ ]	/* 5 values pushed */\012202 54 218 54 2 \012DELTAP3[ ]	/* DeltaExceptionP3 */\012NPUSHW[ ]	/* 21 values pushed */\012105 54 121 54 137 54 153 54 169 54 185 54 201 54 217 54 233 54 249 54 10 \012DELTAP1[ ]	/* DeltaExceptionP1 */\012NPUSHW[ ]	/* 33 values pushed */\0129 54 25 54 41 54 57 54 73 54 89 54 105 54 121 54 137 54 153 54 169 54 185 54 201 54 217 54 233 54 249 54 16 \012DELTAP2[ ]	/* DeltaExceptionP2 */\012NPUSHW[ ]	/* 25 values pushed */\0129 54 25 54 41 54 57 54 73 54 89 54 105 54 121 54 137 54 153 54 169 54 185 54 12 \012DELTAP3[ ]	/* DeltaExceptionP3 */\012PUSHW[ ]	/* 3 values pushed */\01272 62 70 \012SRP1[ ]	/* SetRefPoint1 */\012SRP2[ ]	/* SetRefPoint2 */\012IP[ ]	/* InterpolatePts */\012PUSHW[ ]	/* 1 value pushed */\01270 \012SRP0[ ]	/* SetRefPoint0 */\012PUSHW[ ]	/* 1 value pushed */\01287 \012MDRP[11100]	/* MoveDirectRelPt */\012SVTCA[0]	/* SetFreedomAndProjectionVectorToAxis */\012PUSHW[ ]	/* 4 values pushed */\01282 1061 39 14 \012CALL[ ]	/* CallFunction */\012PUSHW[ ]	/* 4 values pushed */\01268 1064 10 14 \012CALL[ ]	/* CallFunction */\012IUP[0]	/* InterpolateUntPts */\012IUP[1]	/* InterpolateUntPts */";
};
width = 666;
}
);
leftKerningGroup = S;
note = S;
rightKerningGroup = S;
unicode = 0053;
},
{
glyphname = Germandbls;
lastChange = "2022-03-18 06:00:18 +0000";
layers = (
{
layerId = "16A236A6-57F5-4152-84D1-48D854BBAFA9";
paths = (
{
closed = 1;
nodes = (
"-43 -110 OFFCURVE",
"15 -71 OFFCURVE",
"80 5 CURVE SMOOTH",
"128 63 OFFCURVE",
"183 139 OFFCURVE",
"241 243 CURVE SMOOTH",
"353 442 LINE SMOOTH",
"402 530 OFFCURVE",
"459 588 OFFCURVE",
"518 588 CURVE SMOOTH",
"565 588 OFFCURVE",
"601 550 OFFCURVE",
"601 500 CURVE SMOOTH",
"601 488 OFFCURVE",
"599 476 OFFCURVE",
"595 463 CURVE SMOOTH",
"564 367 OFFCURVE",
"467 290 OFFCURVE",
"358 290 CURVE SMOOTH",
"345 290 OFFCURVE",
"328 291 OFFCURVE",
"318 294 CURVE",
"312 267 OFFCURVE",
"345 265 OFFCURVE",
"360 265 CURVE SMOOTH",
"459 265 OFFCURVE",
"499 226 OFFCURVE",
"499 177 CURVE SMOOTH",
"499 122 OFFCURVE",
"445 54 OFFCURVE",
"368 22 CURVE SMOOTH",
"311 -2 OFFCURVE",
"255 -13 OFFCURVE",
"211 -13 CURVE SMOOTH",
"172 -13 OFFCURVE",
"142 -4 OFFCURVE",
"129 12 CURVE",
"117 15 OFFCURVE",
"116 6 OFFCURVE",
"116 -2 CURVE SMOOTH",
"116 -27 OFFCURVE",
"149 -37 OFFCURVE",
"193 -37 CURVE SMOOTH",
"253 -37 OFFCURVE",
"335 -19 OFFCURVE",
"384 1 CURVE SMOOTH",
"495 43 OFFCURVE",
"550 100 OFFCURVE",
"550 172 CURVE SMOOTH",
"550 203 OFFCURVE",
"535 229 OFFCURVE",
"506 250 CURVE SMOOTH",
"483 267 OFFCURVE",
"454 278 OFFCURVE",
"417 285 CURVE",
"512 287 OFFCURVE",
"608 379 OFFCURVE",
"633 475 CURVE SMOOTH",
"637 489 OFFCURVE",
"638 502 OFFCURVE",
"638 513 CURVE SMOOTH",
"638 584 OFFCURVE",
"575 609 OFFCURVE",
"515 609 CURVE SMOOTH",
"462 609 OFFCURVE",
"414 601 OFFCURVE",
"354 521 CURVE SMOOTH",
"321 480 OFFCURVE",
"275 384 OFFCURVE",
"232 302 CURVE SMOOTH",
"199 239 OFFCURVE",
"172 189 OFFCURVE",
"150 149 CURVE SMOOTH",
"127 110 OFFCURVE",
"110 82 OFFCURVE",
"99 65 CURVE SMOOTH",
"28 -40 OFFCURVE",
"-39 -93 OFFCURVE",
"-100 -93 CURVE SMOOTH",
"-106 -93 OFFCURVE",
"-110 -96 OFFCURVE",
"-112 -100 CURVE",
"-112 -107 OFFCURVE",
"-106 -110 OFFCURVE",
"-93 -110 CURVE SMOOTH"
);
}
);
width = 636;
}
);
unicode = 1E9E;
},
{
glyphname = Schwa;
lastChange = "2022-03-18 06:00:18 +0000";
layers = (
{
layerId = "16A236A6-57F5-4152-84D1-48D854BBAFA9";
paths = (
{
closed = 1;
nodes = (
"366 -64 OFFCURVE",
"553 14 OFFCURVE",
"678 167 CURVE SMOOTH",
"773 282 OFFCURVE",
"787 338 OFFCURVE",
"787 391 CURVE SMOOTH",
"787 492 OFFCURVE",
"701 556 OFFCURVE",
"592 556 CURVE SMOOTH",
"396 556 OFFCURVE",
"214 460 OFFCURVE",
"77 357 CURVE",
"69 352 OFFCURVE",
"64 346 OFFCURVE",
"64 339 CURVE SMOOTH",
"64 335 OFFCURVE",
"67 333 OFFCURVE",
"72 333 CURVE SMOOTH",
"74 333 OFFCURVE",
"78 334 OFFCURVE",
"83 337 CURVE SMOOTH",
"174 404 OFFCURVE",
"308 473 OFFCURVE",
"443 506 CURVE SMOOTH",
"496 519 OFFCURVE",
"548 526 OFFCURVE",
"599 526 CURVE SMOOTH",
"704 526 OFFCURVE",
"753 489 OFFCURVE",
"753 422 CURVE SMOOTH",
"753 384 OFFCURVE",
"736 337 OFFCURVE",
"705 281 CURVE",
"702 309 OFFCURVE",
"646 328 OFFCURVE",
"562 328 CURVE SMOOTH",
"384 328 OFFCURVE",
"45 212 OFFCURVE",
"45 38 CURVE SMOOTH",
"45 -19 OFFCURVE",
"89 -64 OFFCURVE",
"183 -64 CURVE SMOOTH"
);
},
{
closed = 1;
nodes = (
"135 -41 OFFCURVE",
"102 -12 OFFCURVE",
"102 36 CURVE SMOOTH",
"102 182 OFFCURVE",
"341 302 OFFCURVE",
"557 302 CURVE SMOOTH",
"618 302 OFFCURVE",
"670 292 OFFCURVE",
"693 263 CURVE",
"684 249 OFFCURVE",
"675 237 OFFCURVE",
"665 223 CURVE SMOOTH",
"577 107 OFFCURVE",
"361 -41 OFFCURVE",
"208 -41 CURVE SMOOTH"
);
}
);
width = 780;
}
);
unicode = 018F;
},
{
color = 3;
glyphname = T;
lastChange = "2022-03-22 15:12:39 +0000";
layers = (
{
anchors = (
{
name = bottom;
position = "{199, -71}";
},
{
name = cedilla;
position = "{250, -67}";
},
{
name = center;
position = "{631, 300}";
},
{
name = top;
position = "{819, 570}";
}
);
layerId = "16A236A6-57F5-4152-84D1-48D854BBAFA9";
paths = (
{
closed = 1;
nodes = (
"291 -71 OFFCURVE",
"362 -43 OFFCURVE",
"433 11 CURVE SMOOTH",
"486 52 OFFCURVE",
"532 102 OFFCURVE",
"570 161 CURVE SMOOTH",
"633 268 OFFCURVE",
"684 357 OFFCURVE",
"725 430 CURVE",
"742 419 OFFCURVE",
"770 407 OFFCURVE",
"811 393 CURVE SMOOTH",
"829 387 OFFCURVE",
"846 384 OFFCURVE",
"862 384 CURVE SMOOTH",
"905 384 OFFCURVE",
"927 402 OFFCURVE",
"927 437 CURVE SMOOTH",
"927 457 OFFCURVE",
"915 477 OFFCURVE",
"890 497 CURVE SMOOTH",
"865 516 OFFCURVE",
"840 526 OFFCURVE",
"815 526 CURVE SMOOTH",
"789 526 OFFCURVE",
"769 521 OFFCURVE",
"754 513 CURVE SMOOTH",
"743 506 OFFCURVE",
"731 495 OFFCURVE",
"716 478 CURVE",
"611 521 OFFCURVE",
"528 550 OFFCURVE",
"467 567 CURVE SMOOTH",
"380 592 OFFCURVE",
"296 604 OFFCURVE",
"214 604 CURVE SMOOTH",
"164 604 OFFCURVE",
"122 595 OFFCURVE",
"87 578 CURVE SMOOTH",
"48 557 OFFCURVE",
"28 527 OFFCURVE",
"28 490 CURVE SMOOTH",
"28 465 OFFCURVE",
"35 443 OFFCURVE",
"48 426 CURVE SMOOTH",
"55 417 OFFCURVE",
"70 404 OFFCURVE",
"95 387 CURVE",
"99 383 OFFCURVE",
"106 380 OFFCURVE",
"114 380 CURVE SMOOTH",
"117 380 OFFCURVE",
"118 381 OFFCURVE",
"118 383 CURVE SMOOTH",
"118 386 OFFCURVE",
"116 389 OFFCURVE",
"112 392 CURVE SMOOTH",
"75 426 OFFCURVE",
"57 464 OFFCURVE",
"57 505 CURVE SMOOTH",
"57 555 OFFCURVE",
"104 580 OFFCURVE",
"197 580 CURVE SMOOTH",
"279 580 OFFCURVE",
"364 565 OFFCURVE",
"456 536 CURVE SMOOTH",
"485 527 OFFCURVE",
"564 497 OFFCURVE",
"694 446 CURVE",
"532 177 LINE SMOOTH",
"491 109 OFFCURVE",
"451 60 OFFCURVE",
"414 28 CURVE SMOOTH",
"356 -24 OFFCURVE",
"292 -52 OFFCURVE",
"223 -52 CURVE SMOOTH",
"182 -52 OFFCURVE",
"146 -37 OFFCURVE",
"114 -6 CURVE SMOOTH",
"82 24 OFFCURVE",
"66 58 OFFCURVE",
"66 96 CURVE SMOOTH",
"66 129 OFFCURVE",
"77 158 OFFCURVE",
"92 183 CURVE SMOOTH",
"107 205 OFFCURVE",
"122 217 OFFCURVE",
"139 220 CURVE SMOOTH",
"150 222 OFFCURVE",
"156 225 OFFCURVE",
"156 230 CURVE SMOOTH",
"156 232 OFFCURVE",
"153 233 OFFCURVE",
"148 233 CURVE SMOOTH",
"143 233 LINE SMOOTH",
"118 233 OFFCURVE",
"95 218 OFFCURVE",
"74 197 CURVE SMOOTH",
"46 171 OFFCURVE",
"31 138 OFFCURVE",
"31 99 CURVE SMOOTH",
"31 55 OFFCURVE",
"50 15 OFFCURVE",
"88 -19 CURVE SMOOTH",
"126 -54 OFFCURVE",
"170 -71 OFFCURVE",
"219 -71 CURVE SMOOTH"
);
},
{
closed = 1;
nodes = (
"867 417 OFFCURVE",
"846 422 OFFCURVE",
"817 432 CURVE SMOOTH",
"792 441 OFFCURVE",
"768 451 OFFCURVE",
"747 462 CURVE",
"762 493 OFFCURVE",
"784 508 OFFCURVE",
"813 508 CURVE SMOOTH",
"836 508 OFFCURVE",
"858 500 OFFCURVE",
"878 482 CURVE SMOOTH",
"895 467 OFFCURVE",
"904 452 OFFCURVE",
"904 437 CURVE SMOOTH",
"904 424 OFFCURVE",
"896 417 OFFCURVE",
"880 417 CURVE SMOOTH"
);
}
);
userData = {
assembly = "PUSHW[ ]	/* 1 value pushed */\01210 \012CALL[ ]	/* CallFunction */\012PUSHW[ ]	/* 4 values pushed */\01245 1065 57 14 \012CALL[ ]	/* CallFunction */\012PUSHW[ ]	/* 1 value pushed */\01257 \012SRP0[ ]	/* SetRefPoint0 */\012PUSHW[ ]	/* 1 value pushed */\01217 \012MDRP[10000]	/* MoveDirectRelPt */\012PUSHW[ ]	/* 1 value pushed */\01217 \012MDAP[1]	/* MoveDirectAbsPt */\012NPUSHW[ ]	/* 21 values pushed */\012102 45 118 45 134 45 150 45 166 45 182 45 198 45 214 45 230 45 246 45 10 \012DELTAP1[ ]	/* DeltaExceptionP1 */\012NPUSHW[ ]	/* 33 values pushed */\0126 45 22 45 38 45 54 45 70 45 86 45 102 45 118 45 134 45 150 45 166 45 182 45 198 45 214 45 230 45 246 45 16 \012DELTAP2[ ]	/* DeltaExceptionP2 */\012NPUSHW[ ]	/* 25 values pushed */\0126 45 22 45 38 45 54 45 70 45 86 45 102 45 118 45 134 45 150 45 166 45 182 45 12 \012DELTAP3[ ]	/* DeltaExceptionP3 */\012NPUSHW[ ]	/* 5 values pushed */\012197 45 213 45 2 \012DELTAP3[ ]	/* DeltaExceptionP3 */\012SVTCA[0]	/* SetFreedomAndProjectionVectorToAxis */\012PUSHW[ ]	/* 4 values pushed */\01261 1061 43 14 \012CALL[ ]	/* CallFunction */\012PUSHW[ ]	/* 4 values pushed */\01285 1064 2 14 \012CALL[ ]	/* CallFunction */\012PUSHW[ ]	/* 1 value pushed */\0122 \012SRP0[ ]	/* SetRefPoint0 */\012PUSHW[ ]	/* 1 value pushed */\01271 \012MDRP[11100]	/* MoveDirectRelPt */\012IUP[0]	/* InterpolateUntPts */\012IUP[1]	/* InterpolateUntPts */";
};
width = 657;
}
);
leftKerningGroup = T;
note = T;
rightKerningGroup = T;
unicode = 0054;
},
{
color = 3;
glyphname = U;
lastChange = "2022-03-22 09:33:01 +0000";
layers = (
{
anchors = (
{
name = bottom;
position = "{290, -21}";
},
{
name = horn;
position = "{921, 594}";
},
{
name = ogonek;
position = "{759, -75}";
},
{
name = top;
position = "{784, 620}";
}
);
layerId = "16A236A6-57F5-4152-84D1-48D854BBAFA9";
paths = (
{
closed = 1;
nodes = (
"709 -100 OFFCURVE",
"739 -90 OFFCURVE",
"768 -70 CURVE SMOOTH",
"779 -62 OFFCURVE",
"785 -53 OFFCURVE",
"785 -44 CURVE SMOOTH",
"785 -39 OFFCURVE",
"783 -36 OFFCURVE",
"779 -36 CURVE SMOOTH",
"776 -36 OFFCURVE",
"772 -38 OFFCURVE",
"769 -41 CURVE SMOOTH",
"740 -70 OFFCURVE",
"713 -84 OFFCURVE",
"687 -84 CURVE SMOOTH",
"673 -84 OFFCURVE",
"665 -77 OFFCURVE",
"662 -62 CURVE SMOOTH",
"660 -50 OFFCURVE",
"659 -37 OFFCURVE",
"659 -22 CURVE SMOOTH",
"659 48 OFFCURVE",
"684 140 OFFCURVE",
"733 254 CURVE",
"762 285 LINE SMOOTH",
"772 295 OFFCURVE",
"782 306 OFFCURVE",
"791 317 CURVE SMOOTH",
"887 425 OFFCURVE",
"935 508 OFFCURVE",
"935 567 CURVE SMOOTH",
"935 585 OFFCURVE",
"929 594 OFFCURVE",
"918 594 CURVE SMOOTH",
"915 594 OFFCURVE",
"911 593 OFFCURVE",
"907 591 CURVE SMOOTH",
"878 577 OFFCURVE",
"845 541 OFFCURVE",
"809 483 CURVE SMOOTH",
"782 438 OFFCURVE",
"758 392 OFFCURVE",
"737 344 CURVE SMOOTH",
"720 305 OFFCURVE",
"707 277 OFFCURVE",
"699 261 CURVE",
"531 86 OFFCURVE",
"406 -2 OFFCURVE",
"325 -2 CURVE SMOOTH",
"306 -2 OFFCURVE",
"296 10 OFFCURVE",
"296 35 CURVE SMOOTH",
"296 84 OFFCURVE",
"334 158 OFFCURVE",
"409 259 CURVE SMOOTH",
"473 344 OFFCURVE",
"529 405 OFFCURVE",
"552 442 CURVE SMOOTH",
"574 477 OFFCURVE",
"585 511 OFFCURVE",
"585 539 CURVE SMOOTH",
"585 577 OFFCURVE",
"563 604 OFFCURVE",
"513 604 CURVE SMOOTH",
"451 604 OFFCURVE",
"376 578 OFFCURVE",
"287 525 CURVE SMOOTH",
"236 494 OFFCURVE",
"189 457 OFFCURVE",
"146 414 CURVE SMOOTH",
"106 373 OFFCURVE",
"83 339 OFFCURVE",
"76 314 CURVE SMOOTH",
"73 305 OFFCURVE",
"72 296 OFFCURVE",
"72 287 CURVE SMOOTH",
"72 258 OFFCURVE",
"92 243 OFFCURVE",
"133 243 CURVE SMOOTH",
"151 243 OFFCURVE",
"160 247 OFFCURVE",
"160 255 CURVE SMOOTH",
"160 260 OFFCURVE",
"154 260 OFFCURVE",
"141 260 CURVE SMOOTH",
"115 260 OFFCURVE",
"102 268 OFFCURVE",
"102 285 CURVE SMOOTH",
"102 290 OFFCURVE",
"104 295 OFFCURVE",
"107 302 CURVE SMOOTH",
"145 378 OFFCURVE",
"211 444 OFFCURVE",
"304 500 CURVE SMOOTH",
"395 555 OFFCURVE",
"464 582 OFFCURVE",
"511 582 CURVE SMOOTH",
"530 582 OFFCURVE",
"539 571 OFFCURVE",
"539 550 CURVE SMOOTH",
"539 517 OFFCURVE",
"514 466 OFFCURVE",
"463 395 CURVE SMOOTH",
"430 351 OFFCURVE",
"397 307 OFFCURVE",
"362 263 CURVE SMOOTH",
"296 175 OFFCURVE",
"263 105 OFFCURVE",
"263 52 CURVE SMOOTH",
"263 27 OFFCURVE",
"270 9 OFFCURVE",
"284 -4 CURVE SMOOTH",
"297 -15 OFFCURVE",
"312 -21 OFFCURVE",
"330 -21 CURVE SMOOTH",
"409 -20 OFFCURVE",
"523 52 OFFCURVE",
"672 195 CURVE",
"642 111 OFFCURVE",
"627 43 OFFCURVE",
"627 -10 CURVE SMOOTH",
"627 -31 OFFCURVE",
"629 -49 OFFCURVE",
"633 -66 CURVE SMOOTH",
"638 -89 OFFCURVE",
"653 -100 OFFCURVE",
"679 -100 CURVE SMOOTH"
);
},
{
closed = 1;
nodes = (
"799 392 OFFCURVE",
"822 436 OFFCURVE",
"847 477 CURVE SMOOTH",
"884 538 OFFCURVE",
"905 568 OFFCURVE",
"908 569 CURVE SMOOTH",
"914 570 OFFCURVE",
"917 567 OFFCURVE",
"917 562 CURVE SMOOTH",
"917 543 OFFCURVE",
"897 506 OFFCURVE",
"857 451 CURVE SMOOTH",
"831 414 OFFCURVE",
"804 379 OFFCURVE",
"776 346 CURVE"
);
}
);
userData = {
assembly = "PUSHW[ ]	/* 1 value pushed */\01210 \012CALL[ ]	/* CallFunction */\012PUSHW[ ]	/* 4 values pushed */\01211 1068 29 14 \012CALL[ ]	/* CallFunction */\012PUSHW[ ]	/* 4 values pushed */\01272 1070 44 14 \012CALL[ ]	/* CallFunction */\012PUSHW[ ]	/* 4 values pushed */\01279 1068 37 14 \012CALL[ ]	/* CallFunction */\012NPUSHW[ ]	/* 5 values pushed */\012202 29 218 29 2 \012DELTAP3[ ]	/* DeltaExceptionP3 */\012NPUSHW[ ]	/* 21 values pushed */\012105 29 121 29 137 29 153 29 169 29 185 29 201 29 217 29 233 29 249 29 10 \012DELTAP1[ ]	/* DeltaExceptionP1 */\012NPUSHW[ ]	/* 33 values pushed */\0129 29 25 29 41 29 57 29 73 29 89 29 105 29 121 29 137 29 153 29 169 29 185 29 201 29 217 29 233 29 249 29 16 \012DELTAP2[ ]	/* DeltaExceptionP2 */\012NPUSHW[ ]	/* 25 values pushed */\0129 29 25 29 41 29 57 29 73 29 89 29 105 29 121 29 137 29 153 29 169 29 185 29 12 \012DELTAP3[ ]	/* DeltaExceptionP3 */\012NPUSHW[ ]	/* 5 values pushed */\012202 44 218 44 2 \012DELTAP3[ ]	/* DeltaExceptionP3 */\012NPUSHW[ ]	/* 21 values pushed */\012105 44 121 44 137 44 153 44 169 44 185 44 201 44 217 44 233 44 249 44 10 \012DELTAP1[ ]	/* DeltaExceptionP1 */\012NPUSHW[ ]	/* 33 values pushed */\0129 44 25 44 41 44 57 44 73 44 89 44 105 44 121 44 137 44 153 44 169 44 185 44 201 44 217 44 233 44 249 44 16 \012DELTAP2[ ]	/* DeltaExceptionP2 */\012NPUSHW[ ]	/* 25 values pushed */\0129 44 25 44 41 44 57 44 73 44 89 44 105 44 121 44 137 44 153 44 169 44 185 44 12 \012DELTAP3[ ]	/* DeltaExceptionP3 */\012NPUSHW[ ]	/* 21 values pushed */\012102 79 118 79 134 79 150 79 166 79 182 79 198 79 214 79 230 79 246 79 10 \012DELTAP1[ ]	/* DeltaExceptionP1 */\012NPUSHW[ ]	/* 33 values pushed */\0126 79 22 79 38 79 54 79 70 79 86 79 102 79 118 79 134 79 150 79 166 79 182 79 198 79 214 79 230 79 246 79 16 \012DELTAP2[ ]	/* DeltaExceptionP2 */\012NPUSHW[ ]	/* 25 values pushed */\0126 79 22 79 38 79 54 79 70 79 86 79 102 79 118 79 134 79 150 79 166 79 182 79 12 \012DELTAP3[ ]	/* DeltaExceptionP3 */\012NPUSHW[ ]	/* 5 values pushed */\012197 79 213 79 2 \012DELTAP3[ ]	/* DeltaExceptionP3 */\012PUSHW[ ]	/* 1 value pushed */\01211 \012SRP0[ ]	/* SetRefPoint0 */\012PUSHW[ ]	/* 1 value pushed */\012101 \012MDRP[11100]	/* MoveDirectRelPt */\012SVTCA[0]	/* SetFreedomAndProjectionVectorToAxis */\012PUSHW[ ]	/* 1 value pushed */\01225 \012MDAP[1]	/* MoveDirectAbsPt */\012PUSHW[ ]	/* 1 value pushed */\0121060 \012RCVT[ ]	/* ReadCVT */\012IF[ ]	/* If */\012PUSHW[ ]	/* 1 value pushed */\01211 \012MDAP[1]	/* MoveDirectAbsPt */\012ELSE[ ]	/* Else */\012PUSHW[ ]	/* 2 values pushed */\01211 1071 \012MIAP[0]	/* MoveIndirectAbsPt */\012EIF[ ]	/* EndIf */\012PUSHW[ ]	/* 1 value pushed */\0121060 \012RCVT[ ]	/* ReadCVT */\012IF[ ]	/* If */\012PUSHW[ ]	/* 1 value pushed */\01233 \012MDAP[1]	/* MoveDirectAbsPt */\012ELSE[ ]	/* Else */\012PUSHW[ ]	/* 2 values pushed */\01233 1071 \012MIAP[0]	/* MoveIndirectAbsPt */\012EIF[ ]	/* EndIf */\012PUSHW[ ]	/* 4 values pushed */\01268 1061 46 14 \012CALL[ ]	/* CallFunction */\012IUP[0]	/* InterpolateUntPts */\012IUP[1]	/* InterpolateUntPts */";
};
width = 767;
}
);
leftKerningGroup = U;
note = U;
rightKerningGroup = U;
unicode = 0055;
},
{
glyphname = V;
lastChange = "2022-03-22 13:35:14 +0000";
layers = (
{
layerId = "16A236A6-57F5-4152-84D1-48D854BBAFA9";
paths = (
{
closed = 1;
nodes = (
"331 -20 OFFCURVE",
"402 13 OFFCURVE",
"489 77 CURVE SMOOTH",
"573 138 OFFCURVE",
"654 212 OFFCURVE",
"732 300 CURVE SMOOTH",
"815 393 OFFCURVE",
"857 471 OFFCURVE",
"857 534 CURVE SMOOTH",
"857 577 OFFCURVE",
"836 599 OFFCURVE",
"795 599 CURVE SMOOTH",
"783 599 OFFCURVE",
"768 596 OFFCURVE",
"751 591 CURVE SMOOTH",
"738 587 OFFCURVE",
"731 581 OFFCURVE",
"731 573 CURVE SMOOTH",
"731 570 OFFCURVE",
"734 568 OFFCURVE",
"739 568 CURVE SMOOTH",
"742 568 OFFCURVE",
"744 568 OFFCURVE",
"746 569 CURVE",
"765 574 OFFCURVE",
"781 577 OFFCURVE",
"792 577 CURVE SMOOTH",
"820 577 OFFCURVE",
"834 565 OFFCURVE",
"834 541 CURVE SMOOTH",
"834 494 OFFCURVE",
"789 421 OFFCURVE",
"700 320 CURVE SMOOTH",
"620 231 OFFCURVE",
"545 157 OFFCURVE",
"473 100 CURVE SMOOTH",
"388 31 OFFCURVE",
"321 -2 OFFCURVE",
"273 -2 CURVE SMOOTH",
"257 -2 OFFCURVE",
"249 12 OFFCURVE",
"249 40 CURVE SMOOTH",
"249 66 OFFCURVE",
"257 99 OFFCURVE",
"272 139 CURVE SMOOTH",
"289 181 OFFCURVE",
"311 221 OFFCURVE",
"340 259 CURVE SMOOTH",
"405 344 OFFCURVE",
"448 405 OFFCURVE",
"471 442 CURVE SMOOTH",
"497 485 OFFCURVE",
"510 517 OFFCURVE",
"510 540 CURVE SMOOTH",
"510 559 OFFCURVE",
"500 577 OFFCURVE",
"481 595 CURVE",
"474 600 OFFCURVE",
"463 603 OFFCURVE",
"448 603 CURVE SMOOTH",
"391 603 OFFCURVE",
"317 576 OFFCURVE",
"224 522 CURVE SMOOTH",
"171 491 OFFCURVE",
"124 455 OFFCURVE",
"81 414 CURVE SMOOTH",
"39 374 OFFCURVE",
"14 341 OFFCURVE",
"7 314 CURVE SMOOTH",
"4 305 OFFCURVE",
"3 297 OFFCURVE",
"3 288 CURVE SMOOTH",
"3 258 OFFCURVE",
"23 243 OFFCURVE",
"64 243 CURVE SMOOTH",
"82 243 OFFCURVE",
"91 247 OFFCURVE",
"91 255 CURVE SMOOTH",
"91 260 OFFCURVE",
"85 260 OFFCURVE",
"72 260 CURVE SMOOTH",
"46 260 OFFCURVE",
"33 269 OFFCURVE",
"33 286 CURVE SMOOTH",
"33 291 OFFCURVE",
"34 297 OFFCURVE",
"37 302 CURVE SMOOTH",
"74 377 OFFCURVE",
"140 443 OFFCURVE",
"235 500 CURVE SMOOTH",
"326 555 OFFCURVE",
"394 582 OFFCURVE",
"441 582 CURVE SMOOTH",
"460 582 OFFCURVE",
"470 571 OFFCURVE",
"470 550 CURVE SMOOTH",
"470 517 OFFCURVE",
"445 466 OFFCURVE",
"394 395 CURVE SMOOTH",
"361 351 OFFCURVE",
"328 307 OFFCURVE",
"293 263 CURVE SMOOTH",
"238 190 OFFCURVE",
"211 125 OFFCURVE",
"211 68 CURVE SMOOTH",
"211 12 OFFCURVE",
"241 -21 OFFCURVE",
"278 -21 CURVE SMOOTH"
);
}
);
userData = {
assembly = "PUSHW[ ]	/* 1 value pushed */\01210 \012CALL[ ]	/* CallFunction */\012PUSHW[ ]	/* 4 values pushed */\0124 1066 67 14 \012CALL[ ]	/* CallFunction */\012PUSHW[ ]	/* 4 values pushed */\01249 1070 20 14 \012CALL[ ]	/* CallFunction */\012PUSHW[ ]	/* 4 values pushed */\01258 1070 13 14 \012CALL[ ]	/* CallFunction */\012NPUSHW[ ]	/* 5 values pushed */\012202 20 218 20 2 \012DELTAP3[ ]	/* DeltaExceptionP3 */\012NPUSHW[ ]	/* 21 values pushed */\012105 20 121 20 137 20 153 20 169 20 185 20 201 20 217 20 233 20 249 20 10 \012DELTAP1[ ]	/* DeltaExceptionP1 */\012NPUSHW[ ]	/* 33 values pushed */\0129 20 25 20 41 20 57 20 73 20 89 20 105 20 121 20 137 20 153 20 169 20 185 20 201 20 217 20 233 20 249 20 16 \012DELTAP2[ ]	/* DeltaExceptionP2 */\012NPUSHW[ ]	/* 25 values pushed */\0129 20 25 20 41 20 57 20 73 20 89 20 105 20 121 20 137 20 153 20 169 20 185 20 12 \012DELTAP3[ ]	/* DeltaExceptionP3 */\012NPUSHW[ ]	/* 21 values pushed */\012102 58 118 58 134 58 150 58 166 58 182 58 198 58 214 58 230 58 246 58 10 \012DELTAP1[ ]	/* DeltaExceptionP1 */\012NPUSHW[ ]	/* 33 values pushed */\0126 58 22 58 38 58 54 58 70 58 86 58 102 58 118 58 134 58 150 58 166 58 182 58 198 58 214 58 230 58 246 58 16 \012DELTAP2[ ]	/* DeltaExceptionP2 */\012NPUSHW[ ]	/* 25 values pushed */\0126 58 22 58 38 58 54 58 70 58 86 58 102 58 118 58 134 58 150 58 166 58 182 58 12 \012DELTAP3[ ]	/* DeltaExceptionP3 */\012NPUSHW[ ]	/* 5 values pushed */\012197 58 213 58 2 \012DELTAP3[ ]	/* DeltaExceptionP3 */\012NPUSHW[ ]	/* 21 values pushed */\012105 67 121 67 137 67 153 67 169 67 185 67 201 67 217 67 233 67 249 67 10 \012DELTAP1[ ]	/* DeltaExceptionP1 */\012NPUSHW[ ]	/* 33 values pushed */\0129 67 25 67 41 67 57 67 73 67 89 67 105 67 121 67 137 67 153 67 169 67 185 67 201 67 217 67 233 67 249 67 16 \012DELTAP2[ ]	/* DeltaExceptionP2 */\012NPUSHW[ ]	/* 33 values pushed */\0129 67 25 67 41 67 57 67 73 67 89 67 105 67 121 67 137 67 153 67 169 67 185 67 201 67 217 67 233 67 249 67 16 \012DELTAP3[ ]	/* DeltaExceptionP3 */\012PUSHW[ ]	/* 1 value pushed */\0124 \012SRP0[ ]	/* SetRefPoint0 */\012PUSHW[ ]	/* 1 value pushed */\01278 \012MDRP[11100]	/* MoveDirectRelPt */\012SVTCA[0]	/* SetFreedomAndProjectionVectorToAxis */\012PUSHW[ ]	/* 1 value pushed */\01222 \012MDAP[1]	/* MoveDirectAbsPt */\012PUSHW[ ]	/* 1 value pushed */\01269 \012MDAP[1]	/* MoveDirectAbsPt */\012PUSHW[ ]	/* 1 value pushed */\0121060 \012RCVT[ ]	/* ReadCVT */\012IF[ ]	/* If */\012PUSHW[ ]	/* 1 value pushed */\01210 \012MDAP[1]	/* MoveDirectAbsPt */\012ELSE[ ]	/* Else */\012PUSHW[ ]	/* 2 values pushed */\01210 1071 \012MIAP[0]	/* MoveIndirectAbsPt */\012EIF[ ]	/* EndIf */\012IUP[0]	/* InterpolateUntPts */\012IUP[1]	/* InterpolateUntPts */";
};
width = 656;
}
);
note = V;
unicode = 0056;
},
{
color = 3;
glyphname = W;
lastChange = "2022-03-22 13:35:17 +0000";
layers = (
{
anchors = (
{
name = top;
position = "{909, 590}";
}
);
layerId = "16A236A6-57F5-4152-84D1-48D854BBAFA9";
paths = (
{
closed = 1;
nodes = (
"177 -61 OFFCURVE",
"218 -36 OFFCURVE",
"266 15 CURVE SMOOTH",
"304 54 OFFCURVE",
"351 116 OFFCURVE",
"406 202 CURVE",
"459 243 OFFCURVE",
"529 290 OFFCURVE",
"621 346 CURVE",
"606 325 OFFCURVE",
"593 300 OFFCURVE",
"578 273 CURVE SMOOTH",
"546 210 OFFCURVE",
"530 156 OFFCURVE",
"530 112 CURVE SMOOTH",
"530 69 OFFCURVE",
"544 36 OFFCURVE",
"572 14 CURVE SMOOTH",
"596 -5 OFFCURVE",
"626 -15 OFFCURVE",
"662 -15 CURVE SMOOTH",
"722 -15 OFFCURVE",
"792 10 OFFCURVE",
"872 63 CURVE SMOOTH",
"955 118 OFFCURVE",
"1024 185 OFFCURVE",
"1077 266 CURVE SMOOTH",
"1130 347 OFFCURVE",
"1157 415 OFFCURVE",
"1157 470 CURVE SMOOTH",
"1157 523 OFFCURVE",
"1134 549 OFFCURVE",
"1089 549 CURVE SMOOTH",
"1076 549 OFFCURVE",
"1061 546 OFFCURVE",
"1044 541 CURVE SMOOTH",
"1033 537 OFFCURVE",
"1028 532 OFFCURVE",
"1028 525 CURVE SMOOTH",
"1028 520 OFFCURVE",
"1031 518 OFFCURVE",
"1037 518 CURVE SMOOTH",
"1040 518 OFFCURVE",
"1042 518 OFFCURVE",
"1044 519 CURVE",
"1064 524 OFFCURVE",
"1080 527 OFFCURVE",
"1091 527 CURVE SMOOTH",
"1119 527 OFFCURVE",
"1133 514 OFFCURVE",
"1133 488 CURVE SMOOTH",
"1133 448 OFFCURVE",
"1101 380 OFFCURVE",
"1038 285 CURVE SMOOTH",
"986 208 OFFCURVE",
"923 142 OFFCURVE",
"850 87 CURVE SMOOTH",
"775 31 OFFCURVE",
"711 4 OFFCURVE",
"659 4 CURVE SMOOTH",
"601 4 OFFCURVE",
"559 41 OFFCURVE",
"559 109 CURVE SMOOTH",
"559 152 OFFCURVE",
"574 202 OFFCURVE",
"605 259 CURVE SMOOTH",
"634 315 OFFCURVE",
"662 358 OFFCURVE",
"689 388 CURVE",
"729 413 OFFCURVE",
"760 433 OFFCURVE",
"783 448 CURVE SMOOTH",
"805 463 OFFCURVE",
"819 474 OFFCURVE",
"825 479 CURVE SMOOTH",
"844 498 OFFCURVE",
"854 513 OFFCURVE",
"854 523 CURVE SMOOTH",
"854 532 OFFCURVE",
"847 536 OFFCURVE",
"833 536 CURVE SMOOTH",
"824 536 OFFCURVE",
"815 535 OFFCURVE",
"806 532 CURVE SMOOTH",
"767 521 OFFCURVE",
"720 479 OFFCURVE",
"664 407 CURVE",
"561 340 OFFCURVE",
"485 287 OFFCURVE",
"435 250 CURVE",
"519 388 OFFCURVE",
"561 487 OFFCURVE",
"561 547 CURVE SMOOTH",
"561 600 OFFCURVE",
"520 629 OFFCURVE",
"459 629 CURVE SMOOTH",
"384 629 OFFCURVE",
"297 597 OFFCURVE",
"196 532 CURVE SMOOTH",
"162 510 OFFCURVE",
"125 480 OFFCURVE",
"86 443 CURVE SMOOTH",
"40 399 OFFCURVE",
"15 366 OFFCURVE",
"10 344 CURVE SMOOTH",
"9 339 OFFCURVE",
"8 335 OFFCURVE",
"8 331 CURVE SMOOTH",
"8 296 OFFCURVE",
"41 273 OFFCURVE",
"94 273 CURVE SMOOTH",
"110 273 OFFCURVE",
"118 276 OFFCURVE",
"118 284 CURVE SMOOTH",
"118 288 OFFCURVE",
"115 290 OFFCURVE",
"109 290 CURVE SMOOTH",
"104 290 LINE SMOOTH",
"69 290 OFFCURVE",
"52 298 OFFCURVE",
"52 320 CURVE SMOOTH",
"52 346 OFFCURVE",
"75 382 OFFCURVE",
"120 427 CURVE SMOOTH",
"156 462 OFFCURVE",
"191 491 OFFCURVE",
"225 513 CURVE SMOOTH",
"258 536 OFFCURVE",
"297 555 OFFCURVE",
"341 574 CURVE SMOOTH",
"397 597 OFFCURVE",
"441 609 OFFCURVE",
"473 609 CURVE SMOOTH",
"508 609 OFFCURVE",
"526 596 OFFCURVE",
"526 569 CURVE SMOOTH",
"526 551 OFFCURVE",
"522 525 OFFCURVE",
"508 494 CURVE SMOOTH",
"480 430 LINE SMOOTH",
"448 356 OFFCURVE",
"408 276 OFFCURVE",
"359 192 CURVE",
"221 90 LINE",
"176 52 OFFCURVE",
"143 15 OFFCURVE",
"122 -22 CURVE",
"119 -29 OFFCURVE",
"117 -35 OFFCURVE",
"117 -40 CURVE SMOOTH",
"117 -54 OFFCURVE",
"126 -61 OFFCURVE",
"143 -61 CURVE SMOOTH"
);
},
{
closed = 1;
nodes = (
"164 -16 OFFCURVE",
"161 -14 OFFCURVE",
"161 -11 CURVE",
"163 -7 LINE SMOOTH",
"170 7 OFFCURVE",
"185 20 OFFCURVE",
"202 37 CURVE SMOOTH",
"210 45 OFFCURVE",
"225 58 OFFCURVE",
"246 77 CURVE SMOOTH",
"281 105 OFFCURVE",
"308 126 OFFCURVE",
"327 139 CURVE",
"294 87 OFFCURVE",
"269 52 OFFCURVE",
"252 34 CURVE SMOOTH",
"221 1 OFFCURVE",
"193 -16 OFFCURVE",
"170 -16 CURVE SMOOTH"
);
}
);
userData = {
assembly = "PUSHW[ ]	/* 1 value pushed */\01210 \012CALL[ ]	/* CallFunction */\012PUSHW[ ]	/* 4 values pushed */\01241 1070 50 14 \012CALL[ ]	/* CallFunction */\012PUSHW[ ]	/* 4 values pushed */\01281 1068 30 14 \012CALL[ ]	/* CallFunction */\012PUSHW[ ]	/* 4 values pushed */\012104 1067 90 14 \012CALL[ ]	/* CallFunction */\012PUSHW[ ]	/* 1 value pushed */\01230 \012SRP0[ ]	/* SetRefPoint0 */\012PUSHW[ ]	/* 1 value pushed */\0126 \012MDRP[10000]	/* MoveDirectRelPt */\012PUSHW[ ]	/* 1 value pushed */\0126 \012MDAP[1]	/* MoveDirectAbsPt */\012PUSHW[ ]	/* 3 values pushed */\01211 50 104 \012SRP1[ ]	/* SetRefPoint1 */\012SRP2[ ]	/* SetRefPoint2 */\012IP[ ]	/* InterpolatePts */\012NPUSHW[ ]	/* 21 values pushed */\012102 41 118 41 134 41 150 41 166 41 182 41 198 41 214 41 230 41 246 41 10 \012DELTAP1[ ]	/* DeltaExceptionP1 */\012NPUSHW[ ]	/* 33 values pushed */\0126 41 22 41 38 41 54 41 70 41 86 41 102 41 118 41 134 41 150 41 166 41 182 41 198 41 214 41 230 41 246 41 16 \012DELTAP2[ ]	/* DeltaExceptionP2 */\012NPUSHW[ ]	/* 25 values pushed */\0126 41 22 41 38 41 54 41 70 41 86 41 102 41 118 41 134 41 150 41 166 41 182 41 12 \012DELTAP3[ ]	/* DeltaExceptionP3 */\012NPUSHW[ ]	/* 5 values pushed */\012197 41 213 41 2 \012DELTAP3[ ]	/* DeltaExceptionP3 */\012PUSHW[ ]	/* 1 value pushed */\01250 \012SRP0[ ]	/* SetRefPoint0 */\012PUSHW[ ]	/* 1 value pushed */\01253 \012MDRP[10000]	/* MoveDirectRelPt */\012PUSHW[ ]	/* 1 value pushed */\01253 \012MDAP[1]	/* MoveDirectAbsPt */\012NPUSHW[ ]	/* 21 values pushed */\012102 81 118 81 134 81 150 81 166 81 182 81 198 81 214 81 230 81 246 81 10 \012DELTAP1[ ]	/* DeltaExceptionP1 */\012NPUSHW[ ]	/* 33 values pushed */\0126 81 22 81 38 81 54 81 70 81 86 81 102 81 118 81 134 81 150 81 166 81 182 81 198 81 214 81 230 81 246 81 16 \012DELTAP2[ ]	/* DeltaExceptionP2 */\012NPUSHW[ ]	/* 25 values pushed */\0126 81 22 81 38 81 54 81 70 81 86 81 102 81 118 81 134 81 150 81 166 81 182 81 12 \012DELTAP3[ ]	/* DeltaExceptionP3 */\012NPUSHW[ ]	/* 5 values pushed */\012197 81 213 81 2 \012DELTAP3[ ]	/* DeltaExceptionP3 */\012PUSHW[ ]	/* 1 value pushed */\01281 \012SRP0[ ]	/* SetRefPoint0 */\012PUSHW[ ]	/* 1 value pushed */\01262 \012MDRP[10000]	/* MoveDirectRelPt */\012PUSHW[ ]	/* 1 value pushed */\01262 \012MDAP[1]	/* MoveDirectAbsPt */\012PUSHW[ ]	/* 3 values pushed */\01264 50 104 \012SRP1[ ]	/* SetRefPoint1 */\012SRP2[ ]	/* SetRefPoint2 */\012IP[ ]	/* InterpolatePts */\012NPUSHW[ ]	/* 21 values pushed */\012105 90 121 90 137 90 153 90 169 90 185 90 201 90 217 90 233 90 249 90 10 \012DELTAP1[ ]	/* DeltaExceptionP1 */\012NPUSHW[ ]	/* 33 values pushed */\0129 90 25 90 41 90 57 90 73 90 89 90 105 90 121 90 137 90 153 90 169 90 185 90 201 90 217 90 233 90 249 90 16 \012DELTAP2[ ]	/* DeltaExceptionP2 */\012NPUSHW[ ]	/* 33 values pushed */\0129 90 25 90 41 90 57 90 73 90 89 90 105 90 121 90 137 90 153 90 169 90 185 90 201 90 217 90 233 90 249 90 16 \012DELTAP3[ ]	/* DeltaExceptionP3 */\012PUSHW[ ]	/* 3 values pushed */\012108 50 104 \012SRP1[ ]	/* SetRefPoint1 */\012SRP2[ ]	/* SetRefPoint2 */\012IP[ ]	/* InterpolatePts */\012PUSHW[ ]	/* 1 value pushed */\012104 \012SRP0[ ]	/* SetRefPoint0 */\012PUSHW[ ]	/* 1 value pushed */\012125 \012MDRP[11100]	/* MoveDirectRelPt */\012SVTCA[0]	/* SetFreedomAndProjectionVectorToAxis */\012PUSHW[ ]	/* 1 value pushed */\01259 \012MDAP[1]	/* MoveDirectAbsPt */\012PUSHW[ ]	/* 4 values pushed */\012120 1064 18 14 \012CALL[ ]	/* CallFunction */\012PUSHW[ ]	/* 4 values pushed */\012102 1061 92 14 \012CALL[ ]	/* CallFunction */\012PUSHW[ ]	/* 1 value pushed */\012120 \012SRP0[ ]	/* SetRefPoint0 */\012PUSHW[ ]	/* 1 value pushed */\0122 \012MDRP[10000]	/* MoveDirectRelPt */\012PUSHW[ ]	/* 1 value pushed */\0122 \012MDAP[1]	/* MoveDirectAbsPt */\012IUP[0]	/* InterpolateUntPts */\012IUP[1]	/* InterpolateUntPts */";
};
width = 1017;
}
);
leftKerningGroup = W;
note = W;
rightKerningGroup = W;
unicode = 0057;
},
